<svg viewBox="0 0 1024 1024" xmlns="http://www.w3.org/2000/svg" width="32" height="32"><defs><style/></defs><path d="M879.505 519.5a128.064 128.064 0 0 1 85.034 120.229 128.064 128.064 0 0 1-85.034 120.23v225.696a38.108 38.108 0 0 1-38.305 37.911 38.108 38.108 0 0 1-38.345-37.911V763.62a128.26 128.26 0 0 1-96.963-123.891 128.26 128.26 0 0 1 96.963-123.891V37.911C802.855 16.968 820.02 0 841.2 0s38.344 16.968 38.344 37.911V519.5zM556.097 103.655a128.064 128.064 0 0 1 85.035 120.23 128.064 128.064 0 0 1-85.035 120.23v641.539a38.108 38.108 0 0 1-38.305 37.911 38.108 38.108 0 0 1-38.344-37.911v-637.84a128.26 128.26 0 0 1-97.003-123.93 128.26 128.26 0 0 1 97.003-123.89V37.91c0-20.942 17.164-37.91 38.344-37.91 21.14 0 38.305 16.968 38.305 37.911v65.745zm-323.408 543.79a128.064 128.064 0 0 1 85.035 120.23 128.064 128.064 0 0 1-85.035 120.23v97.75a37.833 37.833 0 0 1-19.172 32.833 38.699 38.699 0 0 1-38.305 0 37.833 37.833 0 0 1-19.172-32.833v-94.09a128.26 128.26 0 0 1-96.963-123.89 128.26 128.26 0 0 1 96.963-123.891V37.91C156.04 16.968 173.205 0 194.345 0c21.18 0 38.344 16.968 38.344 37.911v609.534zm602.487-71.689c-35.706 0-64.681 28.66-64.681 63.973s28.975 63.973 64.681 63.973c35.746 0 64.721-28.66 64.721-63.973s-28.975-63.973-64.72-63.973zM511.808 159.913c-35.707 0-64.681 28.66-64.681 63.972 0 35.353 28.974 63.973 64.681 63.973 35.746 0 64.682-28.62 64.682-63.973 0-35.313-28.936-63.972-64.682-63.972zM188.361 703.702c-35.707 0-64.681 28.66-64.681 63.973 0 35.352 28.974 63.973 64.681 63.973s64.682-28.621 64.682-63.973c0-35.313-28.975-63.973-64.682-63.973z"/></svg>