<svg class="icon" viewBox="0 0 1024 1024" xmlns="http://www.w3.org/2000/svg" width="32" height="32"><defs><style/></defs><path d="M78.763 236.31v708.906H787.69V236.309H78.784zm0-78.763H787.69a78.997 78.997 0 0 1 78.762 78.762v708.907A78.997 78.997 0 0 1 787.691 1024H78.784A78.997 78.997 0 0 1 0 945.237V236.31a78.997 78.997 0 0 1 78.763-78.762zm157.546 236.309h393.835c23.637 0 39.403 15.744 39.403 39.381 0 23.616-15.766 39.382-39.403 39.382H236.309c-23.637 0-39.381-15.766-39.381-39.382 0-23.637 15.744-39.381 39.381-39.381zm0 157.525h393.835c23.637 0 39.403 15.766 39.403 39.382 0 23.637-15.766 39.381-39.403 39.381H236.309c-23.637 0-39.381-15.744-39.381-39.381 0-23.616 15.744-39.382 39.381-39.382zm0 157.547h393.835c23.637 0 39.403 15.744 39.403 39.381s-15.766 39.382-39.403 39.382H236.309c-23.637 0-39.381-15.744-39.381-39.382s15.744-39.381 39.381-39.381zm39.382-630.165c-23.638 0-39.382-15.744-39.382-39.382S252.053 0 275.691 0h630.165C972.8 0 1024 51.2 1024 118.144v630.165c0 23.638-15.744 39.382-39.381 39.382s-39.382-15.744-39.382-39.382V118.144c0-23.616-15.765-39.381-39.381-39.381H275.691z"/></svg>