<svg class="icon" viewBox="0 0 1069 1024" xmlns="http://www.w3.org/2000/svg" width="33.406" height="32"><defs><style/></defs><path d="M534.21 632.309a129.638 129.638 0 0 1-129.48-129.48A129.616 129.616 0 0 1 534.21 373.35a129.616 129.616 0 0 1 129.479 129.48 129.638 129.638 0 0 1-129.48 129.479zm0-184.502a55.068 55.068 0 0 0-55.024 55 55.068 55.068 0 0 0 55.023 55.023 55.068 55.068 0 0 0 55.023-55.023 55.068 55.068 0 0 0-55.023-55zm168.868 557.852c-8.738 0-17.772-2.64-24.803-7.236a37.547 37.547 0 0 1-7.054-6.053 345.316 345.316 0 0 0-44.374-39.345c-35.043-26.032-67.22-39.23-95.573-39.23-28.103 0-60.03 12.97-94.89 38.502a341.515 341.515 0 0 0-44.192 38.685 38.19 38.19 0 0 1-7.214 6.007c-9.398 5.985-22.46 8.647-33.723 5.826a37 37 0 0 1-9.102-3.596l-129.07-72.18a37.25 37.25 0 0 1-16.02-47.241c1.525-3.55 14.996-35.726 14.996-67.265A175.49 175.49 0 0 0 45.693 637.156a37.205 37.205 0 0 1-34.702-30.538C9.148 596.468 0 543.858 0 503.262c0-40.733 9.148-93.23 10.99-103.333a37.228 37.228 0 0 1 34.703-30.56 175.445 175.445 0 0 0 166.343-175.355c0-31.54-13.403-63.625-14.927-67.152a37.25 37.25 0 0 1 16.27-47.377L349.753 4.62c5.507-3.026 11.537-4.46 18-4.619 9.58 0 18.932 2.753 26.146 7.555a37.606 37.606 0 0 1 6.19 5.188c1.865 1.957 19.023 19.57 43.69 37.16 34.429 24.53 65.832 36.978 93.389 36.978 27.26 0 58.436-12.22 92.615-36.25a332.436 332.436 0 0 0 43.463-36.477 42.716 42.716 0 0 1 5.643-4.71c12.152-8.306 30.97-10.65 44.715-3.072l131.618 73.136a37.205 37.205 0 0 1 16.156 47.24c-1.524 3.573-15.018 35.886-15.018 67.266a175.49 175.49 0 0 0 166.388 175.354c17.295.91 31.676 13.585 34.725 30.63 2.595 14.358 10.946 64.238 10.946 103.264 0 39.276-8.351 88.974-10.923 103.31a37.228 37.228 0 0 1-34.77 30.584 175.514 175.514 0 0 0-166.389 175.377c0 30.606 12.516 61.44 15.019 67.288 7.486 17.567.455 37.979-16.248 47.218l-133.802 73.955a38.457 38.457 0 0 1-18.228 4.665zM531.274 839.316c44.715 0 91.796 18.159 139.97 53.93 14.54 10.81 26.942 21.573 36.272 30.288l84.15-46.512c-5.097-17.84-9.785-40.733-9.785-64.49 0-122.788 88.587-225.666 206.62-246.328 2.663-18.614 5.462-43.008 5.462-62.942 0-19.797-2.8-44.26-5.462-62.942a249.993 249.993 0 0 1-206.62-246.306c0-23.848 4.688-46.786 9.83-64.626l-83.194-46.194c-9.239 8.124-21.527 18.25-35.863 28.354-94.435 66.4-177.948 66.06-272.065-.979a421.228 421.228 0 0 1-36.204-29.036l-87.564 48.083c5.075 17.749 9.694 40.573 9.694 64.398 0 122.812-88.542 225.667-206.597 246.306-2.617 18.5-5.462 43.03-5.462 62.942 0 19.865 2.845 44.419 5.462 62.942a250.015 250.015 0 0 1 206.62 246.329c0 23.961-4.71 46.922-9.83 64.762l79.667 44.555c9.33-8.556 21.595-19.069 35.976-29.627 47.923-35.112 94.663-52.907 138.923-52.907z"/></svg>