<svg class="icon" viewBox="0 0 1024 1024" xmlns="http://www.w3.org/2000/svg" width="380" height="380"><defs><style/></defs><path d="M900.361 172.184a97.09 97.09 0 0 1 97.09 97.09v388.362a97.09 97.09 0 0 1-97.09 97.09h-194.18a97.09 97.09 0 0 1-97.09 97.09H123.638a97.09 97.09 0 0 1-97.09-97.09V366.364a97.09 97.09 0 0 1 97.09-97.09h194.18a97.09 97.09 0 0 1 97.09-97.09H900.36zm-291.27 145.635H123.638a48.545 48.545 0 0 0-48.206 42.866l-.34 5.68v388.36a48.545 48.545 0 0 0 42.866 48.206l5.68.34H609.09a48.545 48.545 0 0 0 48.206-42.865l.34-5.68V366.364a48.545 48.545 0 0 0-42.866-48.205l-5.68-.34zM254.127 614.43a24.273 24.273 0 0 1 30.292 0l9.127 7.234 9.126-7.282a24.273 24.273 0 0 1 26.312-2.573l3.98 2.621 121.363 97.09a24.273 24.273 0 0 1-15.146 43.206h-291.27a24.273 24.273 0 0 1-15.147-43.205zm646.234-393.7H414.91a48.545 48.545 0 0 0-48.206 42.865l-.34 5.68H609.09a97.09 97.09 0 0 1 97.09 97.09v339.817h194.181a48.545 48.545 0 0 0 48.206-42.866l.34-5.68v-388.36a48.545 48.545 0 0 0-42.866-48.206l-5.68-.34zM317.82 664.432l-9.126 7.282a24.273 24.273 0 0 1-30.292 0l-9.127-7.282-52.186 41.749h152.869l-52.138-41.75zm266.999-55.342a24.273 24.273 0 0 1 4.369 48.157l-4.37.389h-48.544a24.273 24.273 0 0 1-4.37-48.157l4.37-.389h48.545zM293.547 366.364a121.363 121.363 0 1 1 0 242.726 121.363 121.363 0 0 1 0-242.726zm0 48.546a72.818 72.818 0 1 0 0 145.635 72.818 72.818 0 0 0 0-145.635zM584.817 512a24.273 24.273 0 0 1 4.37 48.157l-4.37.388h-97.09a24.273 24.273 0 0 1-4.369-48.157l4.37-.388h97.09zm291.272 0a24.273 24.273 0 0 1 4.369 48.157l-4.37.388h-48.544a24.273 24.273 0 0 1-4.37-48.157l4.37-.388h48.545zm-291.271-97.09a24.273 24.273 0 0 1 4.369 48.156l-4.37.389h-97.09a24.273 24.273 0 0 1-4.369-48.157l4.37-.388h97.09zm291.27 0a24.273 24.273 0 0 1 4.37 48.156l-4.37.389h-97.09a24.273 24.273 0 0 1-4.369-48.157l4.37-.388h97.09zm0-97.09a24.273 24.273 0 0 1 4.37 48.156l-4.37.388h-97.09a24.273 24.273 0 0 1-4.369-48.156l4.37-.389h97.09z"/></svg>