<svg class="icon" viewBox="0 0 1024 1024" xmlns="http://www.w3.org/2000/svg" width="16" height="16"><defs><style/></defs><path d="M981.333 640a42.667 42.667 0 0 1 42.368 37.675l.299 4.992v128a213.333 213.333 0 0 1-204.075 213.12l-9.258.213H213.333A213.333 213.333 0 0 1 .213 819.925L0 810.667v-128a42.667 42.667 0 0 1 85.035-4.992l.298 4.992v128a128 128 0 0 0 120.491 127.786l7.51.214h597.333a128 128 0 0 0 127.786-120.491l.214-7.51v-128A42.667 42.667 0 0 1 981.333 640zM507.008 21.632l4.992-.299a42.667 42.667 0 0 1 42.368 37.675l.299 4.992v558.25L780.5 396.502a42.667 42.667 0 0 1 56.32-3.541l4.011 3.541a42.667 42.667 0 0 1 3.541 56.32l-3.541 4.011L542.164 755.5a42.453 42.453 0 0 1-22.613 11.818l-5.035.598h-5.034a42.496 42.496 0 0 1-23.638-8.875l-4.01-3.541-298.667-298.667a42.667 42.667 0 0 1 56.32-63.872l4.01 3.541 225.835 225.792V64a42.667 42.667 0 0 1 37.675-42.368l4.992-.299-4.992.299z"/></svg>