<svg class="icon" viewBox="0 0 1365 1024" xmlns="http://www.w3.org/2000/svg" width="266.602" height="200"><defs><style/></defs><path d="M1194.667 0a170.667 170.667 0 0 1 170.666 170.667v682.666A170.667 170.667 0 0 1 1194.667 1024h-1024A170.667 170.667 0 0 1 0 853.333V170.667A170.667 170.667 0 0 1 170.667 0h1024zM85.93 160.683l-.598 9.984v682.666a85.333 85.333 0 0 0 75.35 84.736l9.984.598h1024a85.333 85.333 0 0 0 84.736-75.35l.597-9.984V170.667a85.163 85.163 0 0 0-5.29-29.696L766.634 510.635a125.44 125.44 0 0 1-134.571 8.362l-11.264-7.082L90.88 140.373a84.821 84.821 0 0 0-4.95 20.31zm1108.736-75.35h-1024c-3.84 0-7.68.256-11.35.768l509.526 357.376a41.813 41.813 0 0 0 42.154 3.414l6.486-3.84 489.984-356.694a85.333 85.333 0 0 0-2.816-.426l-9.984-.598z"/></svg>