<svg class="icon" viewBox="0 0 1024 1024" xmlns="http://www.w3.org/2000/svg" width="200" height="200"><defs><style/></defs><path d="M635.05 231.381a21.333 21.333 0 0 1 20.097 18.475l.17 3.84-5.546 114.133 153.77-142.421A21.333 21.333 0 0 1 830.848 224l2.859 2.56a21.333 21.333 0 0 1 1.408 27.307l-2.56 2.858-150.358 139.222 112.214-3.499a21.333 21.333 0 0 1 5.162 42.24l-3.84.427-167.466 5.162a21.077 21.077 0 0 1-4.864-.042l3.242.085a21.419 21.419 0 0 1-21.461-16.256l-.213-1.28a8.277 8.277 0 0 1-.171-1.11l-.085-1.023a21.675 21.675 0 0 1-.086-.982v-1.706l8.064-166.315a21.333 21.333 0 0 1 22.358-20.267zm-220.8 0a21.333 21.333 0 0 0-20.138 18.475l-.17 3.84 5.418 111.659-142.165-140.459a21.333 21.333 0 0 0-27.222-2.304l-2.986 2.517a21.333 21.333 0 0 0-2.262 27.222l2.475 2.944 142.464 140.672-114.859-3.542a21.333 21.333 0 0 0-5.12 42.24l3.84.427 169.131 5.205a17.067 17.067 0 0 0 3.413-.128l-3.413.128a21.419 21.419 0 0 0 21.504-16.64l.128-.853a8.192 8.192 0 0 0 .17-1.067l.129-1.152v-2.645l-8.022-166.315a21.333 21.333 0 0 0-22.314-20.266zm220.8 601.771a21.333 21.333 0 0 0 20.097-18.475l.17-3.84-5.546-114.133 153.77 142.421a21.333 21.333 0 0 0 27.307 1.408l2.859-2.56a21.333 21.333 0 0 0 1.408-27.306l-2.56-2.859-150.358-139.221 112.214 3.498a21.333 21.333 0 0 0 5.162-42.197l-3.84-.427-167.466-5.205a21.077 21.077 0 0 0-4.864.043l3.242-.086a21.419 21.419 0 0 0-21.461 16.256l-.213 1.28a8.277 8.277 0 0 0-.171 1.11l-.085 1.024a21.675 21.675 0 0 0-.086.981v1.707l8.064 166.314a21.333 21.333 0 0 0 22.358 20.267zm-220.8 0a21.333 21.333 0 0 1-20.138-18.475l-.17-3.84 5.418-111.658-142.165 140.458a21.333 21.333 0 0 1-27.222 2.304l-2.986-2.474a21.333 21.333 0 0 1-2.262-27.264l2.475-2.944 142.464-140.715-114.859 3.541a21.333 21.333 0 0 1-5.12-42.197l3.84-.427 169.131-5.248a17.067 17.067 0 0 1 3.413.128l-3.413-.128a21.419 21.419 0 0 1 21.504 16.64l.128.854a8.192 8.192 0 0 1 .17 1.109l.129 1.11v2.645l-8.022 166.314a21.333 21.333 0 0 1-22.314 20.267z"/></svg>