<svg class="icon" viewBox="0 0 1024 1024" xmlns="http://www.w3.org/2000/svg" width="200" height="200"><defs><style/></defs><path d="M788.907 192a20.907 20.907 0 0 1 17.621 9.259c2.56 2.858 4.352 6.4 5.035 10.325l.341 3.84v161.877a21.333 21.333 0 0 1-42.325 3.84l-.342-3.84v-113.28L616.533 420.78a21.333 21.333 0 0 1-32.981-26.795l2.432-2.987 152.405-156.373-109.653.043a21.333 21.333 0 0 1-20.95-17.494l-.34-3.84a21.333 21.333 0 0 1 17.493-20.992l3.84-.341h160.128zm0 583.083a20.907 20.907 0 0 0 17.621-9.259 20.992 20.992 0 0 0 5.035-10.283l.341-3.84V589.824a21.333 21.333 0 0 0-42.325-3.84l-.342 3.84v113.237L616.533 546.347a21.333 21.333 0 0 0-32.981 26.794l2.432 2.987 152.405 156.33H628.736a21.333 21.333 0 0 0-20.95 17.494l-.34 3.84a21.333 21.333 0 0 0 17.493 20.95l3.84.34h160.128zM251.563 192a20.907 20.907 0 0 0-17.622 9.259 20.992 20.992 0 0 0-5.034 10.325l-.342 3.84v161.877a21.333 21.333 0 0 0 42.326 3.84l.341-3.84v-113.28L423.979 420.78a21.333 21.333 0 0 0 32.938-26.795l-2.432-2.987L302.08 234.624l109.653.043a21.333 21.333 0 0 0 20.95-17.494l.384-3.84a21.333 21.333 0 0 0-17.494-20.992l-3.84-.341h-160.17zm0 583.083a20.907 20.907 0 0 1-17.622-9.259 20.992 20.992 0 0 1-5.034-10.283l-.342-3.84V589.824a21.333 21.333 0 0 1 42.326-3.84l.341 3.84v113.237l152.747-156.714a21.333 21.333 0 0 1 32.938 26.794l-2.432 2.987-152.405 156.33h109.653a21.333 21.333 0 0 1 20.95 17.494l.341 3.84a21.333 21.333 0 0 1-17.493 20.95l-3.84.34H251.563z"/></svg>