<svg class="icon" viewBox="0 0 1024 1024" xmlns="http://www.w3.org/2000/svg" width="380" height="380"><defs><style/></defs><path d="M454.944 31.026L40.912 424.289l-5.91 6.352A83.237 83.237 0 0 0 37.93 541.44l6.13 5.854a82.85 82.85 0 0 0 53.964 19.94l82.574-.056v303.84a138.084 138.084 0 0 0 138.084 138.085h55.234a82.85 82.85 0 0 0 82.85-82.85V705.317a27.617 27.617 0 0 1 27.617-27.617h55.234a27.617 27.617 0 0 1 27.617 27.617v220.934a82.85 82.85 0 0 0 82.85 82.85h55.234l9.058-.275a138.084 138.084 0 0 0 129.026-137.808v-303.84l82.574.055 8.064-.442a83.182 83.182 0 0 0 74.787-82.409 82.85 82.85 0 0 0-25.74-60.039L569.058 31.026l-6.353-5.413-1.325-1.05a82.85 82.85 0 0 0-106.435 6.463zm73.184 37.669l4.143 3.48 412.76 392.158a27.617 27.617 0 0 1-15.796 47.501l-4.805.221L788.168 512v359.019a82.85 82.85 0 0 1-82.85 82.85h-55.234a27.617 27.617 0 0 1-27.617-27.617V705.318a82.85 82.85 0 0 0-82.85-82.85h-55.234a82.85 82.85 0 0 0-82.85 82.85v220.934a27.617 27.617 0 0 1-27.617 27.617h-55.234a82.85 82.85 0 0 1-82.85-82.85V512H98.024a27.617 27.617 0 0 1-21.43-45.07l3.59-3.812L493 71.07a27.617 27.617 0 0 1 31.262-4.75l3.866 2.375z"/></svg>