<svg class="icon" viewBox="0 0 1024 1024" xmlns="http://www.w3.org/2000/svg" width="32" height="32"><defs><style/></defs><path d="M122.88 655.36a40.96 40.96 0 0 0-40.96 40.96v204.8c0 22.617 18.343 40.96 40.96 40.96h204.8a40.96 40.96 0 0 0 40.96-40.96v-204.8a40.96 40.96 0 0 0-40.96-40.96h-204.8zm0-81.92h204.8a122.88 122.88 0 0 1 122.88 122.88v204.8A122.88 122.88 0 0 1 327.68 1024h-204.8A122.88 122.88 0 0 1 0 901.12v-204.8a122.88 122.88 0 0 1 122.88-122.88zm573.44 81.92a40.96 40.96 0 0 0-40.96 40.96v204.8c0 22.617 18.343 40.96 40.96 40.96h204.8a40.96 40.96 0 0 0 40.96-40.96v-204.8a40.96 40.96 0 0 0-40.96-40.96h-204.8zm0-81.92h204.8A122.88 122.88 0 0 1 1024 696.32v204.8A122.88 122.88 0 0 1 901.12 1024h-204.8a122.88 122.88 0 0 1-122.88-122.88v-204.8a122.88 122.88 0 0 1 122.88-122.88zm0-491.52a40.96 40.96 0 0 0-40.96 40.96v204.8c0 22.617 18.343 40.96 40.96 40.96h204.8a40.96 40.96 0 0 0 40.96-40.96v-204.8a40.96 40.96 0 0 0-40.96-40.96h-204.8zm0-81.92h204.8A122.88 122.88 0 0 1 1024 122.88v204.8a122.88 122.88 0 0 1-122.88 122.88h-204.8a122.88 122.88 0 0 1-122.88-122.88v-204.8A122.88 122.88 0 0 1 696.32 0z"/></svg>