<svg class="icon" viewBox="0 0 1024 1024" xmlns="http://www.w3.org/2000/svg" width="200" height="200"><defs><style/></defs><path d="M512 53.895a431.158 431.158 0 1 1 0 862.316 431.158 431.158 0 0 1 0-862.316zm0 53.894a377.263 377.263 0 1 0 0 754.527 377.263 377.263 0 0 0 0-754.527z"/><path d="M424.044 275.402a26.947 26.947 0 0 1 34.385-3.072l3.718 3.126 190.518 190.518a26.947 26.947 0 0 1 3.126 34.385l-3.126 3.772L462.147 694.65a26.947 26.947 0 0 1-41.23-34.385l3.127-3.718 171.439-171.493-171.44-171.493a26.947 26.947 0 0 1-3.125-34.385l3.126-3.773z"/></svg>