<svg class="icon" viewBox="0 0 1086 1024" xmlns="http://www.w3.org/2000/svg" width="33.938" height="32"><defs><style/></defs><path d="M856.816 1022.955V1024H125.388A125.388 125.388 0 0 1 0 898.612V334.367A125.388 125.388 0 0 1 125.388 208.98h543.347C668.735 93.56 762.295 0 877.715 0s208.979 93.56 208.979 208.98v585.142h-1.045a209.157 209.157 0 0 1 1.045 20.898c0 115.42-93.56 208.98-208.98 208.98a209.47 209.47 0 0 1-20.898-1.045zm-146.285-82.547a208.06 208.06 0 0 1-41.796-125.388c0-7.063.355-14.022 1.045-20.898h-1.045v-501.55H125.388a41.796 41.796 0 0 0-41.796 41.795v564.245a41.796 41.796 0 0 0 41.796 41.796H710.53zm41.796-292.571a208.06 208.06 0 0 1 125.387-41.796c47.042 0 90.468 15.548 125.388 41.796V208.98a125.388 125.388 0 1 0-250.775 0v438.857zm125.387 292.571a125.388 125.388 0 1 0 0-250.775 125.388 125.388 0 0 0 0 250.775z"/></svg>