<svg class="icon" viewBox="0 0 1046 1024" xmlns="http://www.w3.org/2000/svg" width="32.688" height="32"><defs><style/></defs><path d="M556.518 334.43a111.838 111.838 0 0 1 56.008 3.005l356.171 113.33a111.304 111.304 0 0 1 77.556 106.072V908.69a111.304 111.304 0 0 1-111.303 111.303H578.778a110.88 110.88 0 0 1-73.905-28.048 132.985 132.985 0 0 1-81.92 28.048H133.564A133.564 133.564 0 0 1 0 886.43V312.726a133.564 133.564 0 0 1 63.265-113.552L352.655 20.02a133.564 133.564 0 0 1 203.863 113.574V334.43zm0 109.077V908.69a22.26 22.26 0 0 0 22.26 22.26H934.95a22.26 22.26 0 0 0 22.26-22.26V556.837a22.26 22.26 0 0 0-15.515-21.215L585.523 422.293a22.26 22.26 0 0 0-29.005 21.214zm-89.043 0V133.594a44.521 44.521 0 0 0-67.962-37.843l-289.39 179.132a44.521 44.521 0 0 0-21.08 37.843v573.703a44.521 44.521 0 0 0 44.521 44.521h289.39a44.521 44.521 0 0 0 44.52-44.521V443.507z"/></svg>