<svg class="icon" viewBox="0 0 1024 1024" xmlns="http://www.w3.org/2000/svg" width="200" height="200"><defs><style/></defs><path d="M5.416 518.007a500.622 500.622 0 1 0 1001.244 0 500.622 500.622 0 1 0-1001.244 0z"/><path d="M591.371 601.93a22.756 22.756 0 0 1 22.756 22.756V749.84a22.756 22.756 0 0 1-22.756 22.756H466.216a22.756 22.756 0 0 1-22.756-22.756V624.686a22.756 22.756 0 0 1 22.756-22.756H591.37zm-6.212-384a22.756 22.756 0 0 1 22.756 22.756V365.84a22.756 22.756 0 0 1-22.756 22.756h-39.822v83.9h256V601.93h46.034a22.756 22.756 0 0 1 22.756 22.756V749.84a22.756 22.756 0 0 1-22.756 22.756H722.216a22.756 22.756 0 0 1-22.756-22.756V624.686a22.756 22.756 0 0 1 22.756-22.756h33.61v-83.9h-466.49v83.9h46.035a22.756 22.756 0 0 1 22.756 22.756V749.84a22.756 22.756 0 0 1-22.756 22.756H210.216a22.756 22.756 0 0 1-22.756-22.756V624.686a22.756 22.756 0 0 1 22.756-22.756h33.61V472.496h256v-83.9h-39.822a22.756 22.756 0 0 1-22.756-22.755V240.686a22.756 22.756 0 0 1 22.756-22.756h125.155z"/></svg>