<svg class="icon" viewBox="0 0 1047 1024" xmlns="http://www.w3.org/2000/svg" width="204.492" height="200"><defs><style/></defs><path d="M11.636 512a512 512 0 1 0 1024 0 512 512 0 1 0-1024 0z"/><path d="M706.467 226.746L208.524 484.212a43.008 43.008 0 0 0 10.24 80.105l113.92 25.6c15.825 3.56 28.3 15.779 32.163 31.535l38.912 157.44a27.718 27.718 0 0 0 48.477 10.868l38.167-47.127a42.659 42.659 0 0 1 62.51-4.143l104.03 98.397a42.752 42.752 0 0 0 71.982-28.113l39.773-540.672a42.799 42.799 0 0 0-62.231-41.356zM641.699 432.57l-149.97 170.124a12.986 12.986 0 0 0-3.467 7.587l-5.283 53.83a24.483 24.483 0 0 1-48.733-4.818l5.283-53.853a62.54 62.54 0 0 1 16.267-36.166l149.225-169.286A24.53 24.53 0 1 1 641.7 432.57z"/></svg>