<svg class="icon" viewBox="0 0 1249 1024" xmlns="http://www.w3.org/2000/svg" width="243.945" height="200"><defs><style/></defs><path d="M553.21 303.898h71.225v178.085H553.21zM125.851 446.351h71.226v284.905h-71.226zm854.714 0h71.227v284.905h-71.227zM484.338 18.994h208.93q37.988 0 37.988 37.987v208.93q0 37.987-37.988 37.987h-208.93q-37.987 0-37.987-37.987V56.981q0-37.987 37.987-37.987zm0 641.036h208.93q37.988 0 37.988 37.987v208.93q0 37.987-37.988 37.987h-208.93q-37.987 0-37.987-37.987v-208.93q0-37.987 37.987-37.987z"/><path d="M56.981 660.03h208.93q37.987 0 37.987 37.987v208.93q0 37.987-37.987 37.987H56.981q-37.987 0-37.987-37.987v-208.93q0-37.987 37.987-37.987zm854.714 0h208.93q37.988 0 37.988 37.987v208.93q0 37.987-37.987 37.987h-208.93q-37.988 0-37.988-37.987v-208.93q0-37.987 37.987-37.987zM161.446 446.35h854.715v71.227H161.446z"/></svg>