<svg class="icon" viewBox="0 0 1024 1024" xmlns="http://www.w3.org/2000/svg" width="200" height="200"><defs><style/></defs><path d="M764.649 203.473L266.705 460.94a43.008 43.008 0 0 0 10.24 80.104l113.92 25.6c15.826 3.561 28.3 15.78 32.163 31.535l38.912 157.44a27.718 27.718 0 0 0 48.477 10.868l38.168-47.127a42.659 42.659 0 0 1 62.51-4.143l104.03 98.398a42.752 42.752 0 0 0 71.982-28.114L826.88 244.83a42.799 42.799 0 0 0-62.231-41.356zM699.88 409.297L549.91 579.421a12.986 12.986 0 0 0-3.467 7.587l-5.283 53.83a24.483 24.483 0 0 1-48.733-4.818l5.283-53.853a62.54 62.54 0 0 1 16.267-36.166l149.225-169.285a24.53 24.53 0 1 1 36.678 32.581z"/></svg>