<svg class="icon" viewBox="0 0 1024 1024" xmlns="http://www.w3.org/2000/svg" width="200" height="200"><defs><style/></defs><path d="M832 55.04a128 128 0 0 1 128 128v670.144a64 64 0 0 1-98.048 54.208L752 838.4 582.528 947.2a64 64 0 0 1-68.096.704L336 838.4l-109.952 68.992A64 64 0 0 1 128 853.184v-670.08a128 128 0 0 1 128-128h576zm0 64H256a64 64 0 0 0-63.552 56.576L192 183.04v670.144l109.952-68.992a64 64 0 0 1 60.416-4.096l7.104 3.712 178.432 109.568 169.536-108.8a64 64 0 0 1 61.44-4.288l7.168 3.84L896 853.312V183.04a64 64 0 0 0-56.512-63.552L832 119.04zm-68.8 384.768a32 32 0 0 1 5.76 63.488l-5.76.512H311.36a32 32 0 0 1-5.696-63.488l5.76-.512h451.84zM575.232 313.984a32 32 0 0 1 5.76 63.488l-5.76.512H313.344a32 32 0 0 1-5.76-63.488l5.76-.512h261.888z"/></svg>