<svg class="icon" viewBox="0 0 1024 1024" xmlns="http://www.w3.org/2000/svg" width="200" height="200"><defs><style/></defs><path d="M630.144 66.816a96 96 0 0 1 90.56 64h48.064A159.872 159.872 0 0 1 928.192 280.32l.384 10.496v512c0 84.8-65.92 154.24-149.312 159.68l-10.496.32h-511.04A159.872 159.872 0 0 1 98.304 813.312l-.32-10.496v-512c0-84.8 65.92-154.24 149.248-159.68l10.496-.32h48.128a96 96 0 0 1 90.56-64h233.728zm0 192H396.416a96 96 0 0 1-90.56-64h-48.128c-49.792 0-90.688 38.08-95.36 86.784l-.384 9.216v512c0 49.92 37.952 90.88 86.528 95.552l9.216.448h511.04c49.792 0 90.688-38.08 95.36-86.72l.448-9.28v-512c0-49.92-38.016-90.88-86.592-95.552l-9.216-.448H720.64a96 96 0 0 1-90.496 64zm100.672 119.552l5.568.512a32 32 0 0 1 24.256 20.352l1.472 5.632 19.2 108.8a32 32 0 0 1-61.504 16.704l-1.536-5.568-4.096-23.296-144.64 196.672a32 32 0 0 1-48.576 3.584l-3.712-4.48-90.88-133.632L301.056 700.8a32 32 0 0 1-40.576 5.568l-4.608-3.52a32 32 0 0 1-5.568-40.64l3.52-4.544 152.704-167.04a32 32 0 0 1 46.208-1.088l3.84 4.672 88.192 129.6 125.312-170.24-43.264 7.616a32 32 0 0 1-16.64-61.504l5.568-1.536 109.312-19.264 5.76-.512zM630.144 130.816H396.416a32 32 0 0 0-5.76 63.488l5.76.512h233.728a32 32 0 0 0 5.76-63.488l-5.76-.512z"/></svg>