<svg class="icon" viewBox="0 0 1024 1024" xmlns="http://www.w3.org/2000/svg" width="200" height="200"><defs><style/></defs><path d="M800 64a128 128 0 0 1 128 128v640a128 128 0 0 1-128 128H224A128 128 0 0 1 96 832V192A128 128 0 0 1 224 64h576zm0 64H224a64 64 0 0 0-63.552 56.512L160 192v640a64 64 0 0 0 56.512 63.552L224 896h576a64 64 0 0 0 63.552-56.512L864 832V192a64 64 0 0 0-56.512-63.552L800 128zm-41.856 514.944a32 32 0 0 1 5.76 63.488l-5.76.512h-493.44a32 32 0 0 1-5.76-63.488l5.76-.512h493.44zM624.832 480a32 32 0 0 1 5.76 63.488l-5.76.512H264.704a32 32 0 0 1-5.76-63.488l5.76-.512h360.128zm-141.12-158.72a32 32 0 0 1 5.76 63.552l-5.76.512H265.28a32 32 0 0 1-5.76-63.488l5.76-.512h218.432z"/></svg>