<svg class="icon" viewBox="0 0 1088 1024" xmlns="http://www.w3.org/2000/svg" width="212.5" height="200"><defs><style/></defs><path d="M418.304 87.872a179.648 179.648 0 0 1 194.24.768L887.232 268.8c46.4 30.464 73.6 80.512 72.768 133.632l-4.672 275.84c-.96 56.704-33.856 108.8-86.4 136.704L598.912 958.464a180.224 180.224 0 0 1-166.848.576l-275.84-144.128c-53.248-27.776-86.592-80.128-87.552-137.28L64 403.2c-.896-53.568 26.88-104 73.92-134.4zm155.136 53.184a107.776 107.776 0 0 0-116.48-.448L176.512 321.536a94.4 94.4 0 0 0-44.288 80.64l4.608 274.56a95.36 95.36 0 0 0 52.48 82.304l275.84 144.128a108.16 108.16 0 0 0 100.16-.384L835.264 759.36c31.552-16.768 51.328-48 51.84-82.048l4.672-275.84a94.336 94.336 0 0 0-43.648-80.192zM249.408 345.92l4.992 2.944 203.2 145.28a96 96 0 0 0 104.256 4.736l7.872-5.12 199.68-144.768a32 32 0 0 1 41.92 48l-4.352 3.84-199.68 144.704a159.68 159.68 0 0 1-62.592 27.392l1.92 253.952a32 32 0 0 1-63.488 6.208l-.576-5.76-1.92-254.72a159.616 159.616 0 0 1-50.24-19.84l-10.048-6.592-203.2-145.28a32 32 0 0 1 32.256-54.976z"/></svg>