<svg class="icon" viewBox="0 0 1024 1024" xmlns="http://www.w3.org/2000/svg" width="200" height="200"><defs><style/></defs><path d="M434.176 75.392a160 160 0 0 1 167.68 0l227.2 139.712a160 160 0 0 1 76.16 136.32v449.792a160 160 0 0 1-160 160h-454.4a160 160 0 0 1-160-160V351.424a160 160 0 0 1 76.16-136.32zm134.144 54.464a96 96 0 0 0-100.608 0l-227.2 139.776a96 96 0 0 0-45.632 81.792v449.792a96 96 0 0 0 96 96h454.272a96 96 0 0 0 96-96V351.424a96 96 0 0 0-45.696-81.792zM509.312 320a128 128 0 1 1 0 256 128 128 0 0 1 0-256zm0 64a64 64 0 1 0 0 128 64 64 0 0 0 0-128z"/></svg>