<svg class="icon" viewBox="0 0 1024 1024" xmlns="http://www.w3.org/2000/svg" width="200" height="200"><defs><style/></defs><path d="M768 64a128 128 0 0 1 34.56 251.264l1.088 1.28-3.648 3.072.064 388.48A128 128 0 0 1 768 960H256a128 128 0 0 1-32-251.968V315.968A128 128 0 0 1 256 64h512zM192 832a64 64 0 0 0 56.512 63.552L256 896h512a64 64 0 0 0 7.488-127.552L768 768H501.12l-1.664 1.472L498.24 768H256a64 64 0 0 0-64 64zm544-252.992L580.672 704H736V579.008zm0-206.08L338.88 704h139.712L736 496.832V372.928zm-448 19.776V663.04l136-113.344-136-156.992zM493.888 320H309.696l163.456 188.736 106.368-88.704L493.888 320zm205.696 0H578.112l50.624 59.072L699.584 320zM768 128H256a64 64 0 0 0-7.488 127.552L256 256h512a64 64 0 0 0 7.488-127.552L768 128z"/></svg>