<svg class="icon" viewBox="0 0 1088 1024" xmlns="http://www.w3.org/2000/svg" width="212.5" height="200"><defs><style/></defs><path d="M824 73.984a128 128 0 0 1 128 128v440.448a128 128 0 0 1-128 128H548.928v129.024h244.096a32 32 0 0 1 32 32v5.76a32 32 0 0 1-32 32H222.08a32 32 0 0 1-32-32v-5.76a32 32 0 0 1 32-32h262.848V770.432H191.04a128 128 0 0 1-128-128V201.984a128 128 0 0 1 128-128H824zm0 64H191.04a64 64 0 0 0-63.552 56.576l-.448 7.424v440.448a64 64 0 0 0 56.576 63.616l7.424.384H824a64 64 0 0 0 63.552-56.512l.448-7.488V201.984a64 64 0 0 0-56.512-63.552l-7.488-.448zm-95.04 145.6a32 32 0 0 1 31.424 26.24l.576 5.76v133.632a32 32 0 0 1-63.488 5.76l-.512-5.76-.128-60.288L558.72 553.28a32 32 0 0 1-46.976 2.176l-3.968-4.736-90.88-133.568L291.712 554.24a32 32 0 0 1-40.64 5.504l-4.608-3.456a32 32 0 0 1-5.504-40.64l3.52-4.608L397.12 344a32 32 0 0 1 46.272-1.024l3.84 4.672 89.728 132.096L648.064 347.52l-57.536.064a32 32 0 0 1-31.488-26.24l-.512-5.76a32 32 0 0 1 26.24-31.488l5.76-.512H728.96z"/></svg>