<svg class="icon" viewBox="0 0 1024 1024" xmlns="http://www.w3.org/2000/svg" width="200" height="200"><defs><style/></defs><path d="M585.728 92.16l317.696 236.928A128 128 0 0 1 954.88 431.68v406.272a128 128 0 0 1-128 128H191.488a128 128 0 0 1-128-128V431.68a128 128 0 0 1 51.456-102.592L432.64 92.16a128 128 0 0 1 153.088 0zm-107.776 46.72l-7.04 4.48-317.696 237.056A64 64 0 0 0 128 424.192l-.448 7.488v406.272a64 64 0 0 0 56.576 63.552l7.424.448h635.392a64 64 0 0 0 63.552-56.512l.448-7.488V431.68a64 64 0 0 0-19.968-46.464l-5.76-4.8-317.76-237.056a64 64 0 0 0-69.504-4.608zM670.72 705.6a32 32 0 0 1 5.76 63.488l-5.76.512H347.712a32 32 0 0 1-5.76-63.488l5.76-.512H670.72zM509.248 289.664a32 32 0 0 1 31.488 26.24l.512 5.76V532.48l54.784-54.592 4.416-3.712a32 32 0 0 1 40.832 48.96L531.84 632.448l-4.48 3.712a32 32 0 0 1-40.768-3.712L377.28 523.136l-3.648-4.48a32 32 0 0 1 3.648-40.768l4.48-3.712a32 32 0 0 1 40.768 3.712l54.72 54.72V321.664a32 32 0 0 1 32-32z"/></svg>