<svg class="icon" viewBox="0 0 1024 1024" xmlns="http://www.w3.org/2000/svg" width="200" height="200"><defs><style/></defs><path d="M592.64 89.152l317.632 236.992a128 128 0 0 1 51.52 102.592v406.272a128 128 0 0 1-128 128H198.4a128 128 0 0 1-128-128V428.736a128 128 0 0 1 51.456-102.592L439.552 89.152a128 128 0 0 1 153.088 0zm-107.776 46.72l-7.04 4.544-317.696 236.992a64 64 0 0 0-25.28 43.84l-.448 7.488v406.272a64 64 0 0 0 56.512 63.552l7.488.448h635.392a64 64 0 0 0 63.552-56.576l.448-7.424V428.736a64 64 0 0 0-20.032-46.464l-5.76-4.864-317.632-236.992a64 64 0 0 0-69.504-4.544zM730.496 771.2a32 32 0 0 1 5.76 63.488l-5.76.512h-433.92a32 32 0 0 1-5.76-63.488l5.76-.512h433.92zm0-125.696a32 32 0 0 1 5.76 63.488l-5.76.512h-433.92a32 32 0 0 1-5.76-63.488l5.76-.512h433.92zM384 384a64 64 0 0 1 64 64v64a64 64 0 0 1-64 64h-64a64 64 0 0 1-64-64v-64a64 64 0 0 1 64-64h64zm320 0a64 64 0 0 1 64 64v64a64 64 0 0 1-64 64h-64a64 64 0 0 1-64-64v-64a64 64 0 0 1 64-64h64zm-320 64h-64v64h64v-64zm320 0h-64v64h64v-64z"/></svg>