<svg class="icon" viewBox="0 0 1024 1024" xmlns="http://www.w3.org/2000/svg" width="32" height="32"><defs><style/></defs><path d="M469.312 73.6a96 96 0 0 1 114.304-7.04l7.936 5.76 347.52 280.832a32 32 0 0 1 11.328 19.2l.512 5.76v85.76a32 32 0 0 1-63.488 5.76l-.512-5.76-.064-70.592-335.552-271.168a32 32 0 0 0-36.096-2.816l-4.672 3.2L171.52 408.512a32 32 0 0 1-45.312-44.8l4.096-4.096L469.312 73.6z"/><path d="M150.912 352a32 32 0 0 1 31.488 26.24l.512 5.76v448a32 32 0 0 0 26.24 31.488l5.76.512h108.544a32 32 0 0 1 5.76 63.488l-5.76.512H214.912a96 96 0 0 1-95.552-86.784l-.448-9.216V384a32 32 0 0 1 32-32z"/><path d="M384 448a64 64 0 0 1 64 64v64a64 64 0 0 1-64 64h-64a64 64 0 0 1-64-64v-64a64 64 0 0 1 64-64h64zm0 64h-64v64h64v-64zm289.728-96c92.288 0 167.424 73.344 167.424 164.224 0 42.24-16.192 80.64-42.88 109.696C881.92 715.712 942.72 792.384 942.72 883.2v11.008c0 63.616-43.904 70.528-206.912 70.528H598.08C461.44 964.288 416 955.52 416 894.208v-11.072c0-87.616 56.64-162.048 135.872-190.464a161.472 161.472 0 0 1-45.568-112.448c0-90.88 75.136-164.224 167.424-164.224zm62.08 328.384H622.912C543.808 744.384 480 806.72 480 883.136v11.072c0-.448 27.264 4.8 90.816 6.208l27.392.32h137.6c57.6 0 96.384-2.24 118.912-4.16l24-2.368V883.2c0-76.48-63.808-138.816-142.912-138.816zM673.728 480c-57.28 0-103.424 45.056-103.424 100.224 0 55.104 46.144 100.16 103.424 100.16 57.28 0 103.424-44.992 103.424-100.16S731.072 480 673.728 480z"/></svg>