<svg class="icon" viewBox="0 0 1024 1024" xmlns="http://www.w3.org/2000/svg" width="200" height="200"><defs><style/></defs><path d="M672.832 61.44a32 32 0 0 1 31.488 26.24l.512 5.76V128H800a128 128 0 0 1 128 128v576a128 128 0 0 1-128 128H224A128 128 0 0 1 96 832V256a128 128 0 0 1 128-128h99.52V93.44a32 32 0 0 1 63.552-5.76l.512 5.76-.064 34.56h253.312V93.44a32 32 0 0 1 32-32zM323.52 192H224a64 64 0 0 0-63.552 56.512L160 256v576a64 64 0 0 0 56.512 63.552L224 896h576a64 64 0 0 0 63.552-56.512L864 832V256a64 64 0 0 0-56.512-63.552L800 192h-95.168v30.912a32 32 0 0 1-63.488 5.76l-.512-5.76v-30.976H387.52v30.976a32 32 0 0 1-63.424 5.76l-.512-5.76-.064-30.976zm412.608 448.96a32 32 0 0 1 5.76 63.488l-5.76.512H287.872a32 32 0 0 1-5.76-63.488l5.76-.512h448.256zm0-129.92a32 32 0 0 1 5.76 63.552l-5.76.512H287.872a32 32 0 0 1-5.76-63.488l5.76-.512h448.256zm0-129.856a32 32 0 0 1 5.76 63.488l-5.76.512H287.872a32 32 0 0 1-5.76-63.424l5.76-.576h448.256z"/></svg>