<svg class="icon" viewBox="0 0 1024 1024" xmlns="http://www.w3.org/2000/svg" width="200" height="200"><defs><style/></defs><path d="M586.24 92.16l317.696 236.928a128 128 0 0 1 51.456 102.592v406.272a128 128 0 0 1-128 128H192a128 128 0 0 1-128-128V431.68a128 128 0 0 1 51.456-102.592L433.152 92.16a128 128 0 0 1 153.088 0zm-107.776 46.72l-7.04 4.48-317.696 237.056a64 64 0 0 0-25.28 43.776L128 431.68v406.272a64 64 0 0 0 56.512 63.552l7.488.448h635.392a64 64 0 0 0 63.552-56.512l.448-7.488V431.68a64 64 0 0 0-19.968-46.464l-5.76-4.8L547.968 143.36a64 64 0 0 0-69.504-4.608zm192.704 629.056a32 32 0 0 1 5.76 63.488l-5.76.512H348.16a32 32 0 0 1-5.76-63.488l5.76-.512h323.008zm-179.584-410.24a32 32 0 0 1 40.832 3.648L641.728 470.72l3.712 4.48a32 32 0 0 1-3.712 40.768l-4.416 3.712a32 32 0 0 1-40.832-3.712l-54.72-54.784v211.008a32 32 0 0 1-63.488 5.76l-.512-5.76V461.184l-54.72 54.784-4.48 3.712a32 32 0 0 1-40.768-48.96l109.376-109.376z"/></svg>