<svg class="icon" viewBox="0 0 1024 1024" xmlns="http://www.w3.org/2000/svg" width="200" height="200"><defs><style/></defs><path d="M800 64a128 128 0 0 1 128 128v640a128 128 0 0 1-128 128H224A128 128 0 0 1 96 832V192A128 128 0 0 1 224 64h576zm0 64H224a64 64 0 0 0-63.552 56.512L160 192v640a64 64 0 0 0 56.512 63.552L224 896h576a64 64 0 0 0 63.552-56.512L864 832V192a64 64 0 0 0-56.512-63.552L800 128zm-64 511.808a32 32 0 0 1 5.76 63.488l-5.76.512H342.08a32 32 0 0 1-5.76-63.488l5.76-.512H736zM350.4 319.04h.64c1.344 0 2.752.128 4.096.32l-4.736-.32a32.128 32.128 0 0 1 18.176 5.696l1.408 1.024 2.048 1.664.96.96 87.36 87.36a32 32 0 0 1-40.832 48.96l-4.48-3.712-32.704-32.704V544.96a32 32 0 0 1-63.424 5.76l-.512-5.76-.064-116.8-32.64 32.832a32 32 0 0 1-40.832 3.712l-4.48-3.712a32 32 0 0 1-3.648-40.832l3.712-4.48 87.232-87.232.768-.704a32.192 32.192 0 0 1 2.56-2.112l-3.328 2.816a32.128 32.128 0 0 1 22.656-9.344zM735.744 512a32 32 0 0 1 5.76 63.488l-5.76.512H527.616a32 32 0 0 1-5.76-63.488l5.76-.512h208.128zm-11.968-127.808a32 32 0 0 1 5.76 63.488l-5.76.512H619.712a32 32 0 0 1-5.76-63.488l5.76-.512h104.064z"/></svg>