<svg class="icon" viewBox="0 0 1024 1024" xmlns="http://www.w3.org/2000/svg" width="32" height="32"><defs><style/></defs><path d="M567.656 17.942l9.07 6.582 397.128 320.847a36.568 36.568 0 0 1 13.383 32.034l.147 3.218v511.952a109.704 109.704 0 0 1-99.173 109.192l-10.531.512H146.32a109.704 109.704 0 0 1-109.192-99.1l-.512-10.604V380.623l.512-6.143a36.568 36.568 0 0 1 12.945-22.234l386.89-326.332a109.704 109.704 0 0 1 130.693-8.045zm-78.255 60.19l-5.266 3.657-374.383 315.875v494.984a36.568 36.568 0 0 0 29.986 35.983l6.582.585h731.36a36.568 36.568 0 0 0 35.983-29.986l.585-6.582V391.374L530.723 81.35a36.568 36.568 0 0 0-41.249-3.218zm215.824 668.17a36.568 36.568 0 0 1 6.582 72.552l-6.582.585h-365.68a36.568 36.568 0 0 1-6.582-72.551l6.582-.585h365.68zm-73.135-146.27a36.568 36.568 0 0 1 6.582 72.55l-6.582.586H339.545a36.568 36.568 0 0 1-6.582-72.551l6.582-.585H632.09zM558.954 453.76a36.568 36.568 0 0 1 6.583 72.55l-6.583.586H339.545a36.568 36.568 0 0 1-6.582-72.551l6.582-.585h219.408z"/></svg>