<svg class="icon" viewBox="0 0 1088 1024" xmlns="http://www.w3.org/2000/svg" width="212.5" height="200"><defs><style/></defs><path d="M590.848 92.16l317.696 236.928A128 128 0 0 1 960 431.68v406.272a128 128 0 0 1-128 128H196.608a128 128 0 0 1-128-128V431.68a128 128 0 0 1 51.456-102.592L437.76 92.16a128 128 0 0 1 153.088 0zm-107.776 46.72l-7.04 4.48-317.696 237.056a64 64 0 0 0-25.28 43.776l-.448 7.488v406.272a64 64 0 0 0 56.576 63.552l7.424.448H832a64 64 0 0 0 63.552-56.512l.448-7.488V431.68a64 64 0 0 0-19.968-46.464l-5.76-4.8L552.576 143.36a64 64 0 0 0-69.504-4.608zm253.696 597.888a32 32 0 0 1 5.76 63.488l-5.76.512h-438.72a32 32 0 0 1-5.76-63.488l5.76-.512h438.72zm0-160.384a32 32 0 0 1 5.76 63.488l-5.76.512h-438.72a32 32 0 0 1-5.76-63.488l5.76-.512h438.72zm0-160.384a32 32 0 0 1 5.76 63.488l-5.76.512h-438.72a32 32 0 0 1-5.76-63.488l5.76-.512h438.72z"/></svg>