<svg class="icon" viewBox="0 0 1024 1024" xmlns="http://www.w3.org/2000/svg" width="200" height="200"><defs><style/></defs><path d="M735.36 65.792a96 96 0 0 1 94.08 74.24l54.592 233.984c5.76 12.288 9.472 25.92 10.624 40.256l.384 9.6v108.096a32 32 0 0 1-63.488 5.76l-.512-5.76v-108.16c0-22.272-12.608-39.232-27.072-42.368l-4.928-.576H224.96c-14.784 0-28.864 14.72-31.552 35.776l-.448 7.232v432.256c0 22.272 12.608 39.296 27.072 42.432l4.928.576H576a32 32 0 0 1 5.76 63.488l-5.76.512H224.96c-51.2 0-91.328-43.648-95.616-97.408l-.384-9.6V423.872c0-18.88 4.416-36.736 12.16-52.288l48.32-227.072a96 96 0 0 1 93.44-76.032l128.96-.704zm9.408 502.784a168.768 168.768 0 0 1 130.816 275.328l64.512 64.576a32 32 0 0 1-40.832 48.96l-4.48-3.712-68.608-68.608a168.768 168.768 0 1 1-81.408-316.608zm0 64a104.768 104.768 0 1 0 0 209.472 104.768 104.768 0 0 0 0-209.472zm-9.024-502.784L412.16 131.84l-129.024.64a32 32 0 0 0-31.168 25.408L218.24 316.864h586.624l-37.76-162.304a32 32 0 0 0-25.856-24.32l-5.504-.448z"/></svg>