<svg class="icon" viewBox="0 0 1024 1024" xmlns="http://www.w3.org/2000/svg" width="200" height="200"><defs><style/></defs><path d="M628.032 64a96 96 0 0 1 90.56 64H766.4c84.48 0 153.408 66.56 158.72 150.464l.384 10.56v516.224c0 85.248-65.536 155.2-148.608 160.64l-10.496.384H258.048c-84.48 0-153.408-66.56-158.72-150.464l-.384-10.56V289.024c0-85.248 65.536-155.2 148.608-160.64l10.496-.384h45.76a96 96 0 0 1 90.432-64h233.728zM303.744 192h-45.696c-49.28 0-90.048 38.4-94.72 87.68l-.384 9.344v516.224c0 50.56 37.76 91.904 85.952 96.576l9.152.448H766.4c49.28 0 90.048-38.4 94.72-87.68l.384-9.344V289.024c0-50.56-37.76-91.904-85.952-96.64L766.4 192h-47.808a96 96 0 0 1-90.56 64H394.304a96 96 0 0 1-90.56-64zm336.448 513.728a32 32 0 0 1 5.76 63.488l-5.76.512h-256a32 32 0 0 1-5.76-63.488l5.76-.512h256zM494.016 387.904a32 32 0 0 1 40.832 3.712l86.656 86.656 3.712 4.48a32 32 0 0 1-3.712 40.768l-4.48 3.712a32 32 0 0 1-40.768-3.712l-31.232-31.168v158.912a32 32 0 0 1-63.424 5.76l-.512-5.76V490.688l-32.896 32.832-4.48 3.712a32 32 0 0 1-40.768-48.96L489.6 391.68zM628.032 128H394.304a32 32 0 0 0-5.76 63.488l5.76.512h233.728a32 32 0 0 0 5.76-63.488l-5.76-.512z"/></svg>