<svg class="icon" viewBox="0 0 1024 1024" xmlns="http://www.w3.org/2000/svg" width="200" height="200"><defs><style/></defs><path d="M586.24 92.16l317.696 236.928a128 128 0 0 1 51.456 102.592v406.272a128 128 0 0 1-128 128H192a128 128 0 0 1-128-128V431.68a128 128 0 0 1 51.456-102.592L433.152 92.16a128 128 0 0 1 153.088 0zm-107.776 46.72l-7.04 4.48-317.696 237.056a64 64 0 0 0-25.28 43.776L128 431.68v406.272a64 64 0 0 0 56.512 63.552l7.488.448h635.392a64 64 0 0 0 63.552-56.512l.448-7.488V431.68a64 64 0 0 0-19.968-46.464l-5.76-4.8L547.968 143.36a64 64 0 0 0-69.504-4.608zM384 640a64 64 0 0 1 64 64v64a64 64 0 0 1-64 64h-64a64 64 0 0 1-64-64v-64a64 64 0 0 1 64-64h64zm348.48 96a32 32 0 0 1 5.76 63.488l-5.76.512H576a32 32 0 0 1-5.76-63.488L576 736h156.48zM384 704h-64v64h64v-64zm348.48-125.568a32 32 0 0 1 5.76 63.488l-5.76.512H576a32 32 0 0 1-5.76-63.488l5.76-.512h156.48zM384 384a64 64 0 0 1 64 64v64a64 64 0 0 1-64 64h-64a64 64 0 0 1-64-64v-64a64 64 0 0 1 64-64h64zm0 64h-64v64h64v-64zm348.48-32a32 32 0 0 1 5.76 63.488l-5.76.512H576a32 32 0 0 1-5.76-63.488L576 416h156.48z"/></svg>