<svg class="icon" viewBox="0 0 1024 1024" xmlns="http://www.w3.org/2000/svg" width="200" height="200"><defs><style/></defs><path d="M866.176 59.136a32 32 0 0 1 31.488 26.24l.512 5.76v841.216a32 32 0 0 1-63.488 5.76l-.512-5.76V824.768H192.832v107.584a32 32 0 0 1-63.488 5.76l-.512-5.76V91.136a32 32 0 0 1 63.488-5.76l.512 5.76V386.56h102.912V224.192a32 32 0 0 1 26.24-31.424l5.76-.576h129.024a32 32 0 0 1 31.488 26.24l.512 5.76V386.56h64.192V163.712a32 32 0 0 1 26.24-31.488l5.76-.512h121.28a32 32 0 0 1 31.488 26.24l.512 5.76V386.56h95.872V91.136a32 32 0 0 1 32-32zm-32 391.424H192.832v310.208h102.912V636.48a32 32 0 0 1 26.24-31.488l5.76-.512h129.024a32 32 0 0 1 31.488 26.24l.512 5.76v124.288h64.192V576a32 32 0 0 1 26.24-31.488l5.76-.512h121.28a32 32 0 0 1 31.488 26.24l.512 5.76v184.768h95.872V450.56zM424.832 668.48h-65.024v92.288h65.024V668.48zM674.176 608H616.96v152.768h57.216V608zM424.832 256.192h-65.024V386.56h65.024V256.192zm249.344-60.48H616.96V386.56h57.216V195.712z"/></svg>