<svg class="icon" viewBox="0 0 1024 1024" xmlns="http://www.w3.org/2000/svg" width="380" height="380"><defs><style/></defs><path d="M496.682 7.391a29.458 29.458 0 0 1 30.636 0L940.79 258.196a88.374 88.374 0 0 1 42.537 75.53v523.645a147.29 147.29 0 0 1-147.29 147.29H187.963a147.29 147.29 0 0 1-147.29-147.29V333.726a88.374 88.374 0 0 1 42.537-75.53zM512 66.955L113.729 308.51a29.458 29.458 0 0 0-14.14 25.216v523.645a88.374 88.374 0 0 0 88.374 88.373h648.074a88.374 88.374 0 0 0 88.374-88.373V333.726a29.458 29.458 0 0 0-14.14-25.157L512 66.955zm-176.748 584.21a58.916 58.916 0 0 1 58.916 58.916v117.832a58.916 58.916 0 0 1-58.916 58.916H217.421a58.916 58.916 0 0 1-58.916-58.916V710.08a58.916 58.916 0 0 1 58.916-58.916zm294.58 0a58.916 58.916 0 0 1 58.916 58.916v117.832a58.916 58.916 0 0 1-58.916 58.916H512a58.916 58.916 0 0 1-58.916-58.916V710.08A58.916 58.916 0 0 1 512 651.165zm-294.58 58.916H217.421v117.832h117.831V710.08zm294.58 0H512v117.832h117.832V710.08zm-294.58-353.495a58.916 58.916 0 0 1 58.916 58.916v117.831a58.916 58.916 0 0 1-58.916 58.916H217.421a58.916 58.916 0 0 1-58.916-58.916V415.502a58.916 58.916 0 0 1 58.916-58.916zm0 58.916H217.421v117.831h117.831V415.502z"/></svg>