<svg class="icon" viewBox="0 0 1024 1024" xmlns="http://www.w3.org/2000/svg" width="200" height="200"><defs><style/></defs><path d="M667.2 68.992l4.8 3.2 255.36 208.256a96 96 0 0 1 34.944 64.832l.448 9.6v385.28c0 86.144-71.488 155.712-160.64 160.96l-10.88.256H233.344c-90.56 0-165.504-66.176-171.136-151.04l-.384-10.24v-385.28c0-25.6 10.24-50.048 28.288-67.968l7.04-6.4L352.64 72.256a32 32 0 0 1 44.544 45.568l-4.096 4.032L137.6 330.048a32 32 0 0 0-11.264 19.136l-.512 5.696v385.28c0 50.176 42.496 92.288 97.664 96.832l9.856.384H791.36c56.512 0 102.144-39.296 107.008-88.512l.448-8.768v-385.28a32 32 0 0 0-7.68-20.8l-4.096-3.968-255.424-208.192a32 32 0 0 1 35.648-52.864zM736.192 672a32 32 0 0 1 5.76 63.488l-5.76.512H286.72a32 32 0 0 1-5.76-63.488l5.76-.512h449.472zm0-128a32 32 0 0 1 5.76 63.488l-5.76.512H286.72a32 32 0 0 1-5.76-63.488l5.76-.512h449.472zm0-128a32 32 0 0 1 5.76 63.488l-5.76.512H286.72a32 32 0 0 1-5.76-63.488l5.76-.512h449.472z"/></svg>