<svg class="icon" viewBox="0 0 1024 1024" xmlns="http://www.w3.org/2000/svg" width="200" height="200"><defs><style/></defs><path d="M588.16 86.912l320 237.12A128 128 0 0 1 960 426.88V832a128 128 0 0 1-128 128H192A128 128 0 0 1 64 832V426.88a128 128 0 0 1 51.84-102.848l320-237.12a128 128 0 0 1 152.32 0zm-107.264 46.912l-7.04 4.48-320 237.184a64 64 0 0 0-25.408 43.84L128 426.88V832a64 64 0 0 0 56.512 63.552L192 896h640a64 64 0 0 0 63.552-56.512L896 832V426.88a64 64 0 0 0-20.096-46.592l-5.76-4.8-320-237.184a64 64 0 0 0-69.248-4.48zm199.296 497.344a32 32 0 0 1 26.752 49.6l-3.392 4.288-115.072 123.2a32 32 0 0 1-50.304-39.168l3.52-4.48 64.832-69.376H343.68a32 32 0 0 1-31.488-26.24l-.512-5.76a32 32 0 0 1 26.24-31.552l5.76-.512h336.512zM480.704 363.52a32 32 0 0 1 5.12 40.704l-3.584 4.544-64.832 69.376h262.848a32 32 0 0 1 31.488 26.24l.512 5.76a32 32 0 0 1-26.24 31.488l-5.76.512H343.744a32 32 0 0 1-26.752-49.6l3.392-4.224 115.072-123.2a32 32 0 0 1 45.248-1.6z"/></svg>