<svg class="icon" viewBox="0 0 1024 1024" xmlns="http://www.w3.org/2000/svg" width="200" height="200"><defs><style/></defs><path d="M627.84 64a96 96 0 0 1 90.624 64h56.064a160.96 160.96 0 0 1 160.96 149.824l.32 10.56v513.6c0 85.12-66.56 154.624-150.656 160.064l-10.624.32H257.28A160.96 160.96 0 0 1 96.32 812.544l-.32-10.56v-513.6c0-85.12 66.56-154.624 150.72-160l10.56-.384h46.336a96 96 0 0 1 90.56-64H627.84zM303.68 192h-46.4c-50.752 0-92.416 38.528-96.896 87.68l-.384 8.704v513.6c0 50.24 38.784 91.52 88.448 96l8.832.384h517.248c50.816 0 92.416-38.528 96.896-87.616l.384-8.768v-513.6c0-50.24-38.784-91.52-88.448-96l-8.832-.384H718.4a96 96 0 0 1-90.496 64H394.176a96 96 0 0 1-90.56-64zm335.36 516.224a32 32 0 0 1 5.76 63.488l-5.76.512h-256a32 32 0 0 1-5.76-63.424l5.76-.576h256zM512 318.144a32 32 0 0 1 32 32l-.128 189.376 32.064-32.064 4.48-3.712a32 32 0 0 1 40.768 48.96l-86.656 86.656-4.416 3.712a32 32 0 0 1-40.832-3.712l-86.656-86.656-3.712-4.48a32 32 0 0 1 3.712-40.768l4.48-3.712a32 32 0 0 1 40.768 3.712l32 31.936V350.144l.576-5.76a32 32 0 0 1 31.488-26.24zM627.84 128H394.176a32 32 0 0 0-5.76 63.488l5.76.512H627.84a32 32 0 0 0 5.76-63.488l-5.76-.512z"/></svg>