<svg class="icon" viewBox="0 0 1024 1024" xmlns="http://www.w3.org/2000/svg" width="200" height="200"><defs><style/></defs><path d="M799.552 497.536c24.512 0 66.496 55.616 101.312 121.92l12.672 25.28C940.16 700.224 960 759.104 960 797.184a164.544 164.544 0 0 1-329.152 0c0-34.048 17.088-84.736 40.896-134.72l12.416-24.96c38.656-73.92 88.704-139.968 115.392-139.968zM441.408 97.216a32 32 0 0 1-23.424 38.72A386.112 386.112 0 1 0 609.92 884.16a32 32 0 0 1 16.384 61.888A450.112 450.112 0 0 1 402.56 73.792a32 32 0 0 1 38.784 23.424zm357.376 479.552l-4.672 5.76a526.976 526.976 0 0 0-41.088 62.464c-34.496 60.48-58.176 123.712-58.176 152.192a100.544 100.544 0 0 0 201.152 0c0-29.44-22.336-93.248-54.784-153.6a510.464 510.464 0 0 0-38.784-62.144l-3.648-4.672zM540.992 64c213.76 0 416.96 173.312 416.96 387.072h-352.96a64 64 0 0 1-64-64V64zm64 70.016v253.056l281.152-.064-3.008-11.392c-32.64-113.408-135.808-207.36-258.88-237.44l-14.848-3.328-4.416-.832z"/></svg>