<svg class="icon" viewBox="0 0 1024 1024" xmlns="http://www.w3.org/2000/svg" width="200" height="200"><defs><style/></defs><path d="M659.776 120.896l6.912 7.872 5.76-5.568c66.88-61.44 182.4-63.744 248.704-6.016l7.424 6.976a166.208 166.208 0 0 1 0 235.008 32 32 0 1 1-45.248-45.248 102.208 102.208 0 0 0 0-144.512c-38.08-38.08-114.816-40-160.32-5.184l-6.912 5.76-30.784 29.184a32 32 0 0 1-45.632-1.664L629.632 185.6 616 167.936c-35.328-43.84-141.952-45.632-193.216-3.264l-6.4 5.76-28.032 28.16a32 32 0 0 1-40.832 3.648l-4.48-3.712-29.12-29.12a102.208 102.208 0 0 0-150.848 137.6l6.336 6.912 29.12 29.184a32 32 0 0 1 3.712 40.832l-3.712 4.48-28.096 28.032a124.544 124.544 0 0 0 49.152 206.4 32 32 0 0 1 16.128 48.96l-3.456 4.096-62.848 62.848a102.208 102.208 0 0 0 137.6 150.848l6.912-6.272 55.808-55.872a32 32 0 0 1 49.024 40.768l-3.712 4.48-55.872 55.872a166.208 166.208 0 0 1-242.24-227.392l7.232-7.68 31.232-31.232-7.68-5.12a188.928 188.928 0 0 1-11.584-9.216l-10.944-10.112a188.608 188.608 0 0 1-7.616-258.56l7.68-8.128 5.44-5.44-6.528-6.528a166.208 166.208 0 0 1-7.232-227.392l7.232-7.68a166.208 166.208 0 0 1 227.328-7.168l7.68 7.232 6.528 6.528 5.44-5.504c71.744-71.616 222.4-73.984 288.704-4.288zm16.576 271.744a283.648 283.648 0 1 1 0 567.36 283.648 283.648 0 0 1 0-567.36zM855.36 549.056L548.992 855.36a219.648 219.648 0 0 0 306.432-306.304zM676.352 456.64a219.648 219.648 0 0 0-173.568 354.432l308.288-308.288a218.752 218.752 0 0 0-134.72-46.08z"/></svg>