<svg class="icon" viewBox="0 0 1024 1024" xmlns="http://www.w3.org/2000/svg" width="200" height="200"><defs><style/></defs><path d="M786.688 69.44c55.296 0 102.784 37.696 109.76 91.136l.64 10.176V581.12c0 52.544-43.136 95.04-99.584 100.8l-11.52.512a2752.32 2752.32 0 0 0-17.92-.384l-32.64-.256h-14.72l-26.432.576-22.208 1.024-16.384 1.408-9.6 1.216-.704 4.608a46.464 46.464 0 0 0-.128 12.992c1.728 17.408 4.864 33.92 9.408 51.648l6.592 23.68 6.208 21.76c9.408 34.752 10.56 57.984-.64 82.688-23.68 52.48-81.92 82.752-154.112 82.752-80.256 0-134.976-27.52-153.984-90.688-7.68-25.6-5.376-47.616 4.864-75.776l11.008-28.16c8.768-23.04 12.8-41.472 12.8-64.768l.192-8.512.704-12.16-10.048-1.28-17.408-1.408-23.424-1.088-27.776-.512-32.256.064-36.736.576c-55.296 0-102.784-37.632-109.76-91.136l-.64-10.176V170.752c0-52.544 43.136-95.04 99.648-100.8l10.752-.512zm46.336 443.392H194.176v66.24l.384 6.016c2.368 18.048 21.632 33.344 45.376 33.344l16.064-.32 56.704-.64 23.936.128 21.248.64 18.56 1.088c52.16 4.032 71.232 15.488 74.688 41.792 1.408 10.368 1.664 17.92 1.216 26.688l-.704 10.688-.64 23.808a237.76 237.76 0 0 1-16.704 72.32l-10.88 27.648c-5.632 15.552-6.528 24.32-3.392 34.752 9.28 30.912 37.568 45.12 92.672 45.12 48.96 0 83.52-17.984 95.808-45.184 3.52-7.68 3.008-17.92-2.752-39.168l-12.928-45.952a399.744 399.744 0 0 1-11.264-61.952c-1.088-11.008-.896-19.2.448-28.48l2.048-13.376 1.024-9.728c3.712-23.552 21.504-34.432 66.048-38.592l17.984-1.28 20.672-.704 23.424-.256 26.432.128 45.44.896 7.488-.384c23.68-2.432 40.448-18.944 40.448-36.992v-68.288zM392.32 266.688c-9.92 0-19.328 10.56-33.728 41.728l-11.776 27.008C318.912 401.792 300.48 427.52 256 427.52a124.16 124.16 0 0 1-61.76-14.72v36.096h638.72l.128-60.032c-22.528 25.472-47.36 38.656-75.264 38.656-36.416 0-57.92-18.496-88.768-62.528l-20.864-30.464-8.64-11.648-6.528-7.744-4.352-4.352c-1.088-.96-1.728-1.408-1.92-1.408-6.464 0-16.512 10.944-30.336 36.992l-22.208 44.672-5.568 10.048c-13.568 22.976-27.456 36.288-50.24 36.288-39.232 0-57.408-18.624-76.288-66.56l-8.192-22.4-9.472-28.16-6.144-16.832c-10.624-27.392-18.112-36.672-25.92-36.672zM242.24 133.376l-7.488.384c-23.68 2.432-40.448 18.944-40.448 36.992v94.208c0 69.824 19.84 98.432 61.696 98.432 4.416 0 10.624-7.168 20.608-27.712L283.84 320l7.424-17.472c29.952-70.976 51.52-99.904 101.12-99.904 48.384 0 68.416 27.136 91.712 94.208l9.6 28.416 5.824 16.256 2.688 6.656 4.672 10.688c1.408 3.008 2.752 5.504 3.968 7.488l2.112 3.008 4.864-8.64 16.512-33.664c27.136-54.528 50.56-81.792 92.352-81.792 26.88 0 45.248 14.08 66.56 42.304l11.904 16.64 9.6 14.208c22.336 33.024 34.56 44.992 43.072 44.992 18.56 0 44.608-30.272 71.936-96.256l3.328-8.448V172.8l-.32-6.016c-2.368-18.048-21.632-33.344-46.08-33.344H242.24z"/></svg>