<svg class="icon" viewBox="0 0 1088 1024" xmlns="http://www.w3.org/2000/svg" width="212.5" height="200"><defs><style/></defs><path d="M409.152 103.872a160 160 0 0 1 195.52-.32l312.576 240.384a96 96 0 0 1-58.496 172.096l-21.696-.064v289.856A160 160 0 0 1 686.72 964.672l-10.496.256-344.32-1.856a160 160 0 0 1-159.168-160V512.704h-10.88a96 96 0 0 1-69.568-29.76l-6.4-7.424a96 96 0 0 1 17.152-134.656zm156.48 50.432a96 96 0 0 0-117.248.192L142.208 391.424a32 32 0 0 0 19.584 57.344H204.8a32 32 0 0 1 32 32v322.304a96 96 0 0 0 95.488 96l344.32 1.92a96 96 0 0 0 96.512-95.36v-321.6a32 32 0 0 1 32-32h53.696a32 32 0 0 0 19.52-57.408zm-95.808 213.632l41.856 41.856 41.856-41.856a32 32 0 0 1 45.248 45.248l-38.016 37.952h83.648a32 32 0 1 1 0 64H543.552v64h100.864a32 32 0 1 1 0 64H543.552V736a32 32 0 1 1-64 0v-92.864h-99.968a32 32 0 1 1 0-64h99.968v-64h-99.968a32 32 0 1 1 0-64h82.944l-37.952-37.952a32 32 0 0 1 45.248-45.248z"/></svg>