<svg class="icon" viewBox="0 0 1024 1024" xmlns="http://www.w3.org/2000/svg" width="200" height="200"><defs><style/></defs><path d="M957.696 686.848a32 32 0 0 1-5.248 40.64l-4.544 3.52-348.992 222.08a160 160 0 0 1-161.216 6.144l-10.624-6.272L78.656 731.008a32 32 0 0 1 29.312-56.64l5.12 2.624L461.44 899.008A96 96 0 0 0 555.776 904l8.768-4.992 348.992-222.016a32 32 0 0 1 44.16 9.856zm0-128a32 32 0 0 1-5.248 40.64l-4.544 3.52-348.992 222.08a160 160 0 0 1-161.216 6.144l-10.624-6.272L78.656 603.008a32 32 0 0 1 29.312-56.64l5.12 2.624L461.44 771.008A96 96 0 0 0 555.776 776l8.768-4.992 348.992-222.016a32 32 0 0 1 44.16 9.856zM575.872 81.92l318.72 196.288a128 128 0 0 1 3.136 216l-318.784 209.28a128 128 0 0 1-140.096.192l-321.28-209.216a128 128 0 0 1 3.136-216.448l321.28-196.352a128 128 0 0 1 133.888.256zm-93.44 50.624l-7.04 3.776-321.28 196.288a64 64 0 0 0-7.68 103.808l6.08 4.48 321.28 209.152a64 64 0 0 0 62.72 4.032l7.296-4.16 318.784-209.216a64 64 0 0 0 4.544-103.68l-6.08-4.288-318.72-196.352a64 64 0 0 0-59.968-3.84z"/></svg>