<svg class="icon" viewBox="0 0 1024 1024" xmlns="http://www.w3.org/2000/svg" width="200" height="200"><defs><style/></defs><path d="M537.6 169.472a95.36 95.36 0 0 1 93.44 77.76l218.24-1.472a96 96 0 0 1 94.208 74.432l1.6 8.832 39.872 298.24a96 96 0 0 1-79.36 107.392c6.848 17.792 10.56 37.248 10.56 57.6 0 88.32-70.592 160-157.696 160s-157.76-71.68-157.76-160l.256-7.168c-14.72 13.184-33.408 21.888-54.144 23.936l-9.152.448h-64c-8.512 80.256-75.52 142.72-156.8 142.72-81.408 0-148.352-62.464-156.864-142.72h-.896a95.424 95.424 0 0 1-94.72-86.784L64 713.472v-448c0-49.856 37.632-90.88 85.888-95.616l9.216-.384H537.6zm-220.8 526.72c-51.52 0-93.696 42.816-93.696 96 0 53.248 42.176 96 93.696 96 51.584 0 93.76-42.752 93.76-96 0-53.184-42.24-96-93.76-96zm441.6 0c-51.52 0-93.696 42.816-93.696 96 0 53.248 42.24 96 93.76 96s93.696-42.752 93.696-96c0-53.184-42.176-96-93.696-96zM537.6 233.536H159.168a31.36 31.36 0 0 0-30.592 26.24l-.576 5.632v448c0 15.744 11.072 28.8 25.536 31.488l5.568.512h6.848A158.08 158.08 0 0 1 316.8 632.128c71.04 0 131.2 47.744 150.912 113.28H537.6a31.36 31.36 0 0 0 30.528-26.24l.512-5.76v-448a31.744 31.744 0 0 0-25.536-31.488l-5.504-.512zM704 310.72l-71.232.512v384.384a156.736 156.736 0 0 1 125.76-63.36c39.872 0 76.224 14.976 104 39.68l27.328.064 4.224-.256a32 32 0 0 0 27.776-30.208l-.256-5.76L904.96 512H800a96 96 0 0 1-95.552-86.784L704 416l-.064-105.28zm151.04-.64l-5.248-.32-81.792.576V416a32 32 0 0 0 26.24 31.488L800 448h96.384l-14.72-110.528a32 32 0 0 0-26.624-27.328z"/></svg>