<svg class="icon" viewBox="0 0 1024 1024" xmlns="http://www.w3.org/2000/svg" width="200" height="200"><defs><style/></defs><path d="M518.144 78.976a445.312 445.312 0 0 1 445.312 445.312 32 32 0 0 1-64 0c0-18.048-1.28-35.84-3.648-53.248C677.76 510.08 568.64 649.024 563.392 896.256l-.128 6.72a392.447 392.447 0 0 0 44.096-7.872 32 32 0 0 1 14.848 62.272A445.312 445.312 0 0 1 121.344 321.92a31.872 31.872 0 0 1 15.36-27.712 445.12 445.12 0 0 1 381.44-215.232zm357.632 486.528a32 32 0 0 1 2.304 40.96l-3.84 4.288-102.336 95.488h108.544a32 32 0 0 1 25.92 50.816l-3.648 4.224-163.2 157.696a32 32 0 0 1-48.192-41.6l3.776-4.352L801.28 770.24h-110.4a32 32 0 0 1-25.6-51.2l3.712-4.16 161.6-150.912a32 32 0 0 1 45.184 1.536zm-733.44 23.36l.896 5.504a381.44 381.44 0 0 0 356.032 310.784L499.2 915.2c0-59.456 5.504-113.92 16.448-163.392-151.232 12.544-276.48-42.432-373.312-162.944zm17.408-194.816l-2.56 7.104A378.88 378.88 0 0 0 140.416 472l-7.488-13.312c95.104 174.72 226.176 249.088 398.592 227.2l3.2-.448c11.136-31.104 24.96-59.776 41.344-85.952-168.832 25.408-309.056-44.032-416.32-205.44zm99.2-149.376l-.832.768a381.965 381.965 0 0 0-65.6 80.384c112.448 191.36 260.48 253.504 452.032 191.872 60.416-54.656 139.52-91.2 236.928-109.184a378.432 378.432 0 0 0-69.504-127.36l8-7.744c-194.88 195.456-388.032 185.216-561.024-28.8zm123.456-76.8a379.159 379.159 0 0 0-73.024 37.312l-10.048-12.672c149.952 193.344 299.648 207.104 467.84 43.072A375.552 375.552 0 0 0 705.28 192l10.368-7.744c-130.112 100.48-246.208 95.552-333.248-16.32zm135.744-24.96c-23.04 0-45.696 2.112-67.648 6.016 51.456 52.736 110.912 57.152 185.28 12.736a375.68 375.68 0 0 0-117.632-18.688z"/></svg>