<svg class="icon" viewBox="0 0 1024 1024" xmlns="http://www.w3.org/2000/svg" width="200" height="200"><defs><style/></defs><path d="M506.752 64a448 448 0 1 1 0 896 448 448 0 0 1 0-896zm0 64a384 384 0 1 0 0 768 384 384 0 0 0 0-768zm171.136 415.872a32 32 0 0 1 27.648 48.192l-3.008 4.288-113.536 136.384a32 32 0 0 1-52.48-36.16l3.264-4.8L609.664 608h-263.68a32 32 0 0 1-31.488-26.304l-.512-5.76a32 32 0 0 1 26.24-31.488l5.76-.512h331.904zM480 287.168a32 32 0 0 1 7.424 40.32l-3.264 4.736L414.272 416h263.68a32 32 0 0 1 31.488 26.304l.512 5.76a32 32 0 0 1-26.24 31.488l-5.76.512H346.048a32 32 0 0 1-27.648-48.192l3.008-4.288L434.944 291.2A32 32 0 0 1 480 287.104z"/></svg>