<svg class="icon" viewBox="0 0 1024 1024" xmlns="http://www.w3.org/2000/svg" width="200" height="200"><defs><style/></defs><path d="M511.036 90.353l60.236.482 39.032.903 37.406 1.326 35.298 1.807c62.223 3.794 110.29 9.938 127.277 18.673 36.262 18.672 60.055 78.908 75.716 185.344l4.277 31.623a650.217 650.217 0 0 1 1.987 16.866l3.675 35.418 1.686 18.733 3.072 39.394 2.771 41.984a29.997 29.997 0 0 1-2.168 13.252c1.445 13.433 2.228 27.95 2.228 43.37 0 72.342-16.805 124.867-49.814 159.503 31.623 13.492 49.814 40.538 49.814 79.872 0 77.522-52.585 101.797-152.094 104.086l-12.65.18-39.995-.18-384.844.12-22.046.362C153.961 885.4 90.534 849.077 90.534 710.897c0-78.667 17.347-128.904 55.537-159.503-35.9-18.07-55.537-49.754-55.537-94.57l.06-6.927a30.118 30.118 0 0 1 .482-8.252l.24-1.445c.964-10.24 2.892-19.878 5.663-28.612l1.927-9.276 11.385-54.032 11.023-48.188 7.228-28.852 3.554-13.493 7.048-25.118 3.553-11.626 6.988-21.443c16.384-47.285 32.707-74.933 50.537-85.233 8.855-5.18 30.6-9.518 60.898-13.011l28.01-2.831c9.938-.904 20.48-1.687 31.563-2.41l34.575-1.987 36.864-1.567 38.67-1.204 39.877-.603 40.357-.3zm188.356 297.2H229.557c-36.563 0-65.175 13.253-75.053 43.671l-.784 4.096-2.59 13.132a89.148 89.148 0 0 0-.361 8.312c0 34.575 22.709 51.742 82.402 52.646h513.205a30.118 30.118 0 0 1 5.42 59.753l-5.42.482H330.51l-25.118.301-22.89.964c-101.616 6.144-131.734 37.286-131.734 139.987 0 85.534 25.118 109.086 107.942 112.038l20.961.361 49.815-.602 408.998.24c77.221-.36 104.81-11.444 104.81-44.031 0-16.866-4.82-22.77-19.939-26.926l-8.674-1.867-9.818-1.205-11.686-.602h-14.215l-27.467 1.024-20.48 1.084a349.485 349.485 0 0 1-18.794 1.145l-12.83.18H235.339a30.118 30.118 0 0 1-5.42-59.753l5.42-.482h457.126l15.119-.24 23.25-1.205c79.33-7.952 112.46-49.815 112.46-150.589 0-109.026-38.852-149.082-133.18-151.793l-10.722-.12zM521.397 150.589l-38.43.12-56.622.724-53.609 1.385-48.188 2.108-28.07 1.747-24.094 1.988c-21.926 2.168-36.864 4.758-41.924 7.65a23.733 23.733 0 0 0-6.867 8.794l-4.156 8.373a194.38 194.38 0 0 0-2.168 5.12l-4.759 12.167-5.06 14.698-8.252 26.624-5.843 20.78-9.276 35.54-8.855 36.864c14.096-4.518 29.275-7.108 45.056-7.83l9.277-.182h469.835c55.838 0 100.593 11.204 133.722 34.816l-.3-2.349-3.735-30.6-3.855-27.949-4.217-25.54a875.46 875.46 0 0 0-2.168-11.805l-4.458-21.625c-9.818-43.972-20.781-69.451-31.563-74.993-6.807-3.554-23.311-6.445-46.381-8.794l-25.3-2.169-29.093-1.807-32.226-1.445-34.755-1.085-36.623-.722-56.983-.482z"/></svg>