<svg class="icon" viewBox="0 0 1024 1024" xmlns="http://www.w3.org/2000/svg" width="200" height="200"><defs><style/></defs><path d="M630.656 116.992a195.456 195.456 0 0 1 268.032-7.936l8.32 7.936a195.456 195.456 0 0 1 0 276.352l-3.456 3.456 5.824 6.912c53.76 67.84 56 163.136 6.72 233.28l-1.408 1.792a195.456 195.456 0 0 1 .256 259.84l-7.936 8.384A195.456 195.456 0 0 1 647.68 922.24l-8.96-7.488-1.728 1.344a195.584 195.584 0 0 1-233.28-6.72l-6.976-5.76-3.392 3.392a195.456 195.456 0 0 1-268.032 7.936l-8.32-7.936a195.456 195.456 0 0 1 0-276.352l7.04-7.168-2.112-2.24c-60.8-67.84-65.408-162.56-14.016-234.496l1.28-1.664a195.52 195.52 0 0 1-.128-259.776l7.936-8.32A195.456 195.456 0 0 1 376.32 101.76l8.832 7.488 1.856-1.344a195.584 195.584 0 0 1 233.28 6.72l6.912 5.76zm-282.56 45.248A131.456 131.456 0 0 0 162.24 348.096l12.8 12.8a32 32 0 0 1 0 45.312c-51.328 51.328-51.328 126.72 0 178.112l2.56 2.56 4.032 5.44c1.344 2.112 2.816 4.736 4.864 8.32l1.152 2.24c0 .192-.448 0-1.664-.896l4.032 3.776a32 32 0 0 1-1.408 43.712l-26.368 26.432A131.456 131.456 0 0 0 348.096 861.76l26.432-26.368a32 32 0 0 1 47.616 2.624 131.456 131.456 0 0 0 195.648 10.88 32 32 0 0 1 45.248 0l12.8 12.864a131.456 131.456 0 1 0 185.92-185.856l-12.8-12.8a32 32 0 0 1 0-45.312 131.456 131.456 0 0 0-10.944-195.648 32 32 0 0 1-2.624-47.616l26.368-26.432A131.456 131.456 0 1 0 675.904 162.24l-26.432 26.368a32 32 0 0 1-47.616-2.624 131.456 131.456 0 0 0-195.648-10.88 32 32 0 0 1-45.248 0zm266.56 173.568a32 32 0 0 1 2.368 40.96l-3.84 4.288-102.336 95.488h108.48a32 32 0 0 1 25.92 50.816l-3.648 4.224-163.136 157.76a32 32 0 0 1-48.256-41.6l3.776-4.48L540.16 540.608h-110.4a32 32 0 0 1-25.6-51.2l3.712-4.16 161.6-150.912a32 32 0 0 1 45.184 1.536z"/></svg>