<svg class="icon" viewBox="0 0 1088 1024" xmlns="http://www.w3.org/2000/svg" width="212.5" height="200"><defs><style/></defs><path d="M679.168 384.192a109.248 109.248 0 0 1 108.48 122.432c-4.864 40-11.072 72.32-18.752 96.832 21.504-6.208 48-11.072 79.36-14.656a113.28 113.28 0 0 1 126.08 112.64A110.656 110.656 0 0 1 850.048 811.2c-27.072-3.328-50.56-7.424-70.528-12.16 3.392 16 6.08 34.112 8.32 54.144A111.936 111.936 0 0 1 676.544 977.28a109.248 109.248 0 0 1-108.48-122.432c2.56-20.48 5.376-39.04 8.576-55.552-19.52 5.12-42.624 9.024-69.248 12.032a113.28 113.28 0 0 1-126.08-112.64A110.656 110.656 0 0 1 505.6 588.992c32.192 4.032 59.328 8.96 81.408 14.912-8.448-24.32-14.784-56.128-19.136-95.552a111.936 111.936 0 0 1 111.232-124.096zM316.928 70.784l2.624.256 2.752-.256h445.504c82.688 0 153.6 47.552 159.552 113.28l.448 9.088v252.992a32 32 0 0 1-63.488 5.76l-.512-5.76V193.152c0-27.52-36.096-54.72-85.824-57.984l-10.176-.384H627.2V325.12a68.16 68.16 0 0 1-115.712 48.896l-5.376-5.888-12.8-15.872a32 32 0 0 0-46.528-3.456l-3.84 4.288-10.752 14.208a65.408 65.408 0 0 1-117.12-32.384l-.384-7.168-.064-193.024-58.624.064c-49.472 0-91.072 42.176-95.552 97.024l-.384 9.792v555.2c0 56.192 38.848 101.504 87.296 106.304l8.64.448h126.72a32 32 0 0 1 5.76 63.488l-5.76.512H256c-85.504 0-154.432-71.168-159.616-160L96 796.8V241.6c0-90.176 65.664-164.864 149.76-170.432l10.24-.384h60.864zm346.88 675.968a112.384 112.384 0 0 1-7.68 9.728l1.472-2.368c-5.248 7.296-11.2 24.384-16.64 50.176l-3.968 20.928-1.92 11.712-3.456 25.6a45.248 45.248 0 0 0 44.928 50.688l5.184-.192a47.936 47.936 0 0 0 42.432-52.864c-5.376-49.28-14.08-82.368-22.144-96.96a86.656 86.656 0 0 1-13.44-15.36c-9.792-8.512-17.024-8.512-24.768-1.088zm-171.84-94.592a46.656 46.656 0 0 0-46.336 52.224 49.28 49.28 0 0 0 54.592 43.456c55.168-6.272 89.472-16.64 99.968-25.728 1.92-1.6 3.584-3.2 5.184-4.736a120.448 120.448 0 0 1 9.472-11.84c5.504-9.984 1.472-17.92-10.752-26.88-7.808-5.76-26.752-12.224-55.68-18.048l-23.552-4.224a801.792 801.792 0 0 0-27.2-3.84 46.208 46.208 0 0 0-5.76-.384zm363.52.32c-55.168 6.272-89.536 16.64-99.968 25.728-14.4 12.416-19.456 21.44-16.128 29.952 2.752 2.624 5.312 5.504 7.936 8.512l3.2 4.224 1.024.832c4.864 3.52 14.08 7.424 27.456 11.264l17.92 4.48c13.184 3.008 28.928 5.888 47.04 8.448l14.08 1.92A46.656 46.656 0 0 0 910.144 696a49.28 49.28 0 0 0-54.656-43.52zm-176.32-204.224a47.936 47.936 0 0 0-47.616 53.12c6.208 56.32 16.64 91.52 25.6 102.08 18.432 21.632 28.16 21.632 40.96 3.968 5.312-7.296 11.2-24.384 16.64-50.176l3.968-20.928 3.712-24.128 1.728-13.248a45.248 45.248 0 0 0-44.928-50.688zM563.2 134.72H378.56v193.024c0 .768.64 1.408 1.472 1.408l.64-.128.448-.448 10.752-14.08a96 96 0 0 1 145.92-8.32l5.12 5.76 12.8 15.808a4.16 4.16 0 0 0 5.952.64l1.088-1.472.448-1.792-.064-190.4z"/></svg>