<svg class="icon" viewBox="0 0 1024 1024" xmlns="http://www.w3.org/2000/svg" width="200" height="200"><defs><style/></defs><path d="M748.8 104.832l79.36 83.776h3.328a128 128 0 0 1 128 128v155.2c.32 2.688.512 5.44.512 8.192v192c0 2.752-.192 5.504-.512 8.192v150.784a128 128 0 0 1-128 128H192a128 128 0 0 1-128-128V316.608a128 128 0 0 1 128-128h283.52l79.424-83.776a132.096 132.096 0 0 1 193.92 0zm82.688 147.776H192a64 64 0 0 0-63.552 56.512l-.448 7.488v514.368a64 64 0 0 0 56.512 63.552l7.488.448h639.488a64 64 0 0 0 63.552-56.512l.448-7.488-.064-94.976H575.872a64 64 0 0 1-64-64V480a64 64 0 0 1 64-64h319.552v-99.392a64 64 0 0 0-56.512-63.616l-7.424-.384zM895.36 480H575.872v192h319.552V480zM704 514.688a64 64 0 1 1 0 128 64 64 0 0 1 0-128zm-96.32-371.712l-6.272 5.888-32.192 33.92h165.312l-32.192-33.92a67.84 67.84 0 0 0-94.656-5.888z"/></svg>