<svg class="icon" viewBox="0 0 1024 1024" xmlns="http://www.w3.org/2000/svg" width="200" height="200"><defs><style/></defs><path d="M530.854 66.74c57.585 0 99.87 23.492 128.24 69.452 5.422-4.819 12.65-7.65 20.48-7.65 109.81 0 185.043 68.668 198.596 201.668l46.683 366.592.18 5.722a31.322 31.322 0 0 1-.662 5.18c6.023 14.156 9.276 29.275 9.276 45.177 0 86.558-96.135 150.648-210.1 150.648-80.716 0-154.083-32.225-189.14-84.209a31.684 31.684 0 0 1-3.493-6.866c-5.3 0-10.481-.181-15.661-.422a27.407 27.407 0 0 1-3.614 7.288c-34.877 51.984-108.243 84.21-189.019 84.21-113.965 0-210.1-64.09-210.1-150.589 0-18.372 4.336-35.72 12.227-51.621l.181-4.217 46.984-366.833c13.552-133.12 88.425-201.427 198.234-201.427 6.626 0 12.77 2.048 17.89 5.542C420.984 89.63 469.715 66.74 530.914 66.74zm208.233 599.282v-2.41c0 63.79-56.019 118.122-134.927 139.324 27.046 22.589 70.716 37.346 119.386 37.346 83.125 0 146.914-42.466 146.914-87.34 0-42.166-55.898-82.041-131.313-86.92zm-416.467-.482c-83.245 0-146.974 42.466-146.974 87.34 0 44.936 63.73 87.463 146.974 87.463 51.08 0 96.678-16.384 123.242-40.96-71.982-22.89-122.278-74.15-123.242-133.843zm208.234-87.462c-83.788 0-145.047 43.791-145.047 85.534 0 41.864 61.26 85.595 145.047 85.595S675.9 705.476 675.9 663.672s-61.26-85.534-145.046-85.534zm167.333-315.03l37.768 339.486c43.67 1.807 84.269 13.01 117.097 31.262L813.78 324.488c-13.011-92.522-60.296-132.76-134.144-132.76l3.855.061c6.505 21.143 11.445 44.936 14.697 71.259zm-340.33-70.596l-7.227.602c-62.645 6.686-102.581 47.345-114.447 131.434l-39.274 307.2a269.01 269.01 0 0 1 117.52-29.335l26.683-330.692c3.012-29.515 8.674-56.019 16.806-79.27zm172.997-62.524c-69.693 0-112.4 40.297-125.29 134.324l-1.506 13.252-22.89 282.684c37.95-27.949 90.956-45.297 149.686-45.297 51.862 0 99.388 13.553 135.77 35.96l-29.576-266.059C626.025 174.2 593.077 129.988 530.854 129.988z"/></svg>