<svg class="icon" viewBox="0 0 1024 1024" xmlns="http://www.w3.org/2000/svg" width="200" height="200"><defs><style/></defs><path d="M512 58.112a32 32 0 0 1 31.488 26.24l.512 5.76V224h194.112a96 96 0 0 1 95.552 86.784l.448 9.216v118.4l96.32.064a32 32 0 0 1 31.488 26.24l.512 5.76a160.32 160.32 0 0 1-320.64 0 32 32 0 0 1 32-32h96.256L770.112 320a32 32 0 0 0-26.24-31.488l-5.76-.512H544v487.232h241.28a126.08 126.08 0 0 1 116.032 76.544l3.584 9.408a80.64 80.64 0 0 1-76.544 106.368H213.44a84.288 84.288 0 0 1-82.048-103.424 115.072 115.072 0 0 1 112.064-88.96H480V288H289.984a32 32 0 0 0-31.488 26.24l-.576 5.76v118.4l96.32.064a32 32 0 0 1 31.488 26.24l.512 5.76a160.32 160.32 0 0 1-320.64 0 32 32 0 0 1 32-32h96.32V320a96 96 0 0 1 86.784-95.552l9.28-.448h189.952L480 90.112a32 32 0 0 1 32-32zm273.28 781.12H243.456a51.072 51.072 0 0 0-49.728 39.424 20.288 20.288 0 0 0 19.712 24.96h614.848a16.64 16.64 0 0 0 15.872-22.08 62.08 62.08 0 0 0-58.88-42.304zm107.712-336.768H711.36l.448 1.6c12.672 34.048 43.968 58.944 81.536 62.336l8.768.384c41.408 0 76.672-26.048 90.304-62.72l.576-1.6zm-576.192 0H135.168l.512 1.6c12.608 34.048 43.968 58.944 81.536 62.336l8.768.384c41.344 0 76.672-26.048 90.24-62.72l.64-1.6z"/></svg>