<svg class="icon" viewBox="0 0 1024 1024" xmlns="http://www.w3.org/2000/svg" width="200" height="200"><defs><style/></defs><path d="M829.824 64a128 128 0 0 1 128 128v433.28a128 128 0 0 1-128 128l-277.44-.064v137.856h245.76a32 32 0 0 1 32 32V928a32 32 0 0 1-32 32H223.68a32 32 0 0 1-32-32v-4.928a32 32 0 0 1 32-32h264.704V753.216H192a128 128 0 0 1-128-128V192A128 128 0 0 1 192 64h637.824zm0 64H192a64 64 0 0 0-63.552 56.512L128 192v433.28a64 64 0 0 0 56.512 63.552l7.488.384h637.824a64 64 0 0 0 63.616-56.512l.384-7.488V192a64 64 0 0 0-56.512-63.552l-7.488-.448zm-215.552 82.048a32 32 0 0 1 2.304 40.96l-3.84 4.224-131.648 122.88H624a32 32 0 0 1 25.92 50.816l-3.648 4.224-192.768 186.304a32 32 0 0 1-48.256-41.6l3.84-4.352 135.744-131.392H400a32 32 0 0 1-25.6-51.2l3.776-4.16 190.784-178.24a32 32 0 0 1 45.248 1.536z"/></svg>