<svg class="icon" viewBox="0 0 1024 1024" xmlns="http://www.w3.org/2000/svg" width="200" height="200"><defs><style/></defs><path d="M463.812 132.518a150.588 150.588 0 0 1 157.816 0l213.836 131.554a150.588 150.588 0 0 1 71.68 128.3v423.395a150.588 150.588 0 0 1-150.589 150.588h-427.55a150.588 150.588 0 0 1-150.588-150.588V392.312a150.588 150.588 0 0 1 71.68-128.24zm126.313 51.32a90.353 90.353 0 0 0-94.69 0L281.6 315.392a90.353 90.353 0 0 0-42.948 76.98v423.395a90.353 90.353 0 0 0 90.353 90.353h427.55a90.353 90.353 0 0 0 90.353-90.353V392.312a90.353 90.353 0 0 0-43.008-76.92zM478.871 401.89l63.849 63.729 63.85-63.85a30.118 30.118 0 0 1 42.586 42.587L612.17 481.34l71.018.06a30.118 30.118 0 0 1 0 60.236h-110.35v60.476h110.35a30.118 30.118 0 0 1 0 60.235h-110.35v95.533a30.118 30.118 0 1 1-60.236 0v-95.533h-110.29a30.118 30.118 0 1 1 0-60.235h110.35v-60.476l-110.35.06a30.118 30.118 0 0 1 0-60.235l71.017-.06-36.985-36.985a30.118 30.118 0 1 1 42.587-42.586z"/></svg>