<svg class="icon" viewBox="0 0 1024 1024" xmlns="http://www.w3.org/2000/svg" width="200" height="200"><defs><style/></defs><path d="M510.784 64a169.728 169.728 0 0 1 168.32 192c-8 59.968-21.312 111.424-40 154.368 44.224-14.272 96.448-24.064 156.544-29.504a151.744 151.744 0 0 1 164.736 164.864 148.736 148.736 0 0 1-161.856 134.4 917.76 917.76 0 0 1-141.696-22.848A630.4 630.4 0 0 1 680.768 768a169.6 169.6 0 0 1-189.12 190.72 166.4 166.4 0 0 1-144.192-185.984c5.504-43.2 12.928-81.28 22.4-114.304-39.808 10.432-87.296 18.176-142.4 23.232A148.736 148.736 0 0 1 64.96 533.568 151.744 151.744 0 0 1 230.4 382.4c58.624 5.312 109.696 14.72 153.28 28.352-17.088-41.6-29.696-94.784-37.888-159.488A166.4 166.4 0 0 1 510.848 64zm81.984 594.368l-3.072 1.92c-22.848 13.44-49.344 21.056-77.696 21.056-28.544 0-55.296-7.808-78.208-21.312a62.976 62.976 0 0 1-2.432 16c-8.448 29.632-15.36 64.64-20.416 104.704A102.4 102.4 0 0 0 512.512 896a105.728 105.728 0 0 0 104.832-119.616 567.232 567.232 0 0 0-21.376-99.456 64.896 64.896 0 0 1-3.2-18.56zm-376-212.544a87.744 87.744 0 0 0-87.488 95.552 84.736 84.736 0 0 0 92.16 76.544c52.16-4.8 96.192-11.968 132.096-21.376a64.64 64.64 0 0 1 19.968-2.048A153.536 153.536 0 0 1 368 472.768a637.76 637.76 0 0 0-120.704-24.32l-22.72-2.304a87.616 87.616 0 0 0-7.872-.32zM512 437.568a89.856 89.856 0 1 0 0 179.776 89.856 89.856 0 0 0 0-179.776zm297.216 6.656l-3.904.128-3.968.256C745.6 449.6 698.048 458.56 658.816 471.296l-3.2.832a153.536 153.536 0 0 1-4.608 121.344 62.656 62.656 0 0 1 21.76 1.792c36.16 9.28 80.064 16.384 131.648 21.12a84.736 84.736 0 0 0 92.544-84.352c0-48.512-39.232-87.808-87.68-87.808zM510.784 128a102.4 102.4 0 0 0-101.568 115.2c7.552 59.648 18.944 107.52 33.6 143.232l1.088 3.008c20.48-10.176 43.648-15.872 68.096-15.872 24 0 46.72 5.504 66.944 15.296l1.472-4.032c16.128-37.12 27.968-82.816 35.2-137.28A105.6 105.6 0 0 0 510.72 128z"/></svg>