<svg class="icon" viewBox="0 0 1024 1024" xmlns="http://www.w3.org/2000/svg" width="200" height="200"><defs><style/></defs><path d="M864 64a96 96 0 0 1 0 192h-34.816v225.536C904.32 532.288 960 706.752 960 787.584a172.416 172.416 0 0 1-288.128 127.808l1.28-.832c-47.744 34.368-102.016 48.768-161.408 48.768-170.88 0-310.016-136.96-317.184-308.544l-.32-13.952V256H160a96 96 0 0 1 0-192h704zm-98.816 195.328H258.24v381.44c0 138.624 106.88 251.52 240.832 258.24l12.672.32c45.888 0 86.336-10.496 121.6-34.944a170.56 170.56 0 0 1-18.176-76.8c0-87.616 65.408-285.056 150.016-316.032V259.328zm22.4 272.064c-33.28 0-108.416 164.032-108.416 256.192a108.416 108.416 0 0 0 216.832 0c0-26.304-6.144-58.496-15.68-91.072l-7.68-24.384c-24.96-72.96-63.616-140.736-85.056-140.736zM864 128H160a32 32 0 0 0-5.76 63.488L160 192h704a32 32 0 0 0 5.76-63.488L864 128z"/></svg>