<svg class="icon" viewBox="0 0 1024 1024" xmlns="http://www.w3.org/2000/svg" width="200" height="200"><defs><style/></defs><path d="M645.056 117.76l6.72 7.68 5.44-5.248c66.304-60.992 181.056-63.04 246.912-5.632l7.36 6.848a165.056 165.056 0 0 1 .32 233.408 32 32 0 0 1-45.248-45.248 101.056 101.056 0 0 0-.32-142.912c-37.76-37.696-113.6-39.68-158.528-5.376l-6.848 5.76-30.464 28.8a32 32 0 0 1-45.632-1.664l-8.128-9.472-15.36-19.84c-35.072-43.456-140.608-45.44-191.232-3.584l-6.272 5.696L376 194.752a32 32 0 0 1-40.832 3.776l-4.48-3.712-28.928-28.992a101.056 101.056 0 0 0-142.912-.256 100.992 100.992 0 0 0-5.952 136.064l6.272 6.848 28.928 28.928a32 32 0 0 1 3.712 40.832l-3.712 4.48-27.84 27.776c-48 48-47.872 126.016.384 174.208 13.888 13.952 30.464 24.128 48.64 30.08a32 32 0 0 1 16.128 48.96l-3.456 4.096-62.208 62.208A101.056 101.056 0 0 0 160 872.96a101.12 101.12 0 0 0 136.128 6.464l6.784-6.208 55.232-55.296a32 32 0 0 1 49.024 40.768l-3.712 4.48-55.296 55.296a165.056 165.056 0 0 1-233.408-.256 165.12 165.12 0 0 1-7.424-225.856l7.168-7.552 30.72-30.72-7.488-4.928a188.288 188.288 0 0 1-11.52-9.152l-10.88-9.984a187.264 187.264 0 0 1-7.808-256.896l7.552-8 5.12-5.12-6.272-6.4a165.12 165.12 0 0 1-7.424-225.792l7.104-7.552a165.056 165.056 0 0 1 225.792-6.912l7.68 7.168 6.336 6.336 5.12-5.184c71.04-70.976 220.672-73.088 286.528-3.904zm31.296 274.88a283.648 283.648 0 1 1 0 567.36 283.648 283.648 0 0 1 0-567.36zM855.36 549.056L548.992 855.36a219.648 219.648 0 0 0 306.432-306.304zM676.352 456.64a219.648 219.648 0 0 0-173.568 354.432l308.288-308.288a218.752 218.752 0 0 0-134.72-46.08z"/></svg>