<svg class="icon" viewBox="0 0 1024 1024" xmlns="http://www.w3.org/2000/svg" width="200" height="200"><defs><style/></defs><path d="M475.968 76.928a96 96 0 0 1 92.032.64l344.064 190.976a96 96 0 0 1-46.592 179.968h-41.216v319.296h41.472c50.56 0 92.16 38.72 96.64 88.192l.384 8.832c0 53.568-43.264 97.088-96.832 97.408l-705.28 4.032c-54.976 0-99.392-44.288-99.392-99.072 0-54.912 44.48-99.392 99.392-99.392h29.504v-319.36h-24.32a96 96 0 0 1-79.552-42.304l-4.928-8.192a96 96 0 0 1 39.104-129.984zm389.76 754.88H160.64a35.392 35.392 0 0 0-35.392 35.392c0 19.392 15.744 35.072 35.2 35.072l705.088-4.032a33.408 33.408 0 0 0 33.28-33.408 33.024 33.024 0 0 0-33.088-33.024zm-105.472-383.36H254.144v319.296h129.344V578.176a32 32 0 0 1 63.488-5.76l.512 5.76v189.568H576.96l.064-189.568a32 32 0 0 1 63.488-5.76l.512 5.76-.064 189.568h119.296V448.512zm-223.36-314.88a32 32 0 0 0-30.656-.256L150.72 324.288a32 32 0 0 0 15.168 60.16h699.52a32 32 0 0 0 15.552-59.904z"/></svg>