<svg class="icon" viewBox="0 0 1024 1024" xmlns="http://www.w3.org/2000/svg" width="200" height="200"><defs><style/></defs><path d="M511.036 122.64c72.885 0 132.036 59.03 132.036 131.975l-.06 67.825h45.056a150.588 150.588 0 0 1 150.287 140.71l.301 9.938v35.78l81.137 350.148a90.353 90.353 0 0 1 2.048 13.552l.301 6.867a90.353 90.353 0 0 1-90.353 90.353H190.283a90.353 90.353 0 0 1-87.943-110.833l81.619-350.027v-35.84a150.588 150.588 0 0 1 140.71-150.287l9.938-.301 44.393-.06v-67.825c0-69.693 54.092-126.856 122.64-131.675zM784.625 542.6H237.99l-76.981 330.029a30.118 30.118 0 0 0 17.287 34.454l5.18 1.687a30.118 30.118 0 0 0 6.868.783h158.96a29.877 29.877 0 0 1-.602-5.963l.482-5.422 38.792-215.823a30.118 30.118 0 0 1 29.575-24.817l5.421.482a30.118 30.118 0 0 1 24.817 29.576l-.482 5.421-38.851 215.823-.241.723h208.113l-.422-2.229-27.528-215.823a30.118 30.118 0 0 1 58.55-12.95l1.204 5.3 27.527 215.884a30.118 30.118 0 0 1-.361 9.878h156.491a30.118 30.118 0 0 0 29.335-36.984l-76.5-330.03zM511.036 182.874c-39.635 0-71.74 32.106-71.74 71.74v98.003a30.118 30.118 0 0 1-30.118 30.118h-74.57a90.353 90.353 0 0 0-90.354 90.353l-.06 9.276H778.42v-9.276a90.353 90.353 0 0 0-81.62-89.931l-8.733-.422h-75.114a30.118 30.118 0 0 1-30.117-30.118v-98.002c0-39.635-32.166-71.74-71.8-71.74z"/></svg>