<svg class="icon" viewBox="0 0 1024 1024" xmlns="http://www.w3.org/2000/svg" width="200" height="200"><defs><style/></defs><path d="M593.536 317.184a68.48 68.48 0 0 1-115.072 50.304l-5.568-5.76-13.888-16.32a32 32 0 0 0-45.376-3.328l-3.968 4.16-11.712 14.656a65.664 65.664 0 0 1-116.608-33.856l-.384-7.168v-185.28H251.2c-49.28 0-90.752 41.92-95.168 96.448l-.384 9.728V793.28c0 55.872 38.656 100.864 86.912 105.728l8.64.384h186.048a32 32 0 0 1 5.76 63.488l-5.76.512H251.2c-85.312 0-154.112-70.912-159.232-159.36l-.32-10.752V240.768c0-89.856 65.472-164.224 149.376-169.792l10.176-.32h60.736l2.688.256 2.688-.256h444.16c82.432 0 153.152 47.04 159.104 112.384l.448 8.96v128a32 32 0 0 1-63.488 5.76l-.576-5.76V192c0-26.88-35.904-53.76-85.504-57.024l-10.048-.32-168-.064v182.592zM930.688 704c23.232 0 42.048 14.336 42.048 32s-18.816 32-42.048 32h-12.416v1.792c-5.76 107.648-90.752 193.6-195.648 193.6s-189.888-85.952-195.584-193.6l-.128-1.792H514.56c-23.232 0-42.048-14.336-42.048-32s18.816-32 42.048-32h416.128zm-76.48 64H591.04c4.864 73.92 62.272 131.392 131.584 131.392 69.312 0 126.72-57.472 131.584-131.072V768zM722.56 375.68c104.896 0 189.888 85.952 195.648 193.536l.128 8.064h4.416c23.168 0 42.048 14.336 42.048 32 0 17.728-18.88 32-42.048 32H506.688c-23.232 0-42.048-14.272-42.048-32 0-17.664 18.816-32 42.048-32h20.096l.256-8.064c5.76-107.584 90.688-193.6 195.584-193.6zm0 64c-69.312 0-126.72 57.472-131.584 131.008l-.192 6.592h263.552l-.192-6.592c-4.864-73.6-62.272-131.072-131.584-131.072zm-377.6-119.872c0 .96.704 1.728 1.664 1.728l.704-.192.64-.448 11.648-14.656a96 96 0 0 1 134.912-15.168l6.848 6.016 6.272 6.656 13.888 16.32a4.48 4.48 0 0 0 6.4.512l1.152-1.536.448-1.92-.064-182.592H344.96v185.28z"/></svg>