<svg class="icon" viewBox="0 0 1024 1024" xmlns="http://www.w3.org/2000/svg" width="200" height="200"><defs><style/></defs><path d="M194.048 134.848c69.12-.704 123.008 22.464 208.256 111.616l23.04 24.768 9.408 10.688A127.424 127.424 0 0 1 512 256c29.504 0 56.704 9.984 78.336 26.752 101.376-114.688 159.36-146.304 232.704-147.84h15.36c70.144 0 107.392 74.24 121.856 214.592l2.944 33.6 2.176 35.84 1.472 38.208c.32 13.12.576 26.624.64 40.512l.128 21.056c0 35.584-.768 68.864-2.24 99.712l-2.24 35.84a977.024 977.024 0 0 1-7.808 72.448 32.064 32.064 0 0 1-1.152 7.552c-17.216 105.6-51.52 163.456-108.992 168.32l-11.072.512-6.208.512c-72.32 6.4-141.76-18.624-225.92-108.608A127.552 127.552 0 0 1 512 832c-34.56 0-65.92-13.696-88.96-35.968C343.168 881.088 276.48 907.584 208 904.32l-19.2-1.472c-81.28 0-119.04-99.2-128.128-284.416L59.2 580.224a2042.624 2042.624 0 0 1-.448-19.904l-.32-41.6.32-41.6 1.088-39.36 1.792-36.992 2.56-34.752c12.8-145.408 47.872-225.088 115.52-230.784l7.936-.384h6.4zM384.064 661.76c-68.8 55.168-149.76 86.72-242.368 94.4 11.904 54.528 28.544 82.688 47.104 82.688l8.896.512 6.016.512c55.936 4.928 109.12-15.36 185.024-101.184A127.424 127.424 0 0 1 384 704zM640 652.352V704c0 11.392-1.472 22.4-4.288 32.896l-10.88-12.608c78.976 93.568 133.376 118.592 189.44 116.16l18.88-1.472 4.032-.128c18.688 0 35.392-28.48 47.36-83.456C790.72 745.92 708.928 711.488 640 652.352zM512 320a64 64 0 0 0-63.552 56.512L448 384v320c0 8.576 1.664 16.768 4.736 24.256 1.408 1.92 2.432 4.16 3.2 6.4a64 64 0 0 0 119.68-23.168L576 704V384a64 64 0 0 0-64-64zM384 552.96H122.688l.064 4.864.448 18.56 1.408 35.52 2.048 32.96c1.216 15.872 2.56 30.784 4.224 44.8l.448 3.136c103.808-7.424 189.44-48.576 258.432-123.968l-5.76 6.016V552.96zm519.296.128L640 552.96l.064 10.944c1.984 1.344 3.84 3.008 5.568 4.864 66.944 73.152 149.504 114.048 249.216 123.2l-1.408 11.264c1.216-8.96 2.24-18.24 3.2-27.968l2.688-30.464 2.048-32.96 1.408-35.456c.256-7.68.384-15.424.512-23.36zm-6.656-192.64c-94.08 9.28-175.36 49.28-244.864 120.832a31.872 31.872 0 0 1-11.712 7.68H640h263.424a1913.856 1913.856 0 0 0-.64-27.84l-1.344-35.392-.96-16.768-2.304-31.68zm-767.04-1.28l-.32 2.56-1.472 15.552-2.304 31.68c-.64 10.944-1.28 22.4-1.664 34.176l-1.088 36.544-.064 9.344H384v-14.08l-7.168-7.104C306.304 400.96 224.32 364.928 129.6 359.232zm708.8-160.256h-7.04c-41.92-.448-75.52 10.432-126.4 56.896l-17.6 16.832c-12.224 12.16-25.472 26.176-39.936 42.368l-17.28 19.712c6.4 15.168 9.856 31.872 9.856 49.344v20.544a442.368 442.368 0 0 1 247.872-107.52c-11.2-60.608-27.52-94.08-46.016-97.792l-3.456-.384zm-636.8 0h-13.952c-19.712 0-37.248 33.152-49.216 96.768l-18.496-.896c99.2 3.328 187.52 35.136 264.128 94.912L384 384c0-18.112 3.776-35.328 10.496-50.944l-15.872-18.112-20.8-22.72C288 218.24 249.536 199.936 201.6 198.848z"/></svg>