<svg class="icon" viewBox="0 0 1024 1024" xmlns="http://www.w3.org/2000/svg" width="200" height="200"><defs><style/></defs><path d="M451.945 148.3l6.446 5.842 119.446 119.386 76.56-76.498a83.366 83.366 0 0 1 111.977-5.422l5.963 5.422 112.941 112.94a30.118 30.118 0 0 1 5.662 7.952 90.353 90.353 0 0 1-17.528 156.973v368.4a120.47 120.47 0 0 1-120.47 120.47H271.058a120.47 120.47 0 0 1-120.47-120.47V478.267a90.353 90.353 0 0 1 25.419-177.092h3.192a29.877 29.877 0 0 1 2.71-4.879l3.494-4.216 138.12-138.06a95.352 95.352 0 0 1 128.421-5.722zm361.231 333.582H210.824v361.412a60.235 60.235 0 0 0 53.187 59.814l7.048.421H752.94a60.235 60.235 0 0 0 59.814-53.187l.421-7.048V481.882zM583.44 557.9a30.118 30.118 0 0 1 2.169 38.55l-3.615 3.976-63.849 59.573h64.03a30.118 30.118 0 0 1 24.395 47.887l-3.433 3.915-120.772 116.857a30.118 30.118 0 0 1-45.417-39.213l3.554-4.156 67.222-65.055h-65.897a30.118 30.118 0 0 1-24.094-48.188l3.493-3.915 119.688-111.676A30.118 30.118 0 0 1 583.5 557.9zm255.157-196.487H176.008a30.118 30.118 0 0 0-5.422 59.753l5.422.482h662.588a30.118 30.118 0 0 0 5.42-59.753l-5.48-.482zm-137.94-124.687l-3.613 2.951-61.5 61.44H791.19l-61.44-61.44a23.13 23.13 0 0 0-29.094-3.012zm-330.209-43.852l-4.337 3.615-104.568 104.688h258.65L415.804 196.79a35.177 35.177 0 0 0-45.357-3.855z"/></svg>