<svg class="icon" viewBox="0 0 1024 1024" xmlns="http://www.w3.org/2000/svg" width="200" height="200"><defs><style/></defs><path d="M506.752 64a448 448 0 1 1 0 896 448 448 0 0 1 0-896zM128.384 577.792l.832 4.736a384.128 384.128 0 0 0 364.928 313.28l-.192 19.392c0-59.456 5.504-113.92 16.448-163.392-155.776 12.928-284.032-45.824-382.016-174.08zM888.64 471.36l-8.448 1.536c-210.048 41.408-315.776 178.56-321.92 419.584 32.576-4.288 63.744-12.736 93.184-24.704l.448 8.064c-13.696-186.112 66.368-286.72 230.912-286.848 5.248-24.768 7.936-50.56 7.936-76.992 0-13.696-.704-27.264-2.112-40.64zm-24.896 182.272l-2.56.064c-100.096 6.976-147.136 64.384-146.88 181.376a384.96 384.96 0 0 0 149.44-181.44zM145.92 380.8l-2.688 7.296c-7.808 22.912-13.44 46.72-16.832 71.36l1.344-.64c95.104 174.72 226.176 248.96 398.592 227.2l3.2-.512c11.136-31.104 24.96-59.776 41.344-85.952C397.44 625.664 254.272 551.68 145.92 380.8zm97.92-148.608l-8.576 8.32a385.664 385.664 0 0 0-56.128 71.168l-3.008-5.44c113.728 206.72 265.216 275.2 463.232 211.52 60.416-54.72 139.648-91.328 237.248-109.248a380.928 380.928 0 0 0-65.856-131.2l4.032-3.84C616.192 472.64 419.392 458.24 243.84 232.192zm53.888-42.24l-3.712 2.496.064.128c151.68 195.456 302.976 207.36 473.472 37.632a383.04 383.04 0 0 0-58.688-44.8l1.6-1.088c-132.224 102.144-250.048 95.36-337.536-21.952l-5.824-8.064a382.72 382.72 0 0 0-69.376 35.648zM506.752 128c-25.28 0-49.92 2.432-73.856 7.04 57.152 69.12 124.032 75.52 210.88 18.304A379.584 379.584 0 0 0 506.752 128z"/></svg>