<svg class="icon" viewBox="0 0 1024 1024" xmlns="http://www.w3.org/2000/svg" width="200" height="200"><defs><style/></defs><path d="M826.752 198.4c178.56 178.56 180.16 466.624 3.392 643.456a32 32 0 1 1-45.248-45.248A383.36 383.36 0 0 0 888.448 608h-29.696a32 32 0 0 1-5.76-63.488l5.76-.512h38.4a394.048 394.048 0 0 0-49.6-213.184L827.52 349.44a32 32 0 0 1-47.488-42.496l3.84-4.288 27.52-25.6c-9.216-11.52-19.2-22.656-29.888-33.344a394.624 394.624 0 0 0-242.816-114.56V192a32 32 0 0 1-63.424 5.76l-.512-5.76v-63.552A384.32 384.32 0 0 0 206.464 264.32l44.48 32.256a32 32 0 0 1-32.64 54.72l-4.928-2.944-43.968-31.936A387.904 387.904 0 0 0 116.928 544h48.704a32 32 0 0 1 5.76 63.488l-5.76.512h-38.4a395.072 395.072 0 0 0 104.704 185.216 32 32 0 1 1-45.312 45.248c-178.56-178.56-180.16-466.56-3.328-643.392C360.128 18.24 648.192 19.84 826.752 198.4zM476.736 308.48a32 32 0 0 1 60.544 1.536l13.696 44.672 12.16 41.408 5.44 19.456 9.728 36.608c16.256 64.128 24.448 112.256 24.448 144.96 0 83.584-38.848 145.408-96 145.408-57.216 0-96-61.824-96-145.408 0-75.072 22.144-171.008 65.984-288.64zm28.16 116.928l-2.688 9.152c-18.368 64.192-27.52 118.464-27.52 162.56 0 52.736 18.048 81.408 32 81.408 14.08 0 32-28.672 32-81.408 0-15.36-2.368-36.032-7.296-61.888l-5.632-27.584a1167.552 1167.552 0 0 0-3.456-15.104l-8.128-32.704-9.344-34.432z"/></svg>