<svg class="icon" viewBox="0 0 1024 1024" xmlns="http://www.w3.org/2000/svg" width="200" height="200"><defs><style/></defs><path d="M512 65.408a448 448 0 1 1 0 896 448 448 0 0 1 0-896zm0 64a384 384 0 1 0 0 768 384 384 0 0 0 0-768zm119.168 202.24a32 32 0 0 1 0 45.184l-72.64 72.576H672a32 32 0 1 1 0 64H544v37.568h128a32 32 0 1 1 0 64H544v103.04a32 32 0 1 1-64 0V615.04H352a32 32 0 1 1 0-64h128v-37.568H352a32 32 0 0 1 0-64h111.744l-70.912-70.976a32 32 0 0 1 45.248-45.248l73.088 73.152 74.752-74.88a32 32 0 0 1 45.248 0z"/></svg>