<svg class="icon" viewBox="0 0 1024 1024" xmlns="http://www.w3.org/2000/svg" width="200" height="200"><defs><style/></defs><path d="M640.192 64.64l.128.896 101.056-.64A96 96 0 0 1 832 127.616l2.624 8.32L891.2 345.28l.192.96c4.864 8.064 7.68 17.792 8.64 28.8l.384 8.96v151.68a267.52 267.52 0 0 1-267.84 429.056l-3.328.96-5.76.512H230.272c-51.2 0-91.264-43.52-95.616-97.216l-.384-9.6V384c0-6.912.64-13.44 1.92-19.456a31.488 31.488 0 0 1-.768-19.392L192 138.368a96 96 0 0 1 92.16-70.656l112.448-.64.384-2.432h243.264zm52.288 435.84a203.52 203.52 0 1 0 0 407.04 203.52 203.52 0 0 0 0-407.04zM836.288 385.6h-638.08l.064 473.856c0 22.144 12.608 39.04 27.136 42.24l4.864.512h282.56A267.52 267.52 0 0 1 836.48 478.464l-.192-92.864zm-60.352 200l4.992 4.16a33.28 33.28 0 0 1 0 46.464L777.216 640h7.232a32 32 0 1 1 0 64h-60.032v35.264h60.032a32 32 0 0 1 0 64h-60.032v43.648a32 32 0 1 1-64 0v-43.648h-59.904a32 32 0 1 1 0-64h59.904V704h-59.904a32 32 0 1 1 0-64h12.992l-3.648-3.776a33.28 33.28 0 0 1 0-46.464 31.616 31.616 0 0 1 40.256-4.16l4.992 4.16 40.32 41.344 40.32-41.344a31.616 31.616 0 0 1 40.192-4.16zM385.984 131.008l-101.568.64a32 32 0 0 0-30.72 23.616L208.448 320.64l21.888.896h124.16l31.552-190.592zm199.552-1.152l-134.72.768-31.552 190.912h196.288L585.6 129.856zm156.224-.896l-91.456.512 30.08 192h130.752l7.168-.384-45.44-168.512a32 32 0 0 0-20.672-21.952l-5.12-1.28-5.312-.384z"/></svg>