<svg class="icon" viewBox="0 0 1024 1024" xmlns="http://www.w3.org/2000/svg" width="200" height="200"><defs><style/></defs><path d="M802.816 124.416a160 160 0 0 1 159.68 149.44l.32 10.56v459.84a160 160 0 0 1-149.44 159.68l-10.56.32h-531.84v21.184a32 32 0 0 1-19.2 29.248l-5.12 1.792c-106.624 26.24-173.696-.96-173.696-85.44v1.216h-6.208V276.224c0-81.664 71.936-146.432 160.896-151.488l11.2-.32h563.968zM136.96 399.808V871.04c0 26.688 15.488 37.376 62.336 29.952l7.744-1.408.32-406.656-.256-76.736-8.576-.128a144.192 144.192 0 0 1-55.68-13.184l-5.888-3.072zm665.856-211.392H238.848c-52.608 0-95.168 30.4-105.6 69.312a31.104 31.104 0 0 1 3.712 14.208c2.752 65.92 30.208 88.256 97.344 78.336a32 32 0 0 1 36.672 31.424l.384 307.328-.32 151.232h531.84a96 96 0 0 0 95.488-86.784l.448-9.216v-459.84A96 96 0 0 0 812.16 188.8l-9.28-.448zm-241.728 97.408a88.832 88.832 0 0 1 88.192 99.52 458.048 458.048 0 0 1-15.296 78.848c17.472-5.12 39.04-9.088 64.576-11.968a92.16 92.16 0 0 1 102.528 91.52 89.92 89.92 0 0 1-101.12 89.28 547.712 547.712 0 0 1-57.344-9.856c2.752 12.992 4.992 27.648 6.72 43.968A91.008 91.008 0 0 1 558.912 768a88.832 88.832 0 0 1-88.192-99.52c2.048-16.704 4.416-31.808 7.04-45.248a404.352 404.352 0 0 1-56.32 9.856 92.16 92.16 0 0 1-102.528-91.52 89.92 89.92 0 0 1 101.12-89.28c26.176 3.264 48.256 7.296 66.176 12.16-6.912-19.648-12.032-45.632-15.552-77.76a91.008 91.008 0 0 1 90.432-100.864zm-4.608 303.36l-3.2 4.416c-2.56 3.456-5.504 11.328-8.576 23.168l-3.648 16.192a486.4 486.4 0 0 0-3.52 19.84l-3.2 23.424A24.832 24.832 0 0 0 558.976 704l2.88-.128a27.008 27.008 0 0 0 23.872-29.76l-2.88-22.08a417.408 417.408 0 0 0-1.6-9.792l-3.392-16.768-3.584-13.12a47.424 47.424 0 0 0-6.592-14.848l-5.696-6.72c-2.752-3.072-3.84-3.456-5.504-1.6zm149.248-73.408c-42.624 4.864-68.608 12.736-74.816 18.048l-6.976 6.272c-4.8 4.736-3.2 5.76 3.072 10.432a59.52 59.52 0 0 0 16.192 6.656l13.952 3.648 17.664 3.648c3.2.64 6.656 1.152 10.24 1.728l22.848 3.328 3.2.192a25.92 25.92 0 0 0 25.984-25.984l-.192-3.2a28.16 28.16 0 0 0-31.168-24.768zm-296.896-.192a25.92 25.92 0 0 0-25.92 25.984l.192 3.2a28.16 28.16 0 0 0 31.104 24.768c42.688-4.864 68.608-12.736 74.88-18.112l6.912-6.208c4.8-4.736 3.2-5.824-3.072-10.432a59.52 59.52 0 0 0-16.192-6.656l-13.952-3.648-17.664-3.648a513.536 513.536 0 0 0-10.176-1.728l-22.912-3.328-3.2-.192zm152.256-165.76l-2.944.192a27.008 27.008 0 0 0-23.872 29.696l2.88 22.08 1.6 9.792 3.392 16.768c3.52 14.976 7.232 24.512 10.176 27.968l5.696 6.72c2.752 3.072 3.84 3.456 5.504 1.6l3.2-4.416c2.56-3.392 5.504-11.264 8.576-23.168l3.648-16.192a486.4 486.4 0 0 0 3.52-19.84l3.264-23.424a24.832 24.832 0 0 0-24.64-27.776z"/></svg>