<svg class="icon" viewBox="0 0 1024 1024" xmlns="http://www.w3.org/2000/svg" width="200" height="200"><defs><style/></defs><path d="M518.464 58.56c152.832 0 280.64 100.032 303.232 232.128a95.808 95.808 0 0 1 49.856 157.44c15.232 17.024 24.448 39.424 24.448 64s-9.216 46.912-24.32 63.936a96 96 0 0 1-50.176 157.44C798.656 865.152 671.04 964.8 518.464 964.8c-151.68 0-278.848-98.56-302.72-229.312l8.256.384A96 96 0 0 1 152.32 576a95.744 95.744 0 0 1 .128-127.872 96 96 0 0 1 63.232-159.616C239.232 157.44 366.464 58.56 518.464 58.56zm237.12 677.248h-474.24c23.744 93.76 120.32 164.992 237.12 164.992 116.8 0 213.376-71.232 237.12-164.992zM800 608.128H224l-2.304-.128-3.456.384a32 32 0 0 0 0 62.976l5.76.512h576a32 32 0 0 0 5.76-63.488l-3.456-.256H800zm0-128H224a32 32 0 0 0-5.76 63.488l3.456.256h580.608l3.456-.256a32 32 0 0 0 0-62.976l-5.76-.512zm0-128H224a32 32 0 0 0-5.76 63.488l5.76.512h576a32 32 0 0 0 5.76-63.488l-5.76-.512zM518.464 122.56c-117.12 0-213.76 71.552-237.248 165.632h474.496c-23.424-94.08-120.128-165.632-237.248-165.632z"/></svg>