<svg class="icon" viewBox="0 0 1088 1024" xmlns="http://www.w3.org/2000/svg" width="212.5" height="200"><defs><style/></defs><path d="M597.888 316.928a68.48 68.48 0 0 1-115.072 50.304l-5.504-5.76-13.952-16.32a32 32 0 0 0-45.376-3.328l-3.968 4.16-11.712 14.656a65.664 65.664 0 0 1-116.608-33.856l-.384-7.168V134.4h-29.76c-49.28 0-90.688 41.856-95.168 96.384l-.384 9.728v552.512c0 55.872 38.72 100.864 86.976 105.728l8.576.384H441.6a32 32 0 0 1 5.76 63.488l-5.76.512H255.552c-85.312 0-154.048-70.912-159.232-159.36L96 792.96V240.512c0-89.856 65.472-164.224 149.44-169.792l10.112-.32h60.8l2.624.256 2.688-.256h444.16c82.432 0 153.152 47.04 159.168 112.384l.384 8.96v128a32 32 0 0 1-63.488 5.76l-.512-5.76v-128c0-26.88-35.904-53.76-85.504-57.024l-10.048-.32H597.76l.064 182.528zM935.04 704c23.232 0 42.048 14.336 42.048 32s-18.816 32-42.048 32h-12.416v1.536c-5.76 107.648-90.752 193.6-195.648 193.6-104.832 0-189.888-85.952-195.584-193.6l-.064-1.536h-12.416c-23.168 0-42.048-14.336-42.048-32s18.88-32 42.048-32H935.04zm-76.48 64H595.392c4.864 73.664 62.272 131.2 131.584 131.2 69.312 0 126.72-57.536 131.584-131.136V768zM726.976 375.36c104.896 0 189.888 86.016 195.648 193.6l.064 7.04h4.48c23.232 0 42.048 14.336 42.048 32s-18.816 32-42.048 32H511.04c-23.232 0-42.048-14.336-42.048-32s18.816-32 42.048-32h20.16l.192-7.04c5.76-107.584 90.752-193.6 195.584-193.6zm0 64c-69.312 0-126.72 57.472-131.584 131.072l-.128 5.568h263.488l-.192-5.568c-4.864-73.6-62.272-131.072-131.584-131.072zM349.312 319.68c0 .896.768 1.664 1.664 1.664l.768-.192.576-.448 11.648-14.656A96 96 0 0 1 498.88 290.88l6.848 6.016 6.272 6.656 13.952 16.32a4.48 4.48 0 0 0 6.4.512l1.152-1.6.384-1.92-.064-182.464H349.312v185.216z"/></svg>