<svg class="icon" viewBox="0 0 1024 1024" xmlns="http://www.w3.org/2000/svg" width="200" height="200"><defs><style/></defs><path d="M830.72 96.64a128 128 0 0 1 128 128v574.72a128 128 0 0 1-128 128h-640a128 128 0 0 1-128-128V224.64a128 128 0 0 1 128-128h640zm-704 670.72v32a64 64 0 0 0 56.576 63.488l7.424.448h32A96 96 0 0 0 136 767.744l-9.28-.448zM736 160.64H286.72l-.32 9.856a160 160 0 0 1-149.12 149.12l-10.56.384v383.36A160 160 0 0 1 286.4 852.8l.32 10.496H752l.32-9.792a160 160 0 0 1 142.464-148.608V320l-9.28-.256a160 160 0 0 1-149.12-149.12l-.448-9.856zm158.72 608.896A96 96 0 0 0 816 864v-.704h14.72a64 64 0 0 0 63.616-56.512l.384-7.488zM445.888 325.76l4.48 3.648 62.464 62.528h2.944l61.504-61.44a32 32 0 0 1 48.96 40.768l-3.712 4.48-16.256 16.192h64.512a32 32 0 1 1 0 64h-128v64h128a32 32 0 1 1 0 64h-128v104.64a32 32 0 0 1-63.488 5.76l-.512-5.76V583.872h-128a32 32 0 1 1 0-64h128v-64h-128a32 32 0 1 1 0-64h71.552l-17.28-17.28a32 32 0 0 1 40.832-48.896zM222.72 160.64h-32a64 64 0 0 0-63.552 56.512l-.448 7.488V256a96 96 0 0 0 95.552-86.784l.384-8.512zm608.064 0h-30.72l.448 8.512a96 96 0 0 0 86.336 86.4l7.936.32V224.64a64 64 0 0 0-56.512-63.552l-7.488-.448z"/></svg>