<svg class="icon" viewBox="0 0 1024 1024" xmlns="http://www.w3.org/2000/svg" width="200" height="200"><defs><style/></defs><path d="M517.568 64c25.152 0 64.64 30.336 108.8 78.08l19.072 21.44c29.056 33.664 59.392 73.728 88.512 116.736l19.2 28.992 18.56 29.696 9.024 15.04 17.472 30.208c2.88 5.056 5.632 10.112 8.384 15.168l16 30.208c40.896 80.384 68.608 157.76 68.608 212.8 0 90.624-25.728 167.168-98.816 230.272C719.36 935.68 594.432 960 509.632 960c-104.768 0-259.584-31.936-322.176-120.832l-14.08-20.224-4.48-6.72-8.512-13.888C141.312 764.992 128 723.392 128 642.368c0-47.232 21.568-110.912 54.976-178.816l14.976-29.376a1049.127 1049.127 0 0 1 16.256-29.568l17.28-29.76 9.088-14.784 18.688-29.44 9.6-14.528 19.584-28.672 20.032-27.904a1472 1472 0 0 1 10.048-13.568l20.288-26.304a679.429 679.429 0 0 1 10.24-12.672l20.16-24.32C429.44 112.32 485.888 64 517.568 64zm0 64c-14.848 0-43.328 24.896-77.568 64.128l-17.536 20.8c-2.944 3.648-6.016 7.36-9.024 11.2l-18.56 23.808-18.944 25.536-19.2 26.88-19.008 27.904c-3.2 4.736-6.4 9.536-9.472 14.336l-18.624 29.056a1389.701 1389.701 0 0 0-18.048 29.376l-17.216 29.44C227.008 513.792 192 594.368 192 642.368c0 70.4 8 100.224 31.872 136.96l15.872 22.976C279.424 858.624 395.968 896 509.632 896c88.96 0 189.76-27.584 240.896-71.808 54.08-46.72 76.672-102.336 76.672-181.76 0-34.432-16.512-84.8-42.048-140.736l-13.504-28.352a1362.56 1362.56 0 0 0-30.72-58.432l-16.768-29.44-17.408-29.184-17.92-28.672a1743.808 1743.808 0 0 0-8.96-14.08l-18.24-27.392-9.088-13.248-17.984-25.408-17.664-23.744-17.088-21.76C563.648 156.992 533.12 128 517.568 128zm83.904 298.176a32 32 0 0 1 2.304 40.96l-3.84 4.224-104.384 97.408h110.976a32 32 0 0 1 25.92 50.816l-3.712 4.224-165.184 159.744a32 32 0 0 1-48.256-41.6l3.776-4.48 108.224-104.704H414.528a32 32 0 0 1-25.6-51.2l3.712-4.16L556.224 424.64a32 32 0 0 1 45.248 1.536z"/></svg>