<svg class="icon" viewBox="0 0 1024 1024" xmlns="http://www.w3.org/2000/svg" width="200" height="200"><defs><style/></defs><path d="M672.832 67.072a32 32 0 0 1 31.488 26.24l.512 5.76V128h92.864a128 128 0 0 1 128 128v576a128 128 0 0 1-128 128h-570.88a128 128 0 0 1-128-128V256a128 128 0 0 1 128-128h96.64l.128-28.928a32 32 0 0 1 63.488-5.76l.512 5.76L387.52 128h253.312V99.072a32 32 0 0 1 32-32zm188.8 383.04H162.816V832a64 64 0 0 0 56.576 63.552l7.488.448h570.88a64 64 0 0 0 63.616-56.512l.384-7.488V450.112zm-181.312 248a32 32 0 0 1 5.76 63.488l-5.76.512H344.192a32 32 0 0 1-5.76-63.488l5.76-.512H680.32zm0-122.304a32 32 0 0 1 5.76 63.488l-5.76.512H344.192a32 32 0 0 1-5.76-63.488l5.76-.512H680.32zM323.52 192h-96.704a64 64 0 0 0-63.552 56.512l-.448 7.488v130.112h698.88V256a64 64 0 0 0-56.512-63.552l-7.488-.448h-92.864v36.48a32 32 0 0 1-63.488 5.76l-.512-5.76V192H387.52v36.48a32 32 0 0 1-63.424 5.76l-.512-5.76-.064-36.48z"/></svg>