<svg class="icon" viewBox="0 0 1024 1024" xmlns="http://www.w3.org/2000/svg" width="200" height="200"><defs><style/></defs><path d="M695.838 590.065a30.118 30.118 0 0 1 29.636 24.696l.482 5.422V875.7a30.118 30.118 0 0 1-59.754 5.42l-.482-5.42V620.183a30.118 30.118 0 0 1 30.118-30.118zm147.215-117.94a30.118 30.118 0 0 1 29.636 24.696l.482 5.42v371.472a30.118 30.118 0 0 1-59.754 5.421l-.481-5.421V502.242a30.118 30.118 0 0 1 30.117-30.118zM548.623 642.59a30.118 30.118 0 0 1 29.636 24.697l.482 5.42v200.404a30.118 30.118 0 0 1-59.754 5.42l-.482-5.42V672.708a30.118 30.118 0 0 1 30.118-30.118zM767.157 57.344a30.118 30.118 0 0 1 24.395 12.469c72.584 99.99 109.026 171.67 109.026 220.581 0 95.473-70.837 159.262-165.647 159.262-55.778 0-94.329-16.865-119.627-41.562l-3.374-3.614-1.385 1.446c-24.094 23.913-60.898 40.96-113.845 43.37l-13.613.36c-60.295 0-101.316-17.83-127.458-43.73l-1.385-1.446-3.373 3.614c-23.191 22.649-57.525 38.671-106.015 41.201l-13.552.361c-19.095 0-37.166-2.59-53.911-7.469v300.574c0 18.975 26.865 38.973 64.753 41.743l8.915.302h133.843a30.118 30.118 0 0 1 5.42 59.753l-5.42.482H251.18c-68.849 0-128.301-39.153-133.602-94.329l-.361-7.95V419.538a30.118 30.118 0 0 1 1.265-8.734c-32.828-27.95-52.827-69.693-52.827-120.41 0-48.972 36.503-120.652 109.026-220.582a30.118 30.118 0 0 1 24.396-12.469zm-15.42 60.235h-537.3l-11.565 16.565c-48.248 69.873-73.728 121.193-76.74 150.648l-.3 5.602c0 60.718 42.586 99.027 105.411 99.027 35.057 0 59.453-9.637 76.439-25.48 10.06-9.456 15.3-18.492 17.95-25.78a30.118 30.118 0 0 1 56.621 0l1.928 4.457c3.011 6.205 8.071 13.373 16.444 20.842 17.95 16.083 44.333 25.9 82.522 25.9 38.069 0 64.452-9.817 82.462-25.9 10.421-9.337 15.722-18.191 18.252-25.3a30.118 30.118 0 0 1 56.681 0c2.65 7.29 7.89 16.325 18.01 25.782 16.927 15.842 41.382 25.48 76.319 25.48 62.945 0 105.472-38.31 105.472-99.028 0-28.31-25.54-81.679-77.041-156.25l-11.566-16.565z"/></svg>