<svg class="icon" viewBox="0 0 1024 1024" xmlns="http://www.w3.org/2000/svg" width="200" height="200"><defs><style/></defs><path d="M512 73.92A246.08 246.08 0 0 1 758.08 320h63.552a64 64 0 0 1 63.424 55.872l65.664 512A64 64 0 0 1 887.296 960h-748.16a64 64 0 0 1-63.168-74.24l82.56-512A64 64 0 0 1 221.696 320h44.16A246.08 246.08 0 0 1 512 73.92zM821.632 384H221.696l-82.56 512h748.16l-65.664-512zm-140.16 322.176a32 32 0 0 1 5.76 63.488l-5.76.512H342.528a32 32 0 0 1-5.76-63.488l5.76-.512H681.6zm0-195.52a32 32 0 0 1 5.76 63.488l-5.76.512H342.528a32 32 0 0 1-5.76-63.488l5.76-.512H681.6zM512 137.92A182.08 182.08 0 0 0 329.92 320h364.16A182.08 182.08 0 0 0 512 137.92z"/></svg>