<svg class="icon" viewBox="0 0 1088 1024" xmlns="http://www.w3.org/2000/svg" width="212.5" height="200"><defs><style/></defs><path d="M725.76 400.832a175.168 175.168 0 0 1 95.424 322.048 231.04 231.04 0 0 1 135.68 210.496 32 32 0 0 1-64 0 167.04 167.04 0 1 0-334.144 0 32 32 0 0 1-64 0c0-93.568 55.616-174.208 135.616-210.56a175.168 175.168 0 0 1 95.424-321.984zm-597.504-80.064l.064 489.536c0 47.552 34.56 86.272 78.08 90.624l8.32.448H384a32 32 0 0 1 5.76 63.488l-5.76.512H214.72c-79.872 0-144.768-64-150.016-144.512l-.384-10.56v-579.52a160 160 0 0 1 160-160h211.008a160 160 0 0 1 147.2 97.472l37.632 88.512h186.304c83.328 0 150.4 69.76 150.4 155.136a32 32 0 1 1-64 0c0-47.616-34.56-86.336-78.08-90.688l-8.32-.448H128.256zM725.76 464.832a111.168 111.168 0 1 0 0 222.336 111.168 111.168 0 0 0 0-222.336zM435.328 134.784H224.32a96 96 0 0 0-96 96v25.984h422.336l-27.008-63.488a96 96 0 0 0-79.552-58.112l-8.768-.384z"/></svg>