<svg class="icon" viewBox="0 0 1024 1024" xmlns="http://www.w3.org/2000/svg" width="200" height="200"><defs><style/></defs><path d="M942.528 589.12l1.792 5.248 25.088 102.4a32 32 0 0 1-60.288 20.8l-1.856-5.504-6.72-27.52-134.592 219.072a32 32 0 0 1-54.208.64l-2.688-5.248-47.936-117.184-124.032 156.992a32 32 0 0 1-40.064 8.448l-4.864-3.2A32 32 0 0 1 483.712 904l3.2-4.864 157.952-200a32 32 0 0 1 52.032 2.432l2.752 5.312 44.736 109.504 104.256-169.6-44.288 8.448a32 32 0 0 1-35.84-19.904l-1.536-5.568a32 32 0 0 1 19.904-35.84l5.568-1.6 114.816-21.76a32 32 0 0 1 35.2 18.56zM813.888 61.632a32 32 0 0 1 25.856 13.248c77.056 106.24 115.84 182.4 115.84 234.368 0 101.44-75.264 169.216-176 169.216-59.264 0-100.224-17.92-127.104-44.16l-3.648-3.84-1.408 1.536c-25.6 25.408-64.704 43.52-120.96 46.08l-14.464.448c-64.128 0-107.648-18.944-135.424-46.464l-1.472-1.536-3.584 3.84c-24.64 24.064-61.12 41.088-112.64 43.776l-14.4.384c-17.344 0-33.92-2.048-49.536-5.888v316.608c0 20.16 28.544 41.408 68.8 44.352l9.472.32h142.08a32 32 0 0 1 5.76 63.488l-5.76.512H273.28c-73.152 0-136.32-41.6-141.888-100.224l-.384-8.448V445.76l.256-3.2C92.352 412.928 68.48 366.4 68.48 309.248c0-52.032 38.784-128.192 115.84-234.368a32 32 0 0 1 25.92-13.248zm-16.512 64H226.56l-12.288 17.6c-51.264 74.24-78.336 128.768-81.536 160.064l-.32 5.952c0 64.512 45.184 105.216 112 105.216 37.248 0 63.168-10.24 81.216-27.072 10.688-9.984 16.256-19.648 19.072-27.392a32 32 0 0 1 60.16 0c2.752 7.552 8.32 16.96 19.456 26.88 19.072 17.088 47.168 27.52 87.68 27.52 40.512 0 68.608-10.432 87.68-27.52 11.072-9.92 16.64-19.328 19.392-26.88a32 32 0 0 1 60.224 0c2.816 7.744 8.384 17.408 19.072 27.392 18.048 16.832 43.968 27.072 81.152 27.072 66.88 0 112.064-40.704 112.064-105.216 0-30.08-27.136-86.784-81.856-166.016l-12.352-17.6z"/></svg>