<svg class="icon" viewBox="0 0 1024 1024" xmlns="http://www.w3.org/2000/svg" width="200" height="200"><defs><style/></defs><path d="M626.304 64a96 96 0 0 1 90.56 64h48.128a159.872 159.872 0 0 1 159.424 149.504l.32 10.496v512c0 84.8-65.92 154.24-149.248 159.68l-10.496.32h-511.04A159.872 159.872 0 0 1 94.528 810.496L94.08 800V288c0-84.8 65.92-154.24 149.312-159.68l10.56-.32h48.128a96 96 0 0 1 90.496-64h233.728zM302.08 192h-48.128c-49.792 0-90.688 38.08-95.36 86.784l-.448 9.216v512c0 49.92 38.016 90.88 86.592 95.552l9.216.448h511.04c49.792 0 90.688-38.08 95.36-86.784l.384-9.216V288c0-49.92-37.952-90.88-86.528-95.552l-9.216-.448h-48.128a96 96 0 0 1-90.56 64H392.576a96 96 0 0 1-90.496-64zm434.176 233.344a32 32 0 0 1 3.712 40.832l-3.712 4.48-221.952 221.952a32 32 0 0 1-40.832 3.712l-4.48-3.712L312 535.68a32 32 0 0 1 40.832-48.96l4.416 3.712 134.4 134.4 199.36-199.424a32 32 0 0 1 45.248 0zM626.304 128H392.576a32 32 0 0 0-5.76 63.488l5.76.512h233.728a32 32 0 0 0 5.76-63.488l-5.76-.512z"/></svg>