<svg class="icon" viewBox="0 0 1024 1024" xmlns="http://www.w3.org/2000/svg" width="200" height="200"><defs><style/></defs><path d="M832 96a128 128 0 0 1 128 128v576a128 128 0 0 1-128 128H192A128 128 0 0 1 64 800V224A128 128 0 0 1 192 96h640zm0 64H192a64 64 0 0 0-63.552 56.512L128 224v576a64 64 0 0 0 56.512 63.552L192 864h640a64 64 0 0 0 63.552-56.512L896 800V224a64 64 0 0 0-56.512-63.552L832 160zM384 320.512a128 128 0 0 1 66.88 237.12 177.28 177.28 0 0 1 110.592 164.352 32 32 0 1 1-64 0 113.472 113.472 0 0 0-226.944 0 32 32 0 1 1-64 0c0-74.368 45.696-138.048 110.592-164.48A128 128 0 0 1 384 320.448zM800 672a32 32 0 0 1 5.76 63.488L800 736H639.744a32 32 0 0 1-5.76-63.488l5.76-.512H800zm2.048-160.896a32 32 0 0 1 5.76 63.488l-5.76.512h-160.32a32 32 0 0 1-5.76-63.488l5.76-.512h160.32zM384 384.512a64 64 0 1 0 0 128 64 64 0 0 0 0-128zM793.216 352a32 32 0 0 1 5.76 63.488l-5.76.512h-160.32a32 32 0 0 1-5.76-63.488l5.76-.512h160.32z"/></svg>