<svg class="icon" viewBox="0 0 1024 1024" xmlns="http://www.w3.org/2000/svg" width="200" height="200"><defs><style/></defs><path d="M502.144 61.12a247.04 247.04 0 0 1 8.064 493.888 29.44 29.44 0 0 1-8.064 1.024 377.792 377.792 0 0 0-377.792 377.792 32 32 0 1 1-64 0 441.984 441.984 0 0 1 304.896-420.16 247.04 247.04 0 0 1 136.896-452.48zm267.712 513.728a32 32 0 0 1 31.488 26.24l.512 5.76-.064 126.528h122.176a32 32 0 0 1 5.76 63.488l-5.76.576H801.792v131.712a32 32 0 0 1-63.424 5.76l-.512-5.76-.064-131.776h-125.76a32 32 0 0 1-5.76-63.424l5.76-.512h125.76V606.784a32 32 0 0 1 32-32zM502.144 125.12a183.04 183.04 0 1 0 0 366.016 183.04 183.04 0 0 0 0-366.016z"/></svg>