<svg class="icon" viewBox="0 0 1024 1024" xmlns="http://www.w3.org/2000/svg" width="200" height="200"><defs><style/></defs><path d="M495.616 64a247.04 247.04 0 0 1 8.064 493.824 29.44 29.44 0 0 1-8.064 1.088 377.792 377.792 0 0 0-377.792 377.792 32 32 0 1 1-64 0 441.984 441.984 0 0 1 304.896-420.16A247.04 247.04 0 0 1 495.616 64zM922.24 903.616a32 32 0 0 1 5.76 63.488l-5.76.512H605.632a32 32 0 0 1-5.76-63.488l5.76-.512H922.24zm-.32-135.168a32 32 0 0 1 5.76 63.488l-5.76.512H605.312a32 32 0 0 1-5.76-63.488l5.76-.512H921.92zm0-128a32 32 0 0 1 5.76 63.488l-5.76.512H605.312a32 32 0 0 1-5.76-63.488l5.76-.512H921.92zM495.68 128a183.04 183.04 0 1 0 0 365.952 183.04 183.04 0 0 0 0-365.952z"/></svg>