<svg class="icon" viewBox="0 0 1088 1024" xmlns="http://www.w3.org/2000/svg" width="212.5" height="200"><defs><style/></defs><path d="M832 635.968a32 32 0 0 1 31.488 26.24l.512 5.76v271.488a32 32 0 0 1-63.488 5.76l-.512-5.76V667.968a32 32 0 0 1 32-32zm156.416-125.312a32 32 0 0 1 31.488 26.24l.512 5.76V937.28a32 32 0 0 1-63.488 5.76l-.512-5.76V542.72a32 32 0 0 1 32-32zm-312.832 181.12a32 32 0 0 1 31.488 26.24l.512 5.76v212.928a32 32 0 0 1-63.488 5.76l-.512-5.76V723.84a32 32 0 0 1 32-32zM570.688 64a247.04 247.04 0 0 1 8.064 493.824 29.44 29.44 0 0 1-8.064 1.088 377.792 377.792 0 0 0-377.792 377.792 32 32 0 1 1-64 0 441.984 441.984 0 0 1 304.896-420.16A247.04 247.04 0 0 1 570.688 64zm0 64a183.04 183.04 0 1 0 0 365.952 183.04 183.04 0 0 0 0-365.952z"/></svg>