<svg class="icon" viewBox="0 0 1024 1024" xmlns="http://www.w3.org/2000/svg" width="200" height="200"><defs><style/></defs><path d="M701.184 553.344A192 192 0 0 1 848.256 868.8l42.176 47.232a32 32 0 0 1-43.52 46.528l-4.224-3.904-43.2-48.384a192 192 0 1 1-98.304-356.992zm-202.24-492.16a247.04 247.04 0 0 1 8 493.824 29.44 29.44 0 0 1-8.064 1.088 377.792 377.792 0 0 0-377.792 377.792 32 32 0 1 1-64 0 441.984 441.984 0 0 1 304.896-420.224A247.04 247.04 0 0 1 498.88 61.184zm202.24 556.16a128 128 0 1 0 0 256 128 128 0 0 0 0-256zm-202.24-492.16a183.04 183.04 0 1 0 0 365.952 183.04 183.04 0 0 0 0-365.952z"/></svg>