<svg class="icon" viewBox="0 0 1024 1024" xmlns="http://www.w3.org/2000/svg" width="200" height="200"><defs><style/></defs><path d="M509.632 64a247.04 247.04 0 0 1 8.064 493.824 29.44 29.44 0 0 1-8.064 1.088A377.792 377.792 0 0 0 131.84 936.704a32 32 0 1 1-64 0 441.984 441.984 0 0 1 304.896-420.16A247.04 247.04 0 0 1 509.632 64zm403.584 516.992l5.632.576a32 32 0 0 1 24.192 20.352l1.536 5.568 19.2 108.8a32 32 0 0 1-61.568 16.704l-1.472-5.568-4.992-28.032L728.32 895.424a32 32 0 0 1-51.584-4.032l-2.56-5.312-29.824-77.504-139.072 146.56a32 32 0 0 1-40.704 4.8l-4.48-3.584a32 32 0 0 1-4.8-40.768l3.584-4.48 173.952-183.296a32 32 0 0 1 50.56 5.44l2.56 5.12 28.608 74.56L847.808 656.96l-38.528 6.848a32 32 0 0 1-16.704-61.504l5.568-1.536 109.312-19.2 5.76-.576zM509.632 128a183.04 183.04 0 1 0 0 365.952 183.04 183.04 0 0 0 0-365.952z"/></svg>