<svg class="icon" viewBox="0 0 1024 1024" xmlns="http://www.w3.org/2000/svg" width="200" height="200"><defs><style/></defs><path d="M804.544 64a128 128 0 0 1 128 128v640a128 128 0 0 1-128 128h-578.56a128 128 0 0 1-128-128V192a128 128 0 0 1 128-128h578.56zm64 639.36h-706.56V832a64 64 0 0 0 56.512 63.552l7.424.448h578.624a64 64 0 0 0 63.616-56.512l.32-7.488V703.36zm-520 64a32 32 0 0 1 5.76 63.488l-5.76.512h-64a32 32 0 0 1-5.76-63.488l5.76-.512h64zm520-383.232h-706.56V639.36h706.56V384.128zm-520 95.872a32 32 0 0 1 5.76 63.488l-5.76.512h-64a32 32 0 0 1-5.76-63.488l5.76-.512h64zM804.48 128H225.92a64 64 0 0 0-63.616 56.512L161.92 192v128.128h706.624V192a64 64 0 0 0-56.512-63.552l-7.488-.448zm-455.936 96a32 32 0 0 1 5.76 63.488l-5.76.512h-64a32 32 0 0 1-5.76-63.488l5.76-.512h64z"/></svg>