<svg class="icon" viewBox="0 0 1024 1024" xmlns="http://www.w3.org/2000/svg" width="200" height="200"><defs><style/></defs><path d="M921.984 896.256a32 32 0 0 1 5.76 63.488l-5.76.512H542.4a32 32 0 0 1-5.76-63.488l5.76-.512h379.52zm-108.8-834.56A32 32 0 0 1 839.04 74.88c77.12 106.24 115.84 182.4 115.84 234.368 0 101.44-75.264 169.216-176 169.216-59.264 0-100.224-17.92-127.04-44.16l-3.648-3.84L646.72 432c-25.6 25.408-64.64 43.52-120.96 46.08l-14.464.384c-64.064 0-107.648-18.944-135.424-46.464l-1.472-1.536-3.584 3.84c-24.576 24.064-61.056 41.088-112.64 43.776l-14.4.384c-20.352 0-39.68-2.752-57.472-8v318.72c0 20.16 28.608 41.408 68.864 44.352l9.472.32h142.144a32 32 0 0 1 5.76 63.488l-5.76.512h-142.08c-73.216 0-136.32-41.6-141.952-100.224l-.384-8.448V445.76a32 32 0 0 1 1.28-8.832c-34.816-29.696-55.936-73.92-55.936-127.68 0-52.032 38.784-128.192 115.84-234.368a32 32 0 0 1 25.92-13.248zm108.8 676.736a32 32 0 0 1 5.76 63.488l-5.76.512H542.4a32 32 0 0 1-5.76-63.488l5.76-.512h379.52zm0-164.48a32 32 0 0 1 5.76 63.488l-5.76.512H542.4a32 32 0 0 1-5.76-63.488l5.76-.512h379.52zm-125.248-448.32h-570.88l-12.288 17.6c-51.2 74.24-78.336 128.768-81.536 160.064l-.32 5.952c0 64.512 45.248 105.216 112.064 105.216 37.184 0 63.104-10.24 81.152-27.072 10.688-9.984 16.32-19.648 19.072-27.392a32 32 0 0 1 60.224 0c2.752 7.552 8.32 16.96 19.456 26.88 19.072 17.088 47.104 27.52 87.68 27.52 40.448 0 68.544-10.432 87.68-27.52 11.072-9.92 16.64-19.328 19.392-26.88a32 32 0 0 1 60.16 0c2.816 7.744 8.448 17.408 19.136 27.392 18.048 16.832 43.968 27.072 81.152 27.072 66.816 0 112-40.704 112-105.216 0-30.08-27.136-86.784-81.792-166.016l-12.352-17.6z"/></svg>