<svg class="icon" viewBox="0 0 1024 1024" xmlns="http://www.w3.org/2000/svg" width="32" height="32"><defs><style/></defs><path d="M469.312 73.6a96 96 0 0 1 114.304-7.04l7.936 5.76 347.52 280.832a32 32 0 0 1 11.328 19.2l.512 5.76v156.736a32 32 0 0 1-63.488 5.76l-.512-5.76-.064-141.568-335.552-271.168a32 32 0 0 0-36.096-2.816l-4.672 3.2L171.52 408.512a32 32 0 0 1-45.312-44.8l4.096-4.096L469.312 73.6z"/><path d="M150.912 352a32 32 0 0 1 31.488 26.24l.512 5.76v448a32 32 0 0 0 26.24 31.488l5.76.512h160.192a32 32 0 0 1 5.76 63.488l-5.76.512H214.912a96 96 0 0 1-95.552-86.784l-.448-9.216V384a32 32 0 0 1 32-32zm472.832 258.368l-4.928 4.48L474.56 773.824a37.248 37.248 0 0 0-9.6 27.264 37.12 37.12 0 0 0 6.976 26.24l3.968 4.544 153.152 152.064a37.312 37.312 0 0 0 56.96-47.872l-4.352-5.12-88.832-88.256H896c18.56 0 33.92-13.504 36.864-31.232l.448-6.08c0-18.56-13.504-33.92-31.232-36.864l-6.08-.448H580.608l93.44-102.976a37.312 37.312 0 0 0-50.304-54.72z"/></svg>