<svg class="icon" viewBox="0 0 1024 1024" xmlns="http://www.w3.org/2000/svg" width="32" height="32"><defs><style/></defs><path d="M466.466 78.507a102.4 102.4 0 0 1 121.924-7.51l8.465 6.144 370.688 299.554a34.133 34.133 0 0 1 12.084 20.48l.546 6.144v167.186a34.133 34.133 0 0 1-67.72 6.144l-.547-6.144-.068-151.006-357.922-289.246a34.133 34.133 0 0 0-38.503-3.004l-4.983 3.413-361.61 305.084a34.133 34.133 0 0 1-48.332-47.787l4.369-4.369L466.466 78.507z"/><path d="M126.84 375.467a34.133 34.133 0 0 1 33.587 27.989l.546 6.144v477.867a34.133 34.133 0 0 0 27.99 33.587l6.143.546h170.872a34.133 34.133 0 0 1 6.144 67.72l-6.144.547H195.106a102.4 102.4 0 0 1-101.922-92.57l-.478-9.83V409.6a34.133 34.133 0 0 1 34.133-34.133zm607.3 207.326l5.256 4.778L893.27 757.146a39.663 39.663 0 0 1 10.309 25.258l-.137 4.096a38.707 38.707 0 0 1-7.373 27.648l-4.232 4.915-163.362 162.202a39.8 39.8 0 0 1-60.758-51.063l4.642-5.462 94.755-94.14h-323.38a39.8 39.8 0 0 1-39.321-33.314l-.478-6.485c0-19.797 14.404-36.181 33.314-39.322l6.485-.477 336.35-.069-99.67-109.772a39.8 39.8 0 0 1 53.727-58.368z"/></svg>