<svg class="icon" viewBox="0 0 1088 1024" xmlns="http://www.w3.org/2000/svg" width="212.5" height="200"><defs><style/></defs><path d="M798.656 128.64a160 160 0 0 1 159.616 149.44l.384 10.496V748.48a160 160 0 0 1-149.504 159.616l-10.496.384h-451.52v21.12a32 32 0 0 1-21.504 30.208L320 961.28c-160.64 24.768-251.2 1.728-251.2-85.888v1.088h-6.208V280.512c0-81.664 71.936-146.496 160.832-151.552l11.2-.32h564.032zM127.808 386.88L132.8 875.2c0 26.368 43.904 39.68 147.648 26.88l2.688-.448.448-453.376-.256-5.312a24.768 24.768 0 0 0-20.16-21.12l-11.712-1.984-57.728-9.536a181.76 181.76 0 0 1-56.704-18.176l-9.216-5.248zm670.848-194.368H234.624c-57.28 0-102.72 36.16-107.584 80l-.384 5.312c8.448 40.576 32.32 62.208 77.12 69.312 11.2 1.728 21.696 3.456 31.424 5.056l39.168 6.656c38.08 6.848 67.2 37.44 72.576 77.568l.64 9.472v162.304l-.384 236.16h451.456a96 96 0 0 0 95.552-86.72l.448-9.216v-459.84a96 96 0 0 0-86.784-95.552l-9.216-.448zM683.52 356.928a32 32 0 0 1 2.304 40.96l-3.84 4.288L558.08 517.76h133.888a32 32 0 0 1 25.92 50.88l-3.648 4.16-184.96 178.88a32 32 0 0 1-48.256-41.6l3.776-4.48 128-123.84H476.992a32 32 0 0 1-25.6-51.2l3.776-4.16 183.168-171.072a32 32 0 0 1 45.248 1.536z"/></svg>