<svg class="icon" viewBox="0 0 1024 1024" xmlns="http://www.w3.org/2000/svg" width="200" height="200"><defs><style/></defs><path d="M679.68 383.168A109.248 109.248 0 0 1 788.16 505.6c-4.864 40-11.136 72.32-18.816 96.896a483.2 483.2 0 0 1 79.36-14.72 113.28 113.28 0 0 1 126.144 112.64 110.656 110.656 0 0 1-124.352 109.76c-27.072-3.392-50.56-7.424-70.528-12.16 3.392 16.064 6.144 34.112 8.32 54.144a111.936 111.936 0 0 1-111.232 124.096 109.248 109.248 0 0 1-108.48-122.432c2.496-20.544 5.312-39.04 8.576-55.552-19.52 5.12-42.688 9.024-69.248 12.032a113.28 113.28 0 0 1-126.08-112.64 110.656 110.656 0 0 1 124.288-109.76c32.192 4.032 59.392 8.96 81.472 14.912-8.512-24.32-14.848-56.192-19.2-95.616A111.936 111.936 0 0 1 679.68 383.168zm-15.36 362.56a111.68 111.68 0 0 1-7.808 9.92l1.6-2.56c-8.64 11.904-18.88 49.536-26.048 108.48l-.32 5.44c0 24.96 20.288 45.248 45.312 45.248l5.12-.32a47.936 47.936 0 0 0 42.496-52.8c-5.376-49.152-14.016-82.112-22.08-96.832a89.92 89.92 0 0 1-13.568-15.552c-9.792-8.448-17.024-8.448-24.704-1.024zM320.64 69.504l2.496.192 2.56-.192h414.08c77.824 0 144.832 44.608 150.464 106.88l.384 8.576v233.6a32 32 0 0 1-63.488 5.76l-.512-5.76v-233.6c0-23.808-32.192-48-77.056-51.072l-9.856-.384H325.76l-2.496-.192-2.496.192h-56.576c-44.672 0-82.304 37.696-86.528 86.848l-.448 9.344v512.576c0 50.432 35.008 91.072 78.72 95.68l8.256.448h117.76a32 32 0 0 1 5.696 63.488l-5.76.512h-117.76c-80.512 0-145.472-66.56-150.592-149.696l-.32-10.432v-512.64c0-84.352 61.76-154.304 140.992-159.744l9.984-.384h56.576zm171.712 581.568a46.656 46.656 0 0 0-46.336 52.224 49.28 49.28 0 0 0 54.592 43.456c55.168-6.272 89.536-16.704 99.968-25.728l5.12-4.608.512-.832c2.88-4.032 5.888-7.68 9.024-11.136 5.504-9.984 1.536-17.92-10.688-26.944-10.752-7.872-42.624-17.152-92.416-24.192l-14.016-1.92a46.208 46.208 0 0 0-5.76-.32zm363.52.32c-55.168 6.272-89.472 16.64-99.968 25.664-14.4 12.48-19.392 21.504-16.128 30.016 2.752 2.56 5.376 5.44 7.936 8.512l3.2 4.224 1.088.768c11.712 8.64 48.576 18.88 106.432 26.112a46.656 46.656 0 0 0 52.096-51.84 49.28 49.28 0 0 0-54.592-43.52zM679.68 447.168a47.936 47.936 0 0 0-47.616 53.12c6.144 56.32 16.576 91.456 25.6 102.08 18.368 21.632 28.16 21.632 40.96 3.968 8.576-11.904 18.816-49.536 25.984-108.48l.32-5.44a45.248 45.248 0 0 0-45.248-45.248zM432 453.952a32 32 0 0 1 5.76 63.488l-5.76.512H278.4a32 32 0 0 1-5.76-63.488l5.76-.512H432zm101.12-159.04a32 32 0 0 1 5.76 63.488l-5.76.512H278.336a32 32 0 0 1-5.76-63.488l5.76-.512h254.72z"/></svg>