<svg class="icon" viewBox="0 0 1024 1024" xmlns="http://www.w3.org/2000/svg" width="32" height="32"><defs><style/></defs><path d="M593.911 17.954l8.996 6.582L1000.03 345.38a36.568 36.568 0 0 1 13.384 32.033l.146 3.218v511.945a109.703 109.703 0 0 1-99.17 109.19l-10.532.513H172.507a109.703 109.703 0 0 1-109.19-99.098l-.513-10.605V380.631l.512-6.144a36.568 36.568 0 0 1 12.945-22.233L463.146 25.926A109.703 109.703 0 0 1 593.91 17.88zm-78.254 60.19l-5.34 3.657L135.94 397.598v494.978a36.568 36.568 0 0 0 29.986 35.983l6.582.585h731.35a36.568 36.568 0 0 0 35.983-29.986l.585-6.582V391.382l-383.52-310.02a36.568 36.568 0 0 0-41.248-3.218zM365.73 673.171a73.135 73.135 0 0 1 73.135 73.135v73.135a73.135 73.135 0 0 1-73.135 73.135h-73.135a73.135 73.135 0 0 1-73.135-73.135v-73.135a73.135 73.135 0 0 1 73.135-73.135h73.135zm0 73.135h-73.135v73.135h73.135v-73.135zm438.81-73.135a36.568 36.568 0 0 1 6.582 72.55l-6.582.585H585.135a36.568 36.568 0 0 1-6.582-72.55l6.582-.585H804.54zm-438.81-292.54a73.135 73.135 0 0 1 73.135 73.135V526.9a73.135 73.135 0 0 1-73.135 73.135h-73.135A73.135 73.135 0 0 1 219.46 526.9v-73.135a73.135 73.135 0 0 1 73.135-73.135h73.135zm438.81 109.702a36.568 36.568 0 0 1 6.582 72.55l-6.582.585H585.135a36.568 36.568 0 0 1-6.582-72.55l6.582-.585H804.54zm-438.81-36.567h-73.135V526.9h73.135v-73.135z"/></svg>