<svg class="icon" viewBox="0 0 1024 1024" xmlns="http://www.w3.org/2000/svg" width="200" height="200"><defs><style/></defs><path d="M515.253 113.724a428.393 428.393 0 0 1 428.393 428.394c0 175.887-159.202 44.092-244.796 122.398-37.707 34.515 7.53 68.668 0 183.597-13.553 113.965-113.604 121.796-171.49 122.338h-12.107a428.393 428.393 0 1 1 0-856.727zm0 60.236a368.158 368.158 0 0 0-13.674 736.075l13.493.24h11.746c73.909-.722 105.894-16.082 111.917-66.138 1.687-25.66.602-46.501-3.012-69.03l-3.072-17.287c-.602-3.132-4.578-21.504-5.602-26.804-2.289-12.048-3.553-21.685-3.614-31.805-.3-26.985 8.433-50.959 26.745-71.138l8.011-8.01c34.696-31.745 74.39-43.13 125.109-43.551l18.311.301 49.996 2.65c17.347.603 24.817-.18 28.009-1.807l.783-1.204c1.205-2.771 3.012-11.445 3.012-34.334A368.158 368.158 0 0 0 515.253 173.96zm-82.221 418.454a120.47 120.47 0 1 1 0 240.941 120.47 120.47 0 0 1 0-240.94zm0 60.235a60.235 60.235 0 1 0 0 120.471 60.235 60.235 0 0 0 0-120.47z"/></svg>