<svg class="icon" viewBox="0 0 1024 1024" xmlns="http://www.w3.org/2000/svg" width="200" height="200"><defs><style/></defs><path d="M789.952 623.552l43.968 43.328-169.472 172.032-43.904-43.392 169.408-171.968zm-544.64 9.216L407.68 793.6l-43.456 43.84-162.432-160.832 43.456-43.84zm119.04-424.32l43.52 43.776-178.24 177.856-44.032-43.328 178.752-178.24zm249.024 38.208l43.328-43.968 177.6 174.848-43.328 43.968-177.6-174.848z"/><path d="M509.312 43.648a166.4 166.4 0 1 1 0 332.736 166.4 166.4 0 0 1 0-332.736zm0 61.76a104.64 104.64 0 1 0 0 209.28 104.64 104.64 0 0 0 0-209.28zM209.92 368.064a166.4 166.4 0 1 1 0 332.736 166.4 166.4 0 0 1 0-332.736zm0 61.76a104.64 104.64 0 1 0 0 209.28 104.64 104.64 0 0 0 0-209.28zm604.736-74.88a166.4 166.4 0 1 1 0 332.672 166.4 166.4 0 0 1 0-332.672zm0 61.696a104.64 104.64 0 1 0 0 209.28 104.64 104.64 0 0 0 0-209.28zM509.312 651.008a166.4 166.4 0 1 1 0 332.672 166.4 166.4 0 0 1 0-332.672zm0 61.696a104.64 104.64 0 1 0 0 209.28 104.64 104.64 0 0 0 0-209.28z"/></svg>