<svg class="icon" viewBox="0 0 1024 1024" xmlns="http://www.w3.org/2000/svg" width="200" height="200"><defs><style/></defs><path d="M628.16 64a96 96 0 0 1 90.56 64h48.128a159.872 159.872 0 0 1 159.36 149.504l.384 10.496v512c0 84.8-65.92 154.24-149.248 159.68l-10.496.32H255.744a159.872 159.872 0 0 1-159.36-149.504L96 800V288c0-84.8 65.92-154.24 149.248-159.68l10.496-.32h48.128a96 96 0 0 1 90.56-64H628.16zm0 192H394.432a96 96 0 0 1-90.56-64h-48.128c-49.728 0-90.688 38.08-95.36 86.784L160 288v512c0 49.92 38.016 90.88 86.528 95.552l9.216.448h511.104c49.728 0 90.688-38.08 95.36-86.784l.384-9.216V288c0-49.92-38.016-90.88-86.528-95.552l-9.216-.448h-48.192a96 96 0 0 1-90.496 64zm47.552 128.64a32 32 0 0 1 31.488 26.24l.512 5.76v323.008a32 32 0 0 1-63.488 5.76l-.512-5.76V416.576a32 32 0 0 1 32-32zM352.64 501.888a32 32 0 0 1 31.488 26.24l.512 5.76v202.88a32 32 0 0 1-63.488 5.76l-.512-5.76v-202.88a32 32 0 0 1 32-32zm158.656-62.784a32 32 0 0 1 31.488 26.24l.512 5.76v264.32a32 32 0 0 1-63.488 5.76l-.512-5.76v-264.32a32 32 0 0 1 32-32zM628.16 128H394.432a32 32 0 0 0-5.76 63.488l5.76.512H628.16a32 32 0 0 0 5.76-63.488l-5.76-.512z"/></svg>