<svg class="icon" viewBox="0 0 1024 1024" xmlns="http://www.w3.org/2000/svg" width="200" height="200"><defs><style/></defs><path d="M915.904 520.064c40.64 23.488 54.528 75.392 31.104 115.968L791.744 905.024l-13.056 8.192-24.128 14.528-21.44 11.904c-36.992 19.648-60.672 26.368-71.168 20.352-15.232-8.768-20.992-55.424-17.28-139.904L800 551.168a84.864 84.864 0 0 1 115.904-31.104zM773.888 73.856c85.12 0 155.904 61.12 161.472 139.776l.32 9.92V415.36a32 32 0 0 1-63.488 5.76l-.512-5.76V223.552c0-43.84-38.208-81.088-88.32-85.312l-9.472-.384H259.52c-51.456 0-92.672 34.624-97.344 77.568l-.448 8.128v588.736c0 43.84 38.208 81.088 88.256 85.312l9.536.384h193.152a32 32 0 0 1 5.76 63.488l-5.76.512H259.52c-85.12 0-155.968-61.12-161.472-139.776l-.32-9.92V223.552c0-80.064 67.328-144.384 151.232-149.376l10.56-.32h514.368zm83.968 505.856l-2.432 3.456L708.032 838.4l-.256 11.968-.192 12.416.192 17.792 15.552-8.704 20.864-12.672 147.392-255.168a20.864 20.864 0 0 0-4.224-26.048l-3.456-2.432a20.864 20.864 0 0 0-26.048 4.16zM549.12 643.52a32 32 0 0 1 5.76 63.488l-5.76.512H357.952a32 32 0 0 1-5.76-63.488l5.76-.512H549.12zm64-158.72a32 32 0 0 1 5.76 63.488l-5.76.512H353.216a32 32 0 0 1-5.76-63.488l5.76-.512H613.12zm65.152-161.28a32 32 0 0 1 5.76 63.488l-5.76.512h-325.12a32 32 0 0 1-5.76-63.488l5.76-.512h325.12z"/></svg>