<svg class="icon" viewBox="0 0 1024 1024" xmlns="http://www.w3.org/2000/svg" width="200" height="200"><defs><style/></defs><path d="M506.752 58.88a248.96 248.96 0 0 1 248.96 248.96c0 84.608-36.48 138.048-100.864 183.04-34.624 24.192-42.624 73.856-24 149.12h195.84a128 128 0 0 1 128 128v64a128 128 0 0 1-128 128h-640a128 128 0 0 1-128-128v-64a128 128 0 0 1 128-128h200.064c23.68-75.264 18.24-124.928-16.384-149.12-64.512-44.992-112.576-98.432-112.576-183.04a248.96 248.96 0 0 1 248.96-248.96zm320 645.12h-640a64 64 0 0 0-63.616 56.512l-.384 7.488v64a64 64 0 0 0 56.512 63.552l7.488.448h640a64 64 0 0 0 63.552-56.512l.448-7.488v-64a64 64 0 0 0-56.576-63.552l-7.424-.448zm-320-581.12a184.96 184.96 0 0 0-184.96 184.96c0 51.776 25.024 88.64 85.12 130.56 56.96 39.68 70.144 104.064 49.728 189.12l-1.92 7.488h109.44l-.832-3.84c-16.064-83.072-3.328-146.24 46.272-186.24l8.576-6.528c52.608-36.672 73.472-72.64 73.472-130.56a184.96 184.96 0 0 0-184.96-184.96z"/></svg>