<svg class="icon" viewBox="0 0 1024 1024" xmlns="http://www.w3.org/2000/svg" width="200" height="200"><defs><style/></defs><path d="M438.08 64l118.72.32 51.648.64 55.616 1.344 22.016.96c145.6 12.928 242.752 190.848 244.16 223.168V832a128 128 0 0 1-128 128h-576a128 128 0 0 1-128-128V193.6a128 128 0 0 1 126.528-128L353.6 64.448 438.08 64zm-26.752 64.128l-151.936 1.152-33.92.32a64 64 0 0 0-62.848 56.64l-.384 7.36V832a64 64 0 0 0 56.512 63.552l7.488.448h576a64 64 0 0 0 63.552-56.512l.448-7.488V310.144h-179.2a96 96 0 0 1-95.488-86.72l-.448-9.28v-85.312l-35.072-.512-18.88-.128-125.824-.064zM514.24 449.984a32 32 0 0 1 31.488 26.24l.512 5.76v188.032a32 32 0 0 1-63.488 5.76l-.512-5.76V481.984a32 32 0 0 1 32-32zm158.08 6.336l4.224 3.84 86.976 93.44a32 32 0 0 1 3.712 38.72l-3.712 4.864-88.256 94.656a32 32 0 0 1-50.368-39.04l3.584-4.608 67.84-72.832-66.56-71.552a32 32 0 0 1-2.304-40.96l3.84-4.288a32 32 0 0 1 40.96-2.24zm-273.92 2.24a32 32 0 0 1 5.12 40.704l-3.52 4.48-67.904 72.896 66.56 71.68a32 32 0 0 1 2.304 40.896l-3.84 4.288a32 32 0 0 1-40.96 2.24l-4.288-3.84-86.976-93.44a32 32 0 0 1-3.712-38.72l3.712-4.864 88.384-94.72a32 32 0 0 1 45.184-1.6zm256.64-328.384v83.968a32 32 0 0 0 26.24 31.488l5.76.512h155.648c-33.152-45.312-96-103.04-152.32-113.728l-9.088-1.344-26.24-.896z"/></svg>