<svg class="icon" viewBox="0 0 1024 1024" xmlns="http://www.w3.org/2000/svg" width="200" height="200"><defs><style/></defs><path d="M724.028 64.09c80.113 0 146.733 57.525 151.914 131.614l.361 9.337v180.525a30.118 30.118 0 0 1-59.753 5.421l-.482-5.42V205.04c0-41.321-35.96-76.318-83.125-80.294l-8.915-.421H239.857c-48.43 0-87.22 32.647-91.558 73.065l-.482 7.65v554.044c0 41.322 35.96 76.318 83.125 80.354l8.915.361h181.85a30.118 30.118 0 0 1 5.421 59.754l-5.42.482H239.856c-80.113 0-146.733-57.525-151.913-131.614l-.362-9.337V205.041c0-75.354 63.428-135.89 142.336-140.65l9.939-.3h484.171zm-2.83 406.107a130.59 130.59 0 0 1 74.872 237.628 178.357 178.357 0 0 1 103.665 162.033 30.118 30.118 0 1 1-60.236 0 118.302 118.302 0 1 0-236.664 0 30.118 30.118 0 1 1-60.235 0c0-71.8 42.465-133.783 103.664-162.093a130.59 130.59 0 0 1 74.873-237.568zm0 60.235a70.355 70.355 0 1 0 0 140.77 70.355 70.355 0 0 0 0-140.77zm-208.776 69.873a30.118 30.118 0 0 1 5.42 59.753l-5.42.482H332.499a30.118 30.118 0 0 1-5.421-59.753l5.42-.482h179.924zm60.295-149.384a30.118 30.118 0 0 1 5.421 59.754l-5.42.482H327.98a30.118 30.118 0 0 1-5.421-59.754l5.421-.482h244.736zm61.26-151.793a30.118 30.118 0 0 1 5.42 59.754l-5.42.482H327.98a30.118 30.118 0 0 1-5.421-59.754l5.421-.482h305.995z"/></svg>