<svg class="icon" viewBox="0 0 1024 1024" xmlns="http://www.w3.org/2000/svg" width="200" height="200"><defs><style/></defs><path d="M800 129.92a32 32 0 0 1 5.76 63.552l-5.76.512H542.848v127.36l256 .064a128 128 0 0 1 128 128v384a128 128 0 0 1-128 128h-576a128 128 0 0 1-128-128v-384a128 128 0 0 1 128-128h256V193.92H224a32 32 0 0 1-5.76-63.488l5.76-.512h576zm-1.152 255.488h-576a64 64 0 0 0-63.616 56.576l-.384 7.424v384a64 64 0 0 0 56.512 63.616l7.488.384V727.232c0-78.08 59.84-142.08 135.744-147.328l10.048-.32h284.416c77.248 0 140.352 60.8 145.472 137.6l.32 10.048v170.24a64 64 0 0 0 63.552-56.576l.448-7.488v-384a64 64 0 0 0-56.576-63.552l-7.424-.448zM391.808 643.52H368.64a82.56 82.56 0 0 0-81.408 75.136l-.384 8.576v170.176h90.112a808.64 808.64 0 0 1-8.832-118.08c0-44.608 7.936-89.92 23.68-135.808zm176.64 0H460.16l-3.84 9.728a359.68 359.68 0 0 0-24.128 126.08c0 38.528 3.2 77.888 9.6 118.08h140.736l.512-3.712c6.592-54.976 9.92-96.96 9.92-125.696 0-29.248-7.296-68.48-22.08-117.184l-2.304-7.296zm84.608 0l-17.6.128c14.208 49.216 21.44 90.56 21.44 124.352 0 30.912-3.328 73.984-9.92 129.344h87.872V727.232c0-43.392-32.32-78.976-73.472-83.2l-8.32-.448z"/></svg>