<svg class="icon" viewBox="0 0 1024 1024" xmlns="http://www.w3.org/2000/svg" width="200" height="200"><defs><style/></defs><path d="M767.872 66.56c84.352 0 154.304 61.696 159.808 140.736l.32 9.984v133.44a32 32 0 0 1-63.488 5.76l-.512-5.76V217.28c0-44.544-37.696-82.048-86.784-86.272l-9.344-.448H259.84c-50.496 0-91.136 34.88-95.68 78.464l-.448 8.256v593.28c0 44.48 37.632 81.984 86.784 86.272l9.344.384h139.712a32 32 0 0 1 5.76 63.488l-5.76.512H259.904c-84.416 0-154.368-61.632-159.808-140.672l-.32-9.984V217.28c0-80.448 66.56-145.28 149.696-150.4l10.432-.32h507.968zm-32.64 334.08c99.008 0 160.256 70.848 160.256 158.336 0 49.024-4.864 92.416-51.904 121.344-9.664 24.768-1.792 41.6 11.328 49.472 3.072 1.856 6.848 3.712 11.072 5.632l29.44 12.8c24 10.56 49.152 23.68 56.192 41.664 1.472 3.776 2.752 9.216 3.84 16.384l1.92 16.512 1.344 21.056.896 25.6.384 21.504-.064 21.76A47.808 47.808 0 0 1 912.064 960H576a64 64 0 0 1-64-64V789.888c0-24.704 21.632-34.688 46.08-41.6l27.84-6.912c11.968-3.072 22.912-6.4 30.4-11.52a44.608 44.608 0 0 0 16.32-48.96C588.928 651.904 576 610.752 576 558.976c0-87.488 60.224-158.336 159.296-158.336zm0 64c-59.264 0-95.36 37.632-95.36 94.336 0 33.664 6.08 51.2 22.272 64.32l5.76 4.224a64 64 0 0 1 26.24 35.712c13.056 45.76-4.608 94.208-41.92 119.488-12.16 8.32-24.192 13.248-40.448 17.92l-10.304 2.752-25.6 6.4V896H896l-.32-24.448-.704-23.552-1.152-17.92-1.344-11.776-2.688-1.664-7.424-3.968a227.52 227.52 0 0 0-4.48-2.176l-7.552-3.456-30.464-13.184-12.288-6.016a141.568 141.568 0 0 1-5.376-3.072c-43.008-25.6-57.92-77.12-38.208-127.68a64 64 0 0 1 19.328-26.496l6.784-4.8c17.088-10.496 21.44-23.04 21.44-66.816 0-53.056-32.512-89.792-86.016-93.952l-10.24-.384zM425.344 643.52a32 32 0 0 1 5.76 63.488l-5.76.512H287.552a32 32 0 0 1-5.76-63.488l5.76-.512h137.792zm63.04-158.976a32 32 0 0 1 5.76 63.488l-5.76.512H287.552a32 32 0 0 1-5.76-63.488l5.76-.512H488.32zM640 316.096a32 32 0 0 1 5.76 63.488l-5.76.512H287.552a32 32 0 0 1-5.76-63.488l5.76-.512H640z"/></svg>