<svg class="icon" viewBox="0 0 1024 1024" xmlns="http://www.w3.org/2000/svg" width="200" height="200"><defs><style/></defs><path d="M672 72.32a296 296 0 0 1 100.992 574.4l-2.304.512V704H832a128 128 0 0 1 127.68 118.4l.32 9.6a128 128 0 0 1-128 128H191.68a128 128 0 1 1 0-256h.256L192 232.32A160 160 0 0 1 341.504 72.704l10.496-.32h320zM832 768H191.68a64 64 0 1 0 0 128H832a64 64 0 1 0 0-128zM672 344.064c-16.128 0-31.616 16.96-34.368 41.088l-.384 7.424V704h69.44V392.576c0-27.968-16.96-48.512-34.688-48.512zM488.32 136.32l-136.32.128a96 96 0 0 0-95.552 86.72l-.448 9.216L255.936 704h317.312v-56.96a32.192 32.192 0 0 1-5.632-1.6 296.064 296.064 0 0 1-79.36-509.184zm183.68.128a232 232 0 0 0-98.752 441.984V392.576c0-60.928 42.752-112.512 98.752-112.512 53.056 0 94.208 46.272 98.368 102.976l.384 9.536v185.792A232.064 232.064 0 0 0 672 136.384z"/></svg>