<svg class="icon" viewBox="0 0 1024 1024" xmlns="http://www.w3.org/2000/svg" width="200" height="200"><defs><style/></defs><path d="M274.816 71.936l4.352 3.84L512 319.744 744.96 78.08a32 32 0 0 1 49.728 39.872l-3.648 4.48-234.816 243.712 200.448 210.112h4.928a198.4 198.4 0 1 1-78.08 15.936L511.744 412.288 339.136 591.616a198.4 198.4 0 1 1-76.736-15.36h2.496l202.688-210.304-234.752-246.016a32 32 0 0 1 41.984-48zM761.6 640.256a134.4 134.4 0 1 0 0 268.8 134.4 134.4 0 0 0 0-268.8zm-499.2 0a134.4 134.4 0 1 0 0 268.8 134.4 134.4 0 0 0 0-268.8z"/></svg>