<svg class="icon" viewBox="0 0 1024 1024" xmlns="http://www.w3.org/2000/svg" width="200" height="200"><defs><style/></defs><path d="M356.48 63.552a96 96 0 0 1 69.952 30.272l71.488 76.096a32 32 0 0 0 23.296 10.048h279.36a160 160 0 0 1 160 160v460.48a160 160 0 0 1-160 160H230.08a160 160 0 0 1-160-160V223.552a160 160 0 0 1 160-160zm0 64h-126.4a96 96 0 0 0-96 96v576.896a96 96 0 0 0 96 96h570.56a96 96 0 0 0 96-96v-460.48a96 96 0 0 0-96-96H521.28a96 96 0 0 1-69.952-30.208l-71.552-76.16a32 32 0 0 0-23.296-10.048zm413.44 450.88a32 32 0 0 1 5.76 63.488l-5.76.512H280.192a32 32 0 0 1-5.76-63.488l5.76-.512h489.856zM600.192 416a32 32 0 0 1 5.76 63.488l-5.76.512h-320a32 32 0 0 1-5.76-63.488l5.76-.512h320z"/></svg>