<svg class="icon" viewBox="0 0 1024 1024" xmlns="http://www.w3.org/2000/svg" width="200" height="200"><defs><style/></defs><path d="M647.104 106.816l7.04 8.128 6.208-5.952c67.584-62.144 184.448-64.448 251.456-6.08l7.488 7.04a168 168 0 0 1 0 237.568 32 32 0 0 1-45.248-45.248 104 104 0 0 0 0-147.136c-38.72-38.72-116.736-40.64-163.008-5.248l-7.04 5.888-31.232 29.568a32 32 0 0 1-45.568-1.664l-8.32-9.664-15.616-20.288c-35.968-44.608-144.32-46.464-196.416-3.392l-6.464 5.888-28.48 28.48a32 32 0 0 1-40.832 3.712l-4.416-3.712-29.568-29.568A104 104 0 0 0 143.872 295.68l6.08 6.656 29.568 29.504a32 32 0 0 1 3.712 40.832l-3.712 4.48-28.48 28.416a126.72 126.72 0 0 0 49.92 209.92 32 32 0 0 1 16.192 48.96l-3.456 4.096-63.744 63.68a104 104 0 0 0 140.48 153.152l6.592-6.08 56.576-56.64a32 32 0 0 1 49.024 40.832l-3.712 4.48-56.64 56.576A168 168 0 0 1 97.408 694.72l7.296-7.744 32.128-32-8.32-5.568a191.04 191.04 0 0 1-11.712-9.216l-11.008-10.24a190.72 190.72 0 0 1-7.68-261.504l7.68-8.128 5.824-5.824-6.912-6.912a168 168 0 0 1-7.296-229.888l7.296-7.68a168 168 0 0 1 229.824-7.296l7.744 7.232 6.976 6.912 5.76-5.824c72.512-72.512 225.344-74.88 292.16-4.224zm89.6 461.632a32 32 0 0 1 31.488 26.24l.512 5.76v336a32 32 0 0 1-63.488 5.76l-.512-5.76v-336a32 32 0 0 1 32-32zm-194.24 69.12a32 32 0 0 1 31.488 26.24l.512 5.76v263.488a32 32 0 0 1-63.488 5.76l-.512-5.76V669.504a32 32 0 0 1 32-32zM925.12 412.672a32 32 0 0 1 31.488 26.24l.512 5.76v488.384a32 32 0 0 1-63.488 5.76l-.512-5.76V444.672a32 32 0 0 1 32-32z"/></svg>