<svg class="icon" viewBox="0 0 1024 1024" xmlns="http://www.w3.org/2000/svg" width="32" height="32"><defs><style/></defs><path d="M588.083 70.649l8.356 6.114 368.868 298.083a33.966 33.966 0 0 1 12.024 20.38l.543 6.114v166.364a33.966 33.966 0 0 1-67.388 6.114l-.543-6.114-.068-150.265L553.71 129.613a33.966 33.966 0 0 0-38.313-2.989l-4.96 3.397-347.741 293.328V883.11c0 16.1 14.47 30.705 34.645 33.49l6.997.476h128.187a33.966 33.966 0 0 1 6.114 67.388l-6.114.543H204.338c-56.383 0-104.003-39.943-109.098-92.522l-.476-9.375V407.59l.476-5.775a33.966 33.966 0 0 1 12.024-20.583l359.358-303.11a101.897 101.897 0 0 1 121.393-7.473z"/><path d="M444.068 441.555a33.966 33.966 0 0 1 6.114 67.388l-6.114.544H240.274a33.966 33.966 0 0 1-6.114-67.389l6.114-.543h203.794zM308.205 577.418a33.966 33.966 0 0 1 6.114 67.388l-6.114.544h-67.931a33.966 33.966 0 0 1-6.114-67.388l6.114-.544h67.931zm375.458-135.863c97.957 0 177.709 77.85 177.709 174.312 0 44.835-17.187 85.594-45.514 116.435 88.786 27.376 153.321 108.758 153.321 205.153v11.684c0 67.524-46.6 74.861-219.622 74.861h-146.19c-145.033-.476-193.264-9.782-193.264-74.86v-11.753c0-92.998 60.12-172.002 144.218-202.164a171.391 171.391 0 0 1-48.367-119.356c0-96.462 79.752-174.312 177.709-174.312zm65.894 348.557H629.725c-83.963 0-151.69 66.165-151.69 147.275v11.752c0-.475 28.938 5.095 96.394 6.59l29.075.34h146.053c61.138 0 102.304-2.378 126.216-4.416l25.475-2.514v-11.684c0-81.178-67.728-147.343-151.691-147.343zm-65.894-280.625c-60.799 0-109.777 47.823-109.777 106.38 0 58.49 48.978 106.313 109.777 106.313S793.44 674.424 793.44 615.867s-48.91-106.38-109.777-106.38z"/></svg>