<svg class="icon" viewBox="0 0 1088 1024" xmlns="http://www.w3.org/2000/svg" width="212.5" height="200"><defs><style/></defs><path d="M509.568 130.88a275.2 275.2 0 0 1 272.576 213.632l.768 3.776 13.76 3.968a241.344 241.344 0 0 1 166.976 236.288l-.64 12.544A240.64 240.64 0 0 1 722.56 823.552H290.24a223.424 223.424 0 0 1-232.896-213.76 224 224 0 0 1 176.64-229.504l6.912-1.28 1.408-11.52A275.648 275.648 0 0 1 482.56 132.8l13.44-1.28zm2.56 64l-11.776.448A211.52 211.52 0 0 0 305.28 378.752a226.368 226.368 0 0 1 189.056 223.232 32 32 0 0 1-64 0 162.304 162.304 0 0 0-158.976-162.24 159.68 159.68 0 0 0-150.08 167.168 159.808 159.808 0 0 0 167.488 152.64h433.92a176.64 176.64 0 0 0 176.448-163.456 177.088 177.088 0 0 0-148.8-189.248 32 32 0 0 1-26.88-27.456 211.264 211.264 0 0 0-223.104-184.064z"/></svg>