<svg class="icon" viewBox="0 0 1024 1024" xmlns="http://www.w3.org/2000/svg" width="200" height="200"><defs><style/></defs><path d="M692.864 428.8a267.136 267.136 0 1 1 0 534.272 267.136 267.136 0 0 1 0-534.208zm0 64a203.136 203.136 0 1 0 0 406.272 203.136 203.136 0 0 0 0-406.208zm137.152 135.424a32 32 0 0 1 3.712 40.832l-3.712 4.416-131.008 130.944a32 32 0 0 1-40.832 3.712l-4.416-3.712-82.048-81.984a32 32 0 0 1 40.832-48.96l4.48 3.712 59.328 59.264 108.416-108.224a32 32 0 0 1 45.248 0zM425.792 64a197.44 197.44 0 0 1 48.192 388.928 31.936 31.936 0 0 1-21.12 7.936A318.656 318.656 0 0 0 134.208 779.52a32 32 0 1 1-64 0 382.72 382.72 0 0 1 242.624-356.224A197.44 197.44 0 0 1 425.792 64zm0 64a133.44 133.44 0 1 0 0 266.88 133.44 133.44 0 0 0 0-266.88z"/></svg>