<svg class="icon" viewBox="0 0 1024 1024" xmlns="http://www.w3.org/2000/svg" width="32" height="32"><defs><style/></defs><path d="M877.714 0A146.286 146.286 0 0 1 1024 146.286v731.428A146.286 146.286 0 0 1 877.714 1024H146.286A146.286 146.286 0 0 1 0 877.714V146.286A146.286 146.286 0 0 1 146.286 0h731.428zm0 73.143H146.286a73.143 73.143 0 0 0-72.631 64.585l-.512 8.558v731.428a73.143 73.143 0 0 0 64.585 72.631l8.558.512h731.428a73.143 73.143 0 0 0 72.631-64.585l.512-8.558V146.286a73.143 73.143 0 0 0-64.585-72.631l-8.558-.512z"/><path d="M804.571 359.424l.586 6.29v157.111a36.571 36.571 0 0 1-72.558 6.583l-.585-6.583v-68.462L533.65 654.19a36.571 36.571 0 0 1-47.323 3.876l-5.12-4.388-98.304-102.912-100.06 103.131a36.571 36.571 0 0 1-56.685-45.86l4.169-5.12 126.39-130.268a36.571 36.571 0 0 1 47.544-4.242l5.12 4.388L508.123 576l172.618-173.714h-59.1a36.571 36.571 0 0 1-6.583-72.558l6.583-.585h143.506a36.718 36.718 0 0 1 39.498 30.281z"/></svg>