<svg class="icon" viewBox="0 0 1024 1024" xmlns="http://www.w3.org/2000/svg" width="200" height="200"><defs><style/></defs><path d="M172.51 25.259a153.395 153.395 0 0 1 153.395 153.327v8.192l455.544.068 11.4.341c101.854 6.28 181.726 95.915 181.726 204.459a34.133 34.133 0 1 1-68.267 0c0-75.913-56.456-136.533-124.928-136.533H325.973v575.351c0 29.082-8.123 56.252-22.186 79.394h129.706l6.144.546a34.133 34.133 0 0 1-6.144 67.72H213.948a153.532 153.532 0 0 1-194.833-147.66V178.586A153.395 153.395 0 0 1 172.51 25.259zm568.252 412.399a273.067 273.067 0 1 1 0 546.133 273.067 273.067 0 0 1 0-546.133zm0 68.266a204.8 204.8 0 1 0 0 409.6 204.8 204.8 0 0 0 0-409.6zM172.51 745.335c-46.968 0-85.06 38.093-85.06 85.129v-.614l.41 8.192c4.095 40.004 35.907 71.884 75.98 75.912l8.67.478c47.036 0 85.128-38.093 85.128-85.129a84.992 84.992 0 0 0-85.128-83.968zm670.652-68.744a34.133 34.133 0 0 1 6.144 67.72l-6.144.547h-204.8a34.133 34.133 0 0 1-6.144-67.72l6.144-.547h204.8zM172.51 93.525c-46.968 0-85.06 38.161-85.06 85.129v524.288a152.644 152.644 0 0 1 85.06-25.805c31.54 0 60.757 9.557 85.128 25.805V178.654l-.477-8.67a85.129 85.129 0 0 0-84.651-76.459z"/></svg>