<svg class="icon" viewBox="0 0 1024 1024" xmlns="http://www.w3.org/2000/svg" width="200" height="200"><defs><style/></defs><path d="M722.261 433.22a273.067 273.067 0 1 1 0 546.134 273.067 273.067 0 0 1 0-546.134zM534.596 27.99c66.219 0 122.607 48.332 132.71 113.8l10.719 68.744a171.554 171.554 0 0 1 147.114 129.912 34.133 34.133 0 1 1-66.218 16.452 103.22 103.22 0 0 0-89.976-78.643l-9.216-.41H301.74c-44.374 0-83.422 29.355-97.212 72.022l-2.594 9.352-86.699 384.683c-1.775 7.782-2.73 15.701-2.73 23.688 0 54.955 41.096 99.806 93.115 104.653l9.353.41h220.16a34.133 34.133 0 0 1 6.144 67.72l-6.144.546h-220.16c-94.413 0-170.667-77.755-170.667-173.329 0-8.67.614-17.34 1.912-25.94l2.389-12.767 86.767-384.682A171.486 171.486 0 0 1 289.86 209.988l6.35-.273 10.444-67.925a134.28 134.28 0 0 1 121.72-113.323l10.922-.478h95.3zM722.33 501.486a204.8 204.8 0 1 0 0 409.6 204.8 204.8 0 0 0 0-409.6zm102.4 170.667a34.133 34.133 0 0 1 6.144 67.72l-6.144.546h-204.8a34.133 34.133 0 0 1-6.144-67.72l6.144-.546h204.8zM534.528 96.256h-95.164a66.014 66.014 0 0 0-65.263 55.979l-8.874 57.344h243.507l-8.875-57.344a66.014 66.014 0 0 0-57.207-55.501l-8.056-.478z"/></svg>