<svg class="icon" viewBox="0 0 1024 1024" xmlns="http://www.w3.org/2000/svg" width="200" height="200"><defs><style/></defs><path d="M850.876 87.927a136.533 136.533 0 0 1 136.533 136.534v614.4a136.533 136.533 0 0 1-136.533 136.533H168.209A136.533 136.533 0 0 1 31.676 838.861v-614.4A136.533 136.533 0 0 1 168.209 87.927h682.667zm-217.498 68.267H168.21a68.267 68.267 0 0 0-67.789 60.28l-.478 7.987v614.4a68.267 68.267 0 0 0 60.28 67.789l7.987.477h397.312a34.133 34.133 0 0 1 .546-32.085l3.414-5.12L677 739.123 569.549 608.256a34.133 34.133 0 0 1-3.414-38.366l3.414-4.983 101.444-123.563-118.101-143.77a34.133 34.133 0 0 1-3.414-38.365l3.414-4.916 80.486-98.099zm217.498 0H720.759a33.997 33.997 0 0 1-.546 1.024l-3.413 5.12-93.389 113.596 118.17 143.838a34.133 34.133 0 0 1 3.413 38.366l-3.413 4.915-101.513 123.494 107.52 130.867a34.133 34.133 0 0 1 3.414 38.366l-3.414 4.984-120.286 146.363h223.574a68.267 68.267 0 0 0 67.789-60.347l.477-7.92v-614.4a68.267 68.267 0 0 0-60.28-67.856l-7.986-.41zm-409.6 443.733a34.133 34.133 0 0 1 6.144 67.653l-6.144.614h-204.8a34.133 34.133 0 0 1-6.144-67.72l6.144-.547h204.8zm0-204.8a34.133 34.133 0 0 1 6.144 67.653l-6.144.614h-204.8a34.133 34.133 0 0 1-6.144-67.72l6.144-.547h204.8z"/></svg>