<svg class="icon" viewBox="0 0 1024 1024" xmlns="http://www.w3.org/2000/svg" width="200" height="200"><defs><style/></defs><path d="M830.72 97.92a128 128 0 0 1 128 128v569.408a128 128 0 0 1-128 128H190.208a128 128 0 0 1-128-128V225.856a128 128 0 0 1 128-128H830.72zm-330.176 63.872l-310.272.064a64 64 0 0 0-63.552 56.576l-.448 7.424v569.472a64 64 0 0 0 56.576 63.552l7.424.448h236.48c0-5.376 1.28-10.752 4.032-15.552l3.264-4.8 100.736-122.688-100.736-122.624a32 32 0 0 1-3.2-35.968l3.2-4.672 95.104-115.84L418.432 302.4a32 32 0 0 1-3.2-35.968l3.2-4.608 82.048-100.032zm330.112.064H578.688a31.744 31.744 0 0 1-3.328 8.96l-3.264 4.8-87.616 106.432L595.328 416.96a32 32 0 0 1 3.2 35.968l-3.2 4.608-95.232 115.776L600.896 696a32 32 0 0 1 3.2 35.968l-3.2 4.672-100.8 122.624h330.496a64 64 0 0 0 63.616-56.512l.384-7.424V225.856a64 64 0 0 0-56.512-63.552l-7.488-.448z"/></svg>