<svg class="icon" viewBox="0 0 1024 1024" xmlns="http://www.w3.org/2000/svg" width="200" height="200"><defs><style/></defs><path d="M512 56.889a455.111 455.111 0 1 0 0 910.222 455.111 455.111 0 0 0 0-910.222zm0 56.889a398.222 398.222 0 1 1 0 796.444 398.222 398.222 0 0 1 0-796.444z"/><path d="M604.843 290.702a28.444 28.444 0 0 0-36.295-3.242l-3.926 3.3-201.102 201.1a28.444 28.444 0 0 0-3.3 36.295l3.3 3.983L564.622 733.24a28.444 28.444 0 0 0 43.52-36.295l-3.3-3.926L423.88 512l180.964-181.02a28.444 28.444 0 0 0 3.3-36.296l-3.3-3.982z"/></svg>