<svg class="icon" viewBox="0 0 1088 1024" xmlns="http://www.w3.org/2000/svg" width="212.5" height="200"><defs><style/></defs><path d="M216.576 966.144a128 128 0 0 1-128-128v-252.8a128 128 0 0 1 128-128h128.512V195.776a128 128 0 0 1 128-128h64a128 128 0 0 1 128 128v101.12h128a128 128 0 0 1 128 128v413.248a128 128 0 0 1-128 128H216.576zm128-444.8h-128a64 64 0 0 0-63.552 56.512l-.448 7.488v252.8a64 64 0 0 0 56.576 63.552l7.424.448h128v-380.8zm192.576-389.568h-64a64 64 0 0 0-63.616 56.512l-.384 7.488-.064 706.368h192V195.776a64 64 0 0 0-56.512-63.616l-7.424-.384zm128 229.12v541.248h127.936a64 64 0 0 0 63.552-56.512l.448-7.488V424.96a64 64 0 0 0-56.512-63.552l-7.488-.448-128-.064z"/></svg>