<svg class="icon" viewBox="0 0 1024 1024" xmlns="http://www.w3.org/2000/svg" width="200" height="200"><defs><style/></defs><path d="M366.182 855.927c0 28.946-8.123 56.116-22.186 79.19h129.706l6.144.546a34.133 34.133 0 0 1-6.144 67.516h-219.75a153.122 153.122 0 0 1-194.56-147.32V205.961A153.122 153.122 0 0 1 212.787 53.11a153.122 153.122 0 0 1 153.395 152.92v48.47h455.544l11.4.409c101.854 6.212 181.726 95.573 181.726 203.844v72.363l-.546 6.144a34.133 34.133 0 0 1-67.72-6.144v-72.363l-.41-10.718c-4.983-70.656-59.392-125.406-124.45-125.406l-455.544-.068zm383.181-408.234c92.502 1.433 245.624 224.597 245.624 333.414 0 141.449-93.39 193.604-165.888 211.9l-17.067 3.755a314.71 314.71 0 0 1-7.987 1.433l-15.155 2.185-13.38 1.229-11.47.546h-4.778l-13.04-.41a254.908 254.908 0 0 1-15.086-1.502l-16.794-2.662c-78.78-14.746-197.29-68.813-197.29-216.406 0-108.885 139.81-334.848 232.311-333.414zM212.787 771.072c-46.967 0-85.06 37.956-85.06 84.855v-.682l.41 8.192c4.096 39.936 35.908 71.68 75.98 75.776l8.67.41c47.036 0 85.129-37.957 85.129-84.856a84.855 84.855 0 0 0-85.129-83.695zM748.34 515.755c-41.506-.546-162.952 181.999-162.952 265.352 0 99.533 85.606 153.054 173.875 153.054 91.682 0 167.458-44.168 167.458-153.054 0-80.145-132.164-264.601-178.38-265.284zM212.787 121.173c-46.967 0-85.06 37.957-85.06 84.856v522.65a152.917 152.917 0 0 1 85.06-25.669c31.54 0 60.758 9.49 85.129 25.737V206.029l-.478-8.67a84.992 84.992 0 0 0-84.65-76.186z"/></svg>