<svg class="icon" viewBox="0 0 1024 1024" xmlns="http://www.w3.org/2000/svg" width="200" height="200"><defs><style/></defs><path d="M497.984 48.128c156.672 2.368 416.064 381.504 416.064 566.4 0 336.512-309.952 375.68-399.36 375.68-110.464 0-410.24-68.928-410.24-375.68 0-184.96 236.8-568.768 393.536-566.4zm-.96 64c-104.96-1.6-328.512 335.424-328.512 502.4 0 204.16 171.776 311.68 346.24 311.68 180.096 0 335.36-90.752 335.36-311.68 0-161.536-242.368-500.736-353.088-502.4zm125.312 206.08a32 32 0 0 1 2.368 40.96l-3.84 4.288-157.888 147.392h173.696a32 32 0 0 1 25.92 50.816l-3.648 4.224L439.68 777.856a32 32 0 0 1-48.256-41.6l3.84-4.48L557.44 574.912H381.888a32 32 0 0 1-25.6-51.2l3.776-4.16L577.152 316.8a32 32 0 0 1 45.184 1.536z"/></svg>