<svg class="icon" viewBox="0 0 1024 1024" xmlns="http://www.w3.org/2000/svg" width="200" height="200"><defs><style/></defs><path d="M721.852 450.901c92.501 1.366 245.623 225.144 245.623 334.302 0 153.259-108.885 202.07-182.954 216.337l-15.702 2.663-14.336 1.638-12.493.888-10.24.273-13.039-.478c-72.977-4.984-229.102-51.2-229.102-221.32 0-109.16 139.741-335.736 232.243-334.303zm-175.036-406.8a136.533 136.533 0 0 1 134.895 115.711l12.015 77.824.41 6.144 7.372.751a170.667 170.667 0 0 1 137.83 115.78l3.21 11.196 10.376 40.96a34.133 34.133 0 0 1-64.17 22.528l-2.049-5.734-10.308-40.96a102.4 102.4 0 0 0-89.976-76.8l-9.284-.41H306.04a102.4 102.4 0 0 0-97.211 70.315l-2.594 9.148-90.112 392.055a102.4 102.4 0 0 0 89.907 124.928l9.83.41h224.598a34.133 34.133 0 0 1 6.144 67.72l-6.144.546H215.859A170.667 170.667 0 0 1 47.104 779.947l2.458-12.63 90.112-392.123a170.667 170.667 0 0 1 154.555-131.96l8.192-.273a34.27 34.27 0 0 1 .273-7.782l11.606-75.367A136.533 136.533 0 0 1 438.204 44.578l11.127-.478h97.485zM720.896 519.1c-41.506-.615-162.953 182.545-162.953 266.103 0 99.874 85.607 153.532 173.876 153.532 91.682 0 167.458-44.373 167.458-153.532 0-77.619-123.222-252.723-173.33-265.352l-5.051-.683zm-174.08-406.733h-97.621a68.267 68.267 0 0 0-67.448 57.89l-11.264 72.5h254.84l-11.128-72.5a68.267 68.267 0 0 0-59.801-57.48l-7.646-.41z"/></svg>