<svg class="icon" viewBox="0 0 1024 1024" xmlns="http://www.w3.org/2000/svg" width="200" height="200"><defs><style/></defs><path d="M756.6 390.144c43.144 0 78.574 32.768 82.875 74.82l.41 8.465v49.016a136.533 136.533 0 0 1 84.446 93.866l51.746 201.114a136.533 136.533 0 0 1-132.233 170.53H570.641a136.533 136.533 0 0 1-132.369-170.12l51.2-201.046a136.533 136.533 0 0 1 85.606-94.686v-48.605c0-43.077 32.768-78.507 74.752-82.808l8.465-.478H756.6zM598.698 30.379a102.4 102.4 0 0 1 96.597 68.266h52.565a170.667 170.667 0 0 1 170.326 159.403l.341 11.196v84.173a34.133 34.133 0 0 1-27.99 33.587l-6.143.546a34.133 34.133 0 0 1-33.588-27.99l-.546-6.143v-84.173a102.4 102.4 0 0 0-92.501-101.922l-9.899-.478-52.565.068a102.4 102.4 0 0 1-96.597 68.267H349.32a102.4 102.4 0 0 1-96.53-68.267h-51.13a102.4 102.4 0 0 0-101.922 92.501l-.478 9.83v546.134A102.4 102.4 0 0 0 191.83 917.3l9.83.478h153.327a34.133 34.133 0 0 1 6.144 67.72l-6.144.547H201.66A170.667 170.667 0 0 1 31.403 826.709l-.41-11.264V269.312A170.667 170.667 0 0 1 190.464 98.987l11.196-.41h51.063a102.4 102.4 0 0 1 96.598-68.267h249.378zm193.467 551.73h-170.46a68.267 68.267 0 0 0-63.83 44.033l-2.32 7.373-51.133 201.113a68.267 68.267 0 0 0 58.232 84.65l7.987.41h273.203a68.267 68.267 0 0 0 67.584-77.414l-1.502-7.85-51.746-201.046a68.267 68.267 0 0 0-58.436-50.859l-7.646-.41zm-422.639-3.754a34.133 34.133 0 0 1 6.144 67.72l-6.144.547H232.994a34.133 34.133 0 0 1-6.144-67.72l6.144-.547h136.533zm387.14-119.944h-98.303a15.019 15.019 0 0 0-14.473 11.059l-.546 3.96v40.345h128.341v-40.277a15.019 15.019 0 0 0-10.99-14.541l-4.028-.546zm-318.941-84.856a34.133 34.133 0 0 1 6.144 67.72l-6.144.547h-204.8a34.133 34.133 0 0 1-6.144-67.72l6.144-.547h204.8zM598.63 98.577H349.32a34.133 34.133 0 0 0-6.143 67.72l6.144.547h249.378a34.133 34.133 0 0 0 6.144-67.72l-6.144-.547z"/><path d="M756.6 390.144c43.144 0 78.574 32.768 82.875 74.82l.41 8.465v49.016a136.533 136.533 0 0 1 84.446 93.866l51.746 201.114a136.533 136.533 0 0 1-132.233 170.53H570.641a136.533 136.533 0 0 1-132.369-170.12l51.2-201.046a136.533 136.533 0 0 1 85.606-94.686v-48.605c0-43.077 32.768-78.507 74.752-82.808l8.465-.478H756.6zM598.698 30.379a102.4 102.4 0 0 1 96.597 68.266h52.565a170.667 170.667 0 0 1 170.326 159.403l.341 11.196v84.173a34.133 34.133 0 0 1-27.99 33.587l-6.143.546a34.133 34.133 0 0 1-33.588-27.99l-.546-6.143v-84.173a102.4 102.4 0 0 0-92.501-101.922l-9.899-.478-52.565.068a102.4 102.4 0 0 1-96.597 68.267H349.32a102.4 102.4 0 0 1-96.53-68.267h-51.13a102.4 102.4 0 0 0-101.922 92.501l-.478 9.83v546.134A102.4 102.4 0 0 0 191.83 917.3l9.83.478h153.327a34.133 34.133 0 0 1 6.144 67.72l-6.144.547H201.66A170.667 170.667 0 0 1 31.403 826.709l-.41-11.264V269.312A170.667 170.667 0 0 1 190.464 98.987l11.196-.41h51.063a102.4 102.4 0 0 1 96.598-68.267h249.378zm193.467 551.73h-170.46a68.267 68.267 0 0 0-63.83 44.033l-2.32 7.373-51.133 201.113a68.267 68.267 0 0 0 58.232 84.65l7.987.41h273.203a68.267 68.267 0 0 0 67.584-77.414l-1.502-7.85-51.746-201.046a68.267 68.267 0 0 0-58.436-50.859l-7.646-.41zm-422.639-3.754a34.133 34.133 0 0 1 6.144 67.72l-6.144.547H232.994a34.133 34.133 0 0 1-6.144-67.72l6.144-.547h136.533zm387.14-119.944h-98.303a15.019 15.019 0 0 0-14.473 11.059l-.546 3.96v40.345h128.341v-40.277a15.019 15.019 0 0 0-10.99-14.541l-4.028-.546zm-318.941-84.856a34.133 34.133 0 0 1 6.144 67.72l-6.144.547h-204.8a34.133 34.133 0 0 1-6.144-67.72l6.144-.547h204.8zM598.63 98.577H349.32a34.133 34.133 0 0 0-6.143 67.72l6.144.547h249.378a34.133 34.133 0 0 0 6.144-67.72l-6.144-.547z"/></svg>