<svg class="icon" viewBox="0 0 1088 1024" xmlns="http://www.w3.org/2000/svg" width="212.5" height="200"><defs><style/></defs><path d="M557.888 64.832c89.92 0 165.44 61.824 186.24 145.28 116.096 67.2 192 193.024 197.44 334.016l.192 12.032a192 192 0 0 1-168.512 335.68 371.072 371.072 0 0 1-430.592.192 192 192 0 0 1-168.704-335.104l-.064 3.52c0-147.264 76.992-280.32 197.76-350.272a192 192 0 0 1 186.24-145.344zm189.248 224.256l-.128 1.024a192 192 0 0 1-378.432-.96c-71.104 54.848-118.4 138.88-128.64 232.96A192 192 0 0 1 410.752 859.2a306.176 306.176 0 0 0 294.848-.256 192 192 0 0 1 170.112-337.152c-10.24-94.08-57.6-177.92-128.576-232.704zm-452.288 288.96a128 128 0 1 0 0 256 128 128 0 0 0 0-256zm526.912 0a128 128 0 1 0 0 256 128 128 0 0 0 0-256zm-263.872-449.28a128 128 0 1 0 0 256 128 128 0 0 0 0-256z"/></svg>