<svg class="icon" viewBox="0 0 1024 1024" xmlns="http://www.w3.org/2000/svg" width="200" height="200"><defs><style/></defs><path d="M347.456 56.256a96 96 0 0 1 69.952 30.208l71.488 76.16a32 32 0 0 0 23.36 10.048h279.296a160 160 0 0 1 160 160v460.416a160 160 0 0 1-160 160H221.056a160 160 0 0 1-160-160V216.32a160 160 0 0 1 160-160zm0 64h-126.4a96 96 0 0 0-96 96v576.832a96 96 0 0 0 96 96h570.496a96 96 0 0 0 96-96V332.672a96 96 0 0 0-96-96H512.256a96 96 0 0 1-69.952-30.272l-71.552-76.096a32 32 0 0 0-23.296-10.048zm165.376 247.488l1.536 5.504 48.32 241.088 51.904-60.928a32 32 0 0 1 18.816-10.752l5.568-.512h124.8a32 32 0 0 1 5.76 63.488l-5.76.512h-110.08l-84.992 99.968a32 32 0 0 1-54.208-9.152l-1.536-5.312-44.992-224.192-72.96 123.072a32 32 0 0 1-21.888 15.168l-5.568.448h-118.72a32 32 0 0 1-5.76-63.424l5.76-.576h100.416L455.488 363.2a32 32 0 0 1 57.344 4.544z"/></svg>