<svg class="icon" viewBox="0 0 1024 1024" xmlns="http://www.w3.org/2000/svg" width="200" height="200"><defs><style/></defs><path d="M687.027 380.3a104.646 104.646 0 0 1 99.286 0l180.515 97.371c33.563 18.058 54.428 52.961 54.428 90.991v189.511c0 36.244-19.142 69.87-50.345 88.63l-180.514 108.22c-33.053 19.78-74.401 19.78-107.454 0l-180.578-108.22a103.37 103.37 0 0 1-50.281-88.693V568.598c0-37.902 20.929-72.87 54.428-90.927zm66.17 60.617a34.84 34.84 0 0 0-33.053 0L539.565 538.29a34.457 34.457 0 0 0-18.121 30.373v189.511c0 12.124 6.38 23.29 16.781 29.544l180.579 108.22a34.84 34.84 0 0 0 35.732 0l180.579-108.22a34.457 34.457 0 0 0 16.781-29.544V568.662a34.457 34.457 0 0 0-18.185-30.373zM681.73 0c16.973 0 31.138 12.187 34.074 28.267l.638 6.19-.128 31.266 78.357.064c82.313 0 150.142 61.894 155.884 140.825l.383 10.848v128.765c0 19.015-15.505 34.457-34.712 34.457a34.648 34.648 0 0 1-34.137-28.267l-.51-6.19V217.46c0-42.56-34.01-77.974-77.975-82.25l-8.933-.382-78.357-.064.064 31.394c0 19.014-15.506 34.456-34.712 34.456a34.648 34.648 0 0 1-34.074-28.267l-.638-6.19v-31.393H405.567v31.394a34.648 34.648 0 1 1-68.85 6.189l-.446-6.19v-31.393h-84.036c-45.176 0-81.994 32.797-86.46 74.273l-.447 8.423v527.186c0 42.56 34.01 77.91 77.974 82.186l8.933.446h145.93c19.143 0 34.649 15.442 34.649 34.457a34.584 34.584 0 0 1-28.46 33.946l-6.188.638H252.299c-82.313 0-150.141-61.894-155.884-140.825l-.383-10.848V217.46c0-80.4 64.255-145.74 145.164-151.227l11.103-.446h83.972V34.52c0-19.142 15.57-34.52 34.712-34.52 17.037 0 31.266 12.187 34.138 28.267l.574 6.19v31.266h241.324V34.457C647.019 15.442 662.589 0 681.73 0zm54.939 536.12c74.273 0 134.445 59.916 134.445 133.742A134.126 134.126 0 0 1 736.67 803.605a134.126 134.126 0 0 1-134.445-133.743c0-73.826 60.172-133.742 134.445-133.742zm0 69.04c-35.924 0-65.085 28.97-65.085 64.702s29.16 64.702 65.085 64.702 65.085-28.969 65.085-64.702-29.16-64.701-65.085-64.701zm-393.06-95.074c19.142 0 34.647 15.441 34.647 34.456a34.584 34.584 0 0 1-28.458 34.01l-6.19.51h-80.781a34.584 34.584 0 1 1-6.254-68.466l6.254-.51h80.781zm117.854-167.817c19.142 0 34.711 15.442 34.711 34.457a34.584 34.584 0 0 1-28.458 33.946l-6.253.574H261.168a34.584 34.584 0 1 1-6.253-68.466l6.253-.51h200.296z"/></svg>