<svg class="icon" viewBox="0 0 1024 1024" xmlns="http://www.w3.org/2000/svg" width="200" height="200"><defs><style/></defs><path d="M478.272 82.752a44.8 44.8 0 0 1 63.36-1.92l2.112 2.176 13.824 17.664A308.032 308.032 0 0 0 704 202.432a454.848 454.848 0 0 0 186.432 20.736 64.256 64.256 0 0 1 69.76 59.328l.128 4.416v254.912a288 288 0 0 1-136.768 245.12L555.264 952.512a96 96 0 0 1-102.272-.896L196.8 787.136A288 288 0 0 1 64.32 544.832V285.888a64 64 0 0 1 64-64l26.56 1.408c57.792 1.984 109.248-4.928 154.624-20.672 50.56-17.536 102.016-52.352 153.984-104.512zm31.04 59.904c-58.88 59.2-118.4 99.392-178.88 120.384-59.648 20.736-127.104 28.288-202.176 22.912v258.88a224 224 0 0 0 103.04 188.48l256.192 164.416a32 32 0 0 0 34.112.32L789.888 732.48a224 224 0 0 0 106.368-190.656V286.912l-24.32 1.728a516.352 516.352 0 0 1-188.032-25.408A370.624 370.624 0 0 1 519.04 154.176zM726.656 382.4a32 32 0 0 1 4.16 40.768l-3.712 4.48L497.024 662.4A32 32 0 0 1 456 666.304l-4.48-3.712L323.904 534.4a32 32 0 0 1 40.96-48.832l4.352 3.712 104.768 105.152 207.424-211.648a32 32 0 0 1 45.248-.448z"/></svg>