<svg class="icon" viewBox="0 0 1024 1024" xmlns="http://www.w3.org/2000/svg" width="200" height="200"><defs><style/></defs><path d="M400.384 106.857c64.934 0 123 29.395 161.672 75.535a177.935 177.935 0 0 1 186.85 294.551c89.51 31.503 154.382 129.988 159.02 246.603l.242 13.373v15.54c0 65.657-43.25 81.378-171.55 84.029-13.614 60.897-84.33 71.318-261 71.318H295.032c-175.585-.964-233.29-15.902-233.29-96.497v-18.974c0-151.672 84.69-280.576 201.065-315.03a210.824 210.824 0 0 1 137.577-370.448zm75.294 421.647H325.09c-110.472 0-203.174 116.857-203.174 263.831v18.974c0 26.142 46.2 36.141 189.922 36.262h163.72c151.37 0 203.173-10.541 203.173-36.262v-18.974c0-146.974-92.702-263.83-203.173-263.83zm211.546-1.927h-60.536c64.813 55.838 107.821 146.673 112.038 249.374 76.197-2.048 106.194-9.457 109.026-21.564l.18-1.928v-15.54c0-113.423-68.668-203.897-151.793-210.04l-8.915-.302zm-286.84-359.484a150.588 150.588 0 1 0 0 301.176h-1.687 3.374A150.588 150.588 0 0 0 550.55 327.68l.361-9.939a150.588 150.588 0 0 0-150.588-150.588zm225.28 63.789a117.994 117.994 0 0 0-31.322 4.216c10.842 25.3 16.866 53.248 16.866 82.583 0 49.875-17.348 95.714-46.261 131.795a117.76 117.76 0 1 0 60.657-218.594z"/></svg>