<svg class="icon" viewBox="0 0 1024 1024" xmlns="http://www.w3.org/2000/svg" width="200" height="200"><defs><style/></defs><path d="M480.256 64a96 96 0 0 1 96 96v128a96 96 0 0 1-96 96H320v125.312h256.256V480a96 96 0 0 1 96-96h192a96 96 0 0 1 96 96v64a96 96 0 0 1-96 96h-192a96 96 0 0 1-91.392-66.624L320 573.312l.064 91.776a96 96 0 0 0 86.72 95.616l9.28.384h168.448A96 96 0 0 1 672.256 704h192a96 96 0 0 1 96 96v64a96 96 0 0 1-96 96h-192a96 96 0 0 1-96-96v-38.912H416a160 160 0 0 1-159.68-149.44l-.32-10.56V384h-95.808a96 96 0 0 1-96-96V160a96 96 0 0 1 96-96h320zm384 704h-192a32 32 0 0 0-31.488 26.24l-.512 5.76v64a32 32 0 0 0 26.24 31.488l5.76.512h192a32 32 0 0 0 31.488-26.24l.512-5.76v-64a32 32 0 0 0-26.24-31.488l-5.76-.512zm0-320h-192a32 32 0 0 0-31.488 26.24l-.512 5.76v64a32 32 0 0 0 26.24 31.488l5.76.512h192a32 32 0 0 0 31.488-26.24l.512-5.76v-64a32 32 0 0 0-26.24-31.488l-5.76-.512zm-384-320h-320a32 32 0 0 0-31.488 26.24l-.512 5.76v128a32 32 0 0 0 26.24 31.488l5.76.512h320a32 32 0 0 0 31.488-26.24l.512-5.76V160a32 32 0 0 0-26.24-31.488l-5.76-.512z"/></svg>