<svg class="icon" viewBox="0 0 1024 1024" xmlns="http://www.w3.org/2000/svg" width="200" height="200"><defs><style/></defs><path d="M571.2 64c33.152 0 60.032 28.672 60.032 64v64h182.592c79.232 0 144.512 61.056 149.632 138.88l.32 9.728V812.16c0 79.104-62.08 143.36-140.16 148.352l-9.792.32H211.328a149.44 149.44 0 0 1-149.632-138.88l-.32-9.792V340.608c0-79.04 62.08-143.296 140.16-148.288l9.728-.32h179.84l.128-64c0-35.328 26.88-64 59.968-64h119.936zM391.232 253.504H211.328c-47.04 0-85.248 34.816-89.6 78.784l-.384 8.32V812.16c0 45.056 35.392 82.496 81.28 86.72l8.704.448h602.496c47.04 0 85.248-34.816 89.6-78.784l.384-8.32v-471.68c0-44.992-35.456-82.432-81.28-86.72l-8.704-.384H631.232V256c0 70.72-53.76 128-120 128-66.24 0-119.936-57.28-119.936-128l-.064-2.496zM694.72 643.392c16.576 0 30.016 14.336 30.016 32 0 15.744-10.624 28.8-24.64 31.488l-5.376.512h-360c-16.576 0-29.952-14.272-29.952-32 0-15.68 10.56-28.8 24.576-31.488l5.376-.512h359.936zm0-131.392c16.576 0 30.016 14.336 30.016 32 0 15.68-10.624 28.8-24.64 31.488l-5.376.512h-360c-16.576 0-29.952-14.336-29.952-32 0-15.68 10.56-28.8 24.576-31.488l5.44-.512H694.72zM571.2 128H451.264v128c0 35.328 26.88 64 59.968 64 30.72 0 56.128-24.704 59.584-56.512L571.2 256V128z"/></svg>