<svg class="icon" viewBox="0 0 1024 1024" xmlns="http://www.w3.org/2000/svg" width="200" height="200"><defs><style/></defs><path d="M515.456 64a224 224 0 0 1 224 224v32h64a128 128 0 0 1 128 128v384a128 128 0 0 1-128 128h-576a128 128 0 0 1-128-128V448a128 128 0 0 1 128-128h64v-32a224 224 0 0 1 224-224zm288 320h-576a64 64 0 0 0-63.552 56.512l-.448 7.488v384a64 64 0 0 0 56.512 63.552l7.488.448h576a64 64 0 0 0 63.552-56.512l.448-7.488V448a64 64 0 0 0-56.576-63.552l-7.424-.448zM451.52 511.808a32 32 0 0 1 31.488 26.24l.512 5.76v71.744l78.272-51.328a32 32 0 0 1 49.152 21.44l.384 5.312v145.216a32 32 0 0 1-63.488 5.76l-.512-5.76V650.24l-78.208 51.456a32 32 0 0 1-49.152-21.44l-.448-5.312V543.808a32 32 0 0 1 32-32zM515.456 128a160 160 0 0 0-159.68 149.504l-.32 10.496-.064 32h320v-32a160 160 0 0 0-149.44-159.68l-10.496-.32z"/></svg>