<svg class="icon" viewBox="0 0 1024 1024" xmlns="http://www.w3.org/2000/svg" width="200" height="200"><defs><style/></defs><path d="M622.912 136.32a96 96 0 0 1 95.552 86.784l.448 9.216V256h113.344a128 128 0 0 1 128 128v448a128 128 0 0 1-128 128h-640a128 128 0 0 1-128-128V384a128 128 0 0 1 128-128h117.376v-23.68a96 96 0 0 1 86.784-95.552l9.28-.448h217.216zm-313.28 501.504H128.256V832a64 64 0 0 0 56.576 63.552l7.424.448h640a64 64 0 0 0 63.616-56.512l.384-7.488V637.824H718.848v39.936a32 32 0 0 1-63.424 5.76l-.512-5.76v-39.936H373.568v39.936a32 32 0 0 1-63.424 5.76l-.512-5.76v-39.936zM832.256 320h-640a64 64 0 0 0-63.552 56.512l-.448 7.488v189.824h181.376v-39.872a32 32 0 0 1 63.552-5.76l.512 5.76v39.872h281.152v-39.872a32 32 0 0 1 63.552-5.76l.512 5.76v39.872h177.344V384a64 64 0 0 0-56.512-63.552l-7.488-.448zM622.912 200.32H405.696a32 32 0 0 0-31.488 26.24l-.512 5.76V256h281.152v-23.68a32 32 0 0 0-26.24-31.488l-5.76-.512z"/></svg>