<svg class="icon" viewBox="0 0 1024 1024" xmlns="http://www.w3.org/2000/svg" width="380" height="380"><defs><style/></defs><path d="M260.626 857.64a31.422 31.422 0 0 0 25.765 30.919l5.656.503h282.797v-62.844a62.844 62.844 0 0 1 62.843-62.844h314.218a62.844 62.844 0 0 1 62.844 62.844v125.687a62.844 62.844 0 0 1-62.844 62.844H637.687a62.844 62.844 0 0 1-62.843-62.844H292.047a94.265 94.265 0 0 1-93.825-85.216l-.44-9.05V323.47H72.095A62.844 62.844 0 0 1 9.25 260.626V72.095A62.844 62.844 0 0 1 72.095 9.25h502.749a62.844 62.844 0 0 1 62.843 62.844v188.53a62.844 62.844 0 0 1-62.843 62.844H260.626v251.375h314.218V512a62.844 62.844 0 0 1 62.843-62.844h314.218A62.844 62.844 0 0 1 1014.75 512v125.687a62.844 62.844 0 0 1-62.844 62.844H637.687a62.844 62.844 0 0 1-62.843-62.844H260.626V857.64zm691.28-31.422h-314.22v125.687h314.218V826.218zm0-314.218h-314.22v125.687h314.218V512zM574.843 72.095H72.094v188.53h502.75V72.096z"/></svg>