<svg class="icon" viewBox="0 0 1088 1024" xmlns="http://www.w3.org/2000/svg" width="212.5" height="200"><defs><style/></defs><path d="M543.808 558.592l190.272 2.304h16.64a204.352 204.352 0 0 1 204.48 204.16 204.032 204.032 0 0 1-101.824 177.92 204.864 204.864 0 0 1-193.344 6.4l-12.096-6.4A204.16 204.16 0 0 1 546.112 764.8l-.32-49.344-1.984-156.8zm-65.728 0l-.448 32.96-1.856 173.248a204.16 204.16 0 0 1-101.824 178.176l-12.096 6.4a204.864 204.864 0 0 1-193.28-6.4 204.032 204.032 0 0 1-101.888-177.92 204.352 204.352 0 0 1 204.544-204.16h16.576l190.272-2.304zm130.624 64.96l1.344 125.76v15.616a140.288 140.288 0 0 0 70.016 122.624 140.864 140.864 0 0 0 141.184 0 140.16 140.16 0 0 0 69.952-122.24 140.416 140.416 0 0 0-140.48-140.416l-142.016-1.28zm-195.52 0l-142.016 1.344a140.416 140.416 0 0 0-140.48 140.352 140.16 140.16 0 0 0 69.952 122.304 140.864 140.864 0 0 0 141.184 0 140.288 140.288 0 0 0 69.952-122.624v-15.616l1.408-125.76zM271.744 69.44A204.288 204.288 0 0 1 476.16 273.536l1.28 131.584 1.024 74.88-206.848-2.24A204.352 204.352 0 0 1 67.072 273.664a204.416 204.416 0 0 1 204.544-204.16zm478.976 0A204.352 204.352 0 0 1 955.2 273.536a204.352 204.352 0 0 1-204.544 204.16L543.808 480l2.24-189.888V273.6A204.352 204.352 0 0 1 750.72 69.44zm-478.976 64a140.416 140.416 0 0 0-140.608 140.224 140.352 140.352 0 0 0 140.48 140.096l142.016 1.408-1.408-141.568a140.352 140.352 0 0 0-140.48-140.16zm478.976 0A140.416 140.416 0 0 0 610.112 273.6l-1.472 141.504 141.952-1.408a140.352 140.352 0 0 0 140.544-140.16 140.352 140.352 0 0 0-140.48-140.096z"/></svg>