<svg class="icon" viewBox="0 0 1024 1024" xmlns="http://www.w3.org/2000/svg" width="200" height="200"><defs><style/></defs><path d="M835.456 128a128 128 0 0 1 128 128v512a128 128 0 0 1-128 128h-640a128 128 0 0 1-128-128V256a128 128 0 0 1 128-128h640zm-704 222.208V768a64 64 0 0 0 56.512 63.552l7.488.448h640a64 64 0 0 0 63.552-56.512l.448-7.488V350.656L574.72 571.2a94.08 94.08 0 0 1-96.256 5.632l-8.064-4.672-338.944-221.952zm704-158.208h-640a64 64 0 0 0-63.552 56.512l-.448 7.488v25.408c4.096 0 8.256.768 12.16 2.432l4.992 2.688 356.16 233.088a31.36 31.36 0 0 0 29.312 2.688l5.504-3.008 342.272-232.512a31.232 31.232 0 0 1 17.664-5.376L899.456 256a64 64 0 0 0-56.576-63.552l-7.424-.448z"/></svg>