<svg class="icon" viewBox="0 0 1024 1024" xmlns="http://www.w3.org/2000/svg" width="200" height="200"><defs><style/></defs><path d="M334.487 355.99a60.235 60.235 0 0 1-60.236-60.235V145.167a60.235 60.235 0 0 1 60.236-60.235h301.176a60.235 60.235 0 0 1 60.235 60.235v150.588a60.235 60.235 0 0 1-60.235 60.236h-120.47V483.81h208.052a60.235 60.235 0 0 1 59.814 53.188l.421 7.047v71.078h60.236a60.235 60.235 0 0 1 60.235 60.235v180.706a60.235 60.235 0 0 1-60.235 60.235H663.01a60.235 60.235 0 0 1-60.235-60.235V675.358a60.235 60.235 0 0 1 60.235-60.235h60.235v-71.078h-476.4v71.078h60.235a60.235 60.235 0 0 1 60.235 60.235v180.706a60.235 60.235 0 0 1-60.235 60.235H126.374a60.235 60.235 0 0 1-60.236-60.235V675.358a60.235 60.235 0 0 1 60.236-60.235h60.235v-71.078a60.235 60.235 0 0 1 53.248-59.874l6.987-.361h208.053V355.99h-120.47zM307.08 675.299H126.374v180.706H307.08V675.298zm536.636 0H663.01v180.706h180.706V675.298zm-208.053-530.07H334.487v150.588h301.176v-150.59z"/></svg>