<svg class="icon" viewBox="0 0 1024 1024" xmlns="http://www.w3.org/2000/svg" width="200" height="200"><defs><style/></defs><path d="M506.88 60.864c139.776 0 253.632 109.696 253.632 245.568 0 96.448-57.344 179.648-140.544 219.84 166.208 10.88 297.536 152.32 297.536 324.864v18.944c0 81.664-65.664 96.832-280.96 98.24l-237.696.064C165.44 968.256 96.256 956.16 96.256 870.08v-18.944c0-172.544 131.264-313.984 297.6-324.928-83.264-40.128-140.608-123.328-140.608-219.776C253.248 170.56 367.04 60.8 506.88 60.8zm92.352 528.64H414.528c-140.224 0-254.272 116.992-254.272 261.632v18.944c0 23.232 62.848 34.24 238.592 34.304h200.384c184.448 0 254.272-11.52 254.272-34.304v-18.944c0-144.64-114.048-261.632-254.272-261.632zm-92.352-464.64c-104.96 0-189.632 81.536-189.632 181.568C317.248 406.4 401.92 488 506.88 488c104.96 0 189.632-81.6 189.632-181.568 0-100.032-84.672-181.568-189.632-181.568z"/></svg>