<svg class="icon" viewBox="0 0 1024 1024" xmlns="http://www.w3.org/2000/svg" width="200" height="200"><defs><style/></defs><path d="M675.456 70.848a32 32 0 0 1 31.488 26.24l.512 5.76v97.92l-.128 1.216h105.728c81.024 0 145.088 72.32 150.08 161.536l.32 11.264v434.944a160 160 0 0 1-160 160h-585.6c-84.416 0-150.4-78.464-150.4-172.8v-422.08c0-94.336 65.984-172.8 150.4-172.8h105.728l-.128-1.28v-97.92a32 32 0 0 1 63.488-5.76l.512 5.76v97.92l-.128 1.28h256.256l-.128-1.28v-97.92a32 32 0 0 1 32-32zm137.6 195.2h-595.2c-46.4 0-86.4 47.552-86.4 108.736v422.208c0 61.184 40 108.736 86.4 108.736h585.6a96 96 0 0 0 96-96V374.784c0-61.184-40.064-108.8-86.4-108.8zm-73.6 449.024a32 32 0 0 1 5.76 63.488l-5.76.512h-448a32 32 0 0 1-5.76-63.488l5.76-.512h448zm0-161.216a32 32 0 0 1 5.76 63.488l-5.76.512h-448a32 32 0 0 1-5.76-63.488l5.76-.512h448zm0-159.872a32 32 0 0 1 5.76 63.488l-5.76.512h-448a32 32 0 0 1-5.76-63.424l5.76-.576h448z"/></svg>