<svg class="icon" viewBox="0 0 1024 1024" xmlns="http://www.w3.org/2000/svg" width="200" height="200"><defs><style/></defs><path d="M725.655 540.672a30.118 30.118 0 0 1 29.635 24.696l.482 5.422v151.973h152.275a30.118 30.118 0 0 1 5.421 59.814l-5.42.482H755.771v152.877a30.118 30.118 0 0 1-59.753 5.421l-.482-5.421V783.059H543.322a30.118 30.118 0 0 1-5.42-59.693l5.42-.542h152.215V570.729a30.118 30.118 0 0 1 30.118-30.117zm70.475-423.093a30.118 30.118 0 0 1 24.335 12.469c72.523 99.99 109.026 171.67 109.026 220.582 0 95.473-70.837 159.262-165.647 159.262-55.778 0-94.329-16.866-119.628-41.563l-3.433-3.614-1.325 1.446c-24.094 23.913-60.898 40.96-113.845 43.37l-13.613.36c-60.356 0-101.316-17.829-127.458-43.73l-1.385-1.446-3.373 3.614C356.593 490.978 322.259 507 273.769 509.53l-13.553.362c-18.853 0-36.743-2.53-53.308-7.349v305.032c0 19.576 26.865 39.996 64.753 42.767l8.915.361H512a30.118 30.118 0 0 1 5.421 59.753l-5.421.482H280.576c-68.849 0-128.301-39.755-133.542-95.292l-.361-8.071v-327.8a30.118 30.118 0 0 1 1.144-8.313c-33.129-27.95-53.308-69.873-53.308-120.832 0-48.972 36.503-120.652 109.026-220.582a30.118 30.118 0 0 1 24.395-12.469zm-15.54 60.236H243.35l-11.565 16.564c-48.248 69.873-73.728 121.194-76.74 150.649l-.3 5.602c0 60.717 42.526 99.026 105.411 99.026 35.057 0 59.452-9.637 76.439-25.48 10.06-9.456 15.3-18.491 17.95-25.78a30.118 30.118 0 0 1 56.621 0c2.59 7.108 7.83 15.963 18.312 25.3 17.95 16.082 44.393 25.9 82.522 25.9 38.129 0 64.572-9.818 82.522-25.9 10.421-9.337 15.662-18.192 18.252-25.3a30.118 30.118 0 0 1 56.681 0c2.65 7.289 7.89 16.324 17.95 25.78 16.987 15.843 41.382 25.48 76.379 25.48 62.945 0 105.472-38.31 105.472-99.026 0-28.31-25.54-81.68-77.041-156.25l-11.626-16.565z"/></svg>