<svg class="icon" viewBox="0 0 1024 1024" xmlns="http://www.w3.org/2000/svg" width="200" height="200"><defs><style/></defs><path d="M788.8 459.072c31.36 0 60.8 15.36 78.72 41.024l73.472 105.216a96 96 0 0 1-8.768 120.768l-190.4 202.368a96 96 0 0 1-137.408 2.496l-191.424-205.76a96 96 0 0 1-9.408-118.848l70.336-104.768a96 96 0 0 1 79.68-42.496zm0 64H553.6a32 32 0 0 0-26.56 14.144l-70.336 104.768a32 32 0 0 0 3.2 39.68l190.08 204.288a32 32 0 0 0 45.248-1.344l190.336-202.432a32 32 0 0 0 2.944-40.192L815.04 536.768a32 32 0 0 0-26.24-13.696zm24.768 117.696a32 32 0 0 1 4.992 40.64l-3.584 4.544-116.864 124.352A32 32 0 0 1 656 814.272l-4.48-3.968-117.056-124.352a32 32 0 0 1 42.304-47.68l4.288 3.84 93.696 99.52 93.568-99.52a32 32 0 0 1 45.248-1.344zm-358.144-186.88l-3.072.384a199.04 199.04 0 0 1-29.632 2.24l-7.04-.256a318.72 318.72 0 0 0-284.672 316.8 32 32 0 0 1-64 0 382.72 382.72 0 0 1 239.104-354.752 197.44 197.44 0 1 1 150.848 35.2l-1.536.448zM422.72 125.632a133.44 133.44 0 0 0-9.152 266.56 363.52 363.52 0 0 1 31.616-1.728 133.44 133.44 0 0 0-22.464-264.832z"/></svg>