<svg class="icon" viewBox="0 0 1024 1024" xmlns="http://www.w3.org/2000/svg" width="200" height="200"><defs><style/></defs><path d="M512 20.544a32 32 0 0 1 31.488 26.24l.512 5.76v31.36a391.68 391.68 0 0 1 358.336 358.4h31.36a32 32 0 0 1 5.76 63.424l-5.76.576h-31.36a391.68 391.68 0 0 1-358.4 358.272L544 896a32 32 0 0 1-63.488 5.76L480 896v-31.36a391.68 391.68 0 0 1-358.336-358.4h-31.36a32 32 0 0 1-5.76-63.424l5.76-.512h31.36a391.68 391.68 0 0 1 358.4-358.4L480 52.608a32 32 0 0 1 32-32zm32 127.68v24.832a32 32 0 0 1-63.488 5.76l-.512-5.76v-24.832A327.68 327.68 0 0 0 185.856 442.24h24.832a32 32 0 0 1 5.76 63.488l-5.76.576h-24.832A327.68 327.68 0 0 0 480 800.32l.064-24.832a32 32 0 0 1 63.488-5.76l.512 5.76v24.832a327.68 327.68 0 0 0 294.08-294.016h-24.832a32 32 0 0 1-5.76-63.488l5.76-.512 24.832-.064A327.68 327.68 0 0 0 544 148.224zM512 282.24a192 192 0 1 1 0 384 192 192 0 0 1 0-384zm0 64a128 128 0 1 0 0 256 128 128 0 0 0 0-256z"/></svg>