<svg class="icon" viewBox="0 0 1024 1024" xmlns="http://www.w3.org/2000/svg" width="200" height="200"><defs><style/></defs><path d="M224 141.504a160 160 0 0 1 156.8 128l431.36.192c22.016 2.432 48.832 9.664 74.752 25.024 47.68 28.224 71.488 73.344 71.488 133.248 0 59.776-22.784 104.832-68.736 132.928a174.72 174.72 0 0 1-63.04 23.232l-12.544 1.664-604.8-.192a115.84 115.84 0 0 0-45.76 15.744c-25.984 15.872-38.08 39.872-38.08 78.272 0 38.08 12.544 61.952 40.064 78.208 13.952 8.32 29.184 13.184 39.872 15.36l5.76.896h638.72l-40.576-40.576a32 32 0 0 1-3.648-40.832l3.648-4.48a32 32 0 0 1 40.832-3.648l4.48 3.712 95.872 95.872a32 32 0 0 1 3.712 40.832l-3.712 4.416-95.872 95.872a32 32 0 0 1-48.96-40.832L809.28 880l41.984-41.984-643.584-.128a188.608 188.608 0 0 1-74.816-24.96c-47.552-28.288-71.36-73.408-71.36-133.376 0-59.712 22.784-104.768 68.736-132.864a174.72 174.72 0 0 1 63.04-23.232l12.544-1.728 604.672.192a115.84 115.84 0 0 0 45.824-15.744c25.92-15.872 38.08-39.872 38.08-78.272 0-38.08-12.608-61.888-40.064-78.144a133.888 133.888 0 0 0-39.872-15.36l-5.76-.96H380.8a160 160 0 1 1-156.8-192zm0 64a96 96 0 1 0 95.744 102.656 32.128 32.128 0 0 1-.128-13.312l.384 6.656a96 96 0 0 0-96-96z"/></svg>