<svg class="icon" viewBox="0 0 1024 1024" xmlns="http://www.w3.org/2000/svg" width="200" height="200"><defs><style/></defs><path d="M811.008 674.24c100.16 29.12 161.536 72.64 161.536 131.008 0 102.08-201.792 167.04-451.264 167.04-249.536 0-451.264-64.96-451.264-167.04 0-57.152 58.752-99.968 155.008-129.088a32 32 0 0 1 18.56 61.248c-71.424 21.632-109.568 49.408-109.568 67.84 0 47.168 173.632 103.04 387.2 103.04 213.696 0 387.328-55.872 387.328-103.04 0-19.072-40.512-47.744-115.456-69.504a32 32 0 1 1 17.92-61.44zM521.28 64.96a287.36 287.36 0 0 1 287.36 287.424c0 158.72-128.64 517.376-287.36 517.376-158.72 0-287.424-358.656-287.424-517.376a287.36 287.36 0 0 1 287.36-287.36zm0 64a223.36 223.36 0 0 0-223.424 223.424c0 171.52 133.824 453.376 223.36 453.376 89.6 0 223.424-281.792 223.424-453.376a223.36 223.36 0 0 0-223.36-223.36zm0 85.888a140.864 140.864 0 1 1 0 281.792 140.864 140.864 0 0 1 0-281.792zm0 64a76.864 76.864 0 1 0 0 153.792 76.864 76.864 0 0 0 0-153.792z"/></svg>