<svg class="icon" viewBox="0 0 1024 1024" xmlns="http://www.w3.org/2000/svg" width="200" height="200"><defs><style/></defs><path d="M651.264 410.176a96 96 0 0 1 91.52 0l166.528 90.304a96 96 0 0 1 50.24 84.416v175.808a96 96 0 0 1-46.464 82.176L746.624 943.296a96 96 0 0 1-99.2 0l-166.4-100.416a96 96 0 0 1-46.464-82.176V584.896a96 96 0 0 1 50.24-84.416zm60.992 56.256a32 32 0 0 0-30.464 0L515.2 556.736a32 32 0 0 0-16.768 28.16v175.808a32 32 0 0 0 15.488 27.392l166.528 100.416a32 32 0 0 0 33.024 0L880 788.032a32 32 0 0 0 15.488-27.328V584.896a32 32 0 0 0-16.768-28.16zM420.032 64a197.44 197.44 0 0 1 48.192 388.928 31.936 31.936 0 0 1-21.12 7.936A318.656 318.656 0 0 0 128.448 779.52a32 32 0 0 1-64 0 382.72 382.72 0 0 1 242.624-356.224A197.44 197.44 0 0 1 420.032 64zm276.992 490.752a124.032 124.032 0 1 1 0 248.064 124.032 124.032 0 0 1 0-248.064zm0 64a60.032 60.032 0 1 0 0 120.064 60.032 60.032 0 0 0 0-120.064zM420.032 128a133.44 133.44 0 1 0 0 266.88 133.44 133.44 0 0 0 0-266.88z"/></svg>