<svg class="icon" viewBox="0 0 1024 1024" xmlns="http://www.w3.org/2000/svg" width="200" height="200"><defs><style/></defs><path d="M719.53 454.178a273.067 273.067 0 1 1 0 546.133 273.067 273.067 0 0 1 0-546.133zM570.983 56.32a136.533 136.533 0 0 1 134.895 115.712l7.646 49.289c73.25 5.46 135.168 59.05 151.962 129.706 3.413 8.943 7.031 19.32 10.65 31.062a34.133 34.133 0 1 1-65.264 20.138l-6.553-20.07a1071.787 1071.787 0 0 0-3.891-10.923c-10.923-45.329-47.377-77.55-89.908-81.647l-9.216-.478h-370.96c-44.1 0-83.286 30.31-97.144 74.82l-2.526 9.763-90.248 412.194a117.334 117.334 0 0 0-2.663 24.849c0 57.48 41.233 103.97 93.116 109.022l9.284.41h173.466a34.133 34.133 0 0 1 6.144 67.72l-6.144.546H240.162c-94.617 0-170.667-79.872-170.667-177.698 0-8.875.683-17.681 1.912-26.42l2.321-12.97 90.249-412.33C180.77 282.35 243.985 226.44 319.01 221.251l11.332-.41h.751l7.51-48.81a136.533 136.533 0 0 1 123.904-115.37l11.127-.41h97.485zm148.412 466.125a204.8 204.8 0 1 0 0 409.6 204.8 204.8 0 0 0 0-409.6zm102.4 233.472a34.133 34.133 0 0 1 6.144 67.652l-6.144.614h-204.8a34.133 34.133 0 0 1-6.144-67.72l6.144-.546h204.8zm0-119.808a34.133 34.133 0 0 1 6.144 67.72l-6.144.546h-204.8a34.133 34.133 0 0 1-6.144-67.72l6.144-.546h204.8zM571.051 124.587h-97.485a68.267 68.267 0 0 0-67.448 57.822l-6.007 38.434h244.258l-5.87-38.434a68.267 68.267 0 0 0-59.802-57.344l-7.646-.478z"/></svg>