<svg class="icon" viewBox="0 0 1024 1024" xmlns="http://www.w3.org/2000/svg" width="200" height="200"><defs><style/></defs><path d="M479.744 69.44a416.064 416.064 0 0 1 290.88 713.408l123.84 129.024A32 32 0 0 1 852.672 960l-4.352-3.776-126.912-132.096a416.192 416.192 0 0 1-653.312-399.04A416.064 416.064 0 0 1 479.744 69.44zm0 64A352.064 352.064 0 0 0 136.96 566.208a352.128 352.128 0 0 0 684.48 3.84 352.96 352.96 0 0 0 7.552-128.512A352.064 352.064 0 0 0 479.68 133.44zm8.384 171.776l1.6 5.44 48.32 241.088 51.84-60.864a32 32 0 0 1 18.88-10.816l5.568-.448h124.8a32 32 0 0 1 5.76 63.488l-5.76.512h-110.08L544 643.456a32 32 0 0 1-54.208-9.088l-1.536-5.376L443.328 404.8l-72.96 123.072a32 32 0 0 1-21.952 15.168l-5.568.512H224.192a32 32 0 0 1-5.76-63.488l5.76-.512h100.416l106.24-179.008a32 32 0 0 1 57.28 4.608z"/></svg>