<svg class="icon" viewBox="0 0 1024 1024" xmlns="http://www.w3.org/2000/svg" width="200" height="200"><defs><style/></defs><path d="M225.553 52.292A170.667 170.667 0 0 0 54.886 222.96v616.107a170.667 170.667 0 0 0 159.403 170.257l11.264.41c13.38 0 26.42-1.57 38.912-4.506h584.431c86.084 0 155.648-70.998 161.041-159.54l.341-11.195V459.025c0-108.544-79.872-198.178-181.725-204.459l-11.401-.34H396.22v-31.267A170.667 170.667 0 0 0 225.553 52.292zm0 684.374a102.4 102.4 0 0 1 101.922 92.5l.478 9.9a102.4 102.4 0 0 1-72.294 97.894h-12.63v3.004l-7.509 1.024a102.4 102.4 0 0 1-111.82-92.092l-.479-9.83a102.4 102.4 0 0 1 102.4-102.4zM396.22 322.492h420.932c65.126 0 119.467 54.954 124.45 125.815l.41 10.718v375.467c0 53.726-37.41 97.007-84.241 101.922l-8.875.478H365.363c19.388-27.648 30.857-61.44 30.857-97.826V322.492zM225.553 120.559a102.4 102.4 0 0 1 101.922 92.433l.478 9.899v479.573a169.916 169.916 0 0 0-102.4-34.133c-38.502 0-73.933 12.697-102.468 34.133V222.959a102.4 102.4 0 0 1 102.4-102.4z"/></svg>