<svg class="icon" viewBox="0 0 1024 1024" xmlns="http://www.w3.org/2000/svg" width="200" height="200"><defs><style/></defs><path d="M344.512 123.264c37.76 37.76 53.184 89.472 46.208 138.56l115.264 115.328a32 32 0 0 1 5.12 6.656l118.464-118.592A163.264 163.264 0 1 1 768.192 403.84l-118.4 118.272c1.984 1.28 3.904 2.752 5.632 4.48l205.632 205.632c10.88 10.88 20.608 22.848 28.864 35.52l7.744 12.8 45.504 82.176c22.912 41.28 10.688 89.728-34.368 99.84-15.104 3.392-31.296 1.28-46.656-5.312l-9.088-4.48-82.112-45.44a218.752 218.752 0 0 1-48.384-36.608L513.92 662.08l-1.92-2.304-214.272 214.4c-10.88 10.88-22.848 20.608-35.52 28.8l-12.8 7.808-82.176 45.44c-41.28 22.912-89.792 10.688-99.84-34.368a76.48 76.48 0 0 1 5.248-46.592l4.48-9.088L122.56 784a215.68 215.68 0 0 1 26.176-37.12l10.496-11.2 214.656-214.72a32.128 32.128 0 0 1-5.184-4.224l-116.48-116.48a163.264 163.264 0 1 1 92.352-277.12zm309.76 207.872L204.48 780.928c-7.744 7.744-14.72 16.256-20.48 25.088l-5.376 8.96-45.504 82.176-1.792 3.584-1.152 3.456 1.6-1.28 4.48-2.624 82.112-45.504c9.088-5.056 17.92-11.264 26.112-18.432l8-7.488 449.728-449.728a163.968 163.968 0 0 1-47.936-48zm-48.64 235.072l-48.64 48.64 2.176 1.92 208.64 208.64c7.808 7.808 16.256 14.72 25.152 20.48l8.96 5.44 82.176 45.504 3.584 1.728 3.456 1.152-1.28-1.536-2.688-4.48-45.44-82.112a154.752 154.752 0 0 0-25.92-34.112L610.176 571.84a32.128 32.128 0 0 1-4.48-5.632zm-261.12-212.032c-8.192 8.256-17.088 15.36-26.432 21.504l95.872 95.872a32.128 32.128 0 0 1 4.224 5.248l49.28-49.28a31.808 31.808 0 0 1-2.304-1.408l-4.48-3.712-94.592-94.72a163.968 163.968 0 0 1-21.504 26.496zm376.512-182.208A99.264 99.264 0 1 0 861.44 312.32a99.264 99.264 0 0 0-140.416-140.416zm-562.176-3.456A99.264 99.264 0 0 0 253.12 335.04a12.16 12.16 0 0 1 3.2-.96 98.816 98.816 0 0 0 68.288-68.224c0-1.024.32-2.112.64-3.2a98.624 98.624 0 0 0-25.984-94.144 99.264 99.264 0 0 0-140.416 0z"/></svg>