<svg class="icon" viewBox="0 0 1024 1024" xmlns="http://www.w3.org/2000/svg" width="200" height="200"><defs><style/></defs><path d="M613.76 134.912l10.176 11.2 82.944 103.936c44.48-24.768 84.16-33.088 119.744-25.472l8.512 2.176c64.96 18.88 100.864 85.504 118.656 182.72 5.632 30.72 9.152 63.232 11.008 96.64 1.216 22.656 1.536 39.552 1.536 62.272 0 237.568-186.88 384.768-448.896 384.768-261.952 0-448.832-147.2-448.832-384.768 0-127.04 48.512-291.2 117.12-366.4 27.776-30.528 77.312-31.104 133.44-9.856l76.8-65.92a160 160 0 0 1 217.856 8.704zM232.96 245.12C176.64 306.944 132.608 456 132.608 568.448c0 198.4 155.328 320.768 384.832 320.768 229.568 0 384.896-122.304 384.896-320.768l-.32-29.568c-.192-9.28-.576-18.56-1.152-29.184a711.04 711.04 0 0 0-9.984-88.576c-13.824-75.52-39.424-122.88-73.6-132.864-45.312-13.184-120.512 28.8-225.856 144.64l-6.848 7.68 3.584 7.04c36.608 73.92 53.568 155.392 45.44 239.36l-2.112 18.112a32 32 0 0 1-63.36-8.832c18.56-133.952-38.848-263.104-143.104-359.936-81.408-75.52-174.912-110.016-192-91.2zm212.48-76.288l-7.808 6.016-56.128 48.256a578.112 578.112 0 0 1 160.32 148.352l8.32 11.776 7.36-7.872a844.16 844.16 0 0 1 96.128-89.472l-80.64-100.928a96 96 0 0 0-127.616-16.256z"/></svg>