<svg class="icon" viewBox="0 0 1088 1024" xmlns="http://www.w3.org/2000/svg" width="212.5" height="200"><defs><style/></defs><path d="M294.016 57.664c42.88 0 80.768 21.76 103.168 54.848l.32-.064a436.992 436.992 0 0 1 514.688 122.368 124.416 124.416 0 0 1 92.352 219.648l.128.384 3.456 25.856c.896 7.616 1.6 14.336 2.048 20.48l.832 17.28c.128 8.192-.128 16-.768 24.384a435.2 435.2 0 0 1-126.848 278.08A435.84 435.84 0 0 1 501.44 942.72a31.936 31.936 0 0 1-10.752-3.648l-.96-.64a124.416 124.416 0 0 1-208.64-102.592l-.064-.128-15.488-14.72a437.056 437.056 0 0 1-60.864-541.824 32.064 32.064 0 0 1 4.736-5.888 124.416 124.416 0 0 1 84.544-215.616zm111.04 729.216c-23.68 0-44.16 13.632-54.144 33.472l.768-3.968a53.248 53.248 0 0 1-5.76 18.432 60.416 60.416 0 1 0 59.072-48zm454.976-322.368l-5.248 7.68a95.287 95.287 0 0 1-13.184 14.272L542.144 751.616a96 96 0 0 1-47.232 22.72l9.344-2.176a123.904 123.904 0 0 1 20.48 109.248l17.664 2.048A371.84 371.84 0 0 0 838.144 775.68a371.264 371.264 0 0 0 108.288-237.312l.64-13.056-.384-13.312a295.68 295.68 0 0 0-1.28-15.616l-1.728-14.72a125.44 125.44 0 0 1-83.712-17.152zM262.976 302.656a30.464 30.464 0 0 1-4.224 10.688 373.056 373.056 0 0 0 40.704 450.56l7.04 7.296c20.48-26.432 51.392-44.416 86.528-47.744A93.76 93.76 0 0 1 384 696.128l-62.144-358.784a96 96 0 0 1 1.664-40.448l-1.28 6.464a124.8 124.8 0 0 1-59.2-.64zm161.408-12.672a32 32 0 0 0-39.552 36.416l62.144 358.848a32 32 0 0 0 52.736 18.496l299.52-265.216a32 32 0 0 0-13.248-54.912zm500.928 8.128a60.864 60.864 0 0 0-9.92.768l3.648-2.048a31.872 31.872 0 0 1-17.28 6.208 59.968 59.968 0 0 0-36.928 55.488 60.416 60.416 0 1 0 60.48-60.416zM423.36 170.88l-5.312 1.792a126.208 126.208 0 0 1-7.296 52.48c9.664-.704 19.712.192 29.696 2.752l361.6 93.696a96 96 0 0 1 4.096 1.152 124.16 124.16 0 0 1 43.072-62.72 372.992 372.992 0 0 0-425.856-89.088zM294.016 121.6a60.416 60.416 0 1 0 0 120.896 60.416 60.416 0 0 0 0-120.896z"/></svg>