<svg class="icon" viewBox="0 0 1024 1024" xmlns="http://www.w3.org/2000/svg" width="200" height="200"><defs><style/></defs><path d="M640 132.992a96 96 0 0 1 95.552 86.784l.448 9.216-.064 24.064H768a96 96 0 0 1 95.552 86.784l.448 9.28-.064 95.68h3.776a96 96 0 0 1 95.552 86.784l.448 9.28v329.664a96 96 0 0 1-96 96H158.656a96 96 0 0 1-95.296-96.64l2.368-329.728a96 96 0 0 1 96-95.36l-1.792.064.064-95.744a96 96 0 0 1 86.784-95.552l9.216-.448 31.936-.064.064-24.064a96 96 0 0 1 86.784-95.552l9.216-.448h256zM275.136 508.864H161.728a32 32 0 0 0-32 31.744L127.36 870.4a32 32 0 0 0 31.552 32.192h708.8a32 32 0 0 0 32-32V540.864a32 32 0 0 0-32-32H752a32 32 0 0 0-32 32v30.976a96 96 0 0 1-96 96H403.136a96 96 0 0 1-96-96V540.8a32 32 0 0 0-32-32zM768 317.12H256a32 32 0 0 0-31.488 26.24l-.512 5.76-.064 95.68h51.2a96 96 0 0 1 95.552 86.784l.448 9.28v30.976a32 32 0 0 0 32 32h220.8a32 32 0 0 0 32-32V540.8a96 96 0 0 1 96-96l48-.064.064-95.68a32 32 0 0 0-26.24-31.488l-5.76-.448zM640 196.992H384a32 32 0 0 0-31.488 26.24l-.512 5.76-.064 24.064h320l.064-24.064a32 32 0 0 0-26.24-31.488l-5.76-.512z"/></svg>