<svg class="icon" viewBox="0 0 1024 1024" xmlns="http://www.w3.org/2000/svg" width="200" height="200"><defs><style/></defs><path d="M817.408 136.384a32 32 0 0 1 5.76 63.488l-5.76.512h-44.16V410.88a95.927 95.927 0 0 0 4.608 29.44l3.52 9.28 168.192 381.952a96 96 0 0 1-88.256 134.656l-696.064-2.752a96 96 0 0 1-86.144-137.6L180.48 614.848a32 32 0 0 1 5.312-10.944l76.416-158.784a96 96 0 0 0 9.472-41.6v-203.2h-65.152a32 32 0 0 1-5.76-63.488l5.76-.512h610.816zm-580.224 508.16l-100.416 208.96a32 32 0 0 0 28.736 45.888l696.064 2.752a32 32 0 0 0 29.44-44.864L799.04 648.384c-62.272 59.584-151.872 62.08-261.76 10.112l-14.08-6.848c-110.592-56-204.544-57.792-286.016-7.168zm471.936-444.16H335.616l.064 203.072a160 160 0 0 1-6.528 45.312l-3.648 10.88-5.632 13.184L280 555.648c78.016-22.656 163.648-12.16 255.424 30.72l16.64 8.128c105.536 53.44 174.72 48.512 218.624-10.56l-47.872-108.608a160 160 0 0 1-13.568-64.512l-.128-210.432z"/></svg>