<svg class="icon" viewBox="0 0 1024 1024" xmlns="http://www.w3.org/2000/svg" width="200" height="200"><defs><style/></defs><path d="M371.968 67.264a64 64 0 0 1 64 64l-.128 224.896 164.48-163.712c37.888-37.888 96.32-43.52 134.976-12.16l6.976 6.272 136.192 136.192c35.968 35.968 34.688 94.272 1.152 134.272l-6.656 7.232-134.272 138.88h119.36c52.8 0 97.92 34.88 102.784 81.92l.448 8.32V869.76c0 48.32-42.24 85.888-94.016 89.856l-9.216.384H128a64 64 0 0 1-64-64V131.264a64 64 0 0 1 64-64h243.968zm486.144 598.848h-180.16L454.72 897.024h403.392c20.48 0 35.84-10.88 38.784-23.168l.448-4.096V693.44c0-12.416-13.312-24.64-32.64-26.944l-6.592-.384zM371.968 131.2H128V896h243.968V131.264zM249.984 705.088a74.368 74.368 0 1 1 0 148.736 74.368 74.368 0 0 1 0-148.736zm401.28-472.32l-5.632 4.864L449.856 432.64l-.64 1.024-3.84 4.288-9.472 8.704v377.792l391.488-405.056c14.592-14.528 17.28-34.432 9.344-47.04L833.28 368 697.088 231.808c-10.624-10.56-30.08-10.688-45.76 1.024z"/></svg>