<svg class="icon" viewBox="0 0 1024 1024" xmlns="http://www.w3.org/2000/svg" width="380" height="380"><defs><style/></defs><path d="M1014.749 512a125.687 125.687 0 0 0-125.687-125.687H630.46l53.229-92.255a125.687 125.687 0 0 0-46.002-171.688l-54.422-31.422a125.687 125.687 0 0 0-171.69 46.001L327.68 282.307V134.938A125.687 125.687 0 0 0 201.993 9.251h-62.844A125.687 125.687 0 0 0 13.462 134.938v754.124a125.687 125.687 0 0 0 125.687 125.687h62.844c21.178 0 41.1-5.216 58.633-14.454l-.063-2.388c18.476 10.683 39.968 16.842 62.906 16.842h565.593a125.687 125.687 0 0 0 125.687-125.687zM264.836 134.938v256.214l-8.547 14.58C221.097 428.04 197.782 467.38 197.782 512l.189-5.09L76.305 717.687V134.938a62.844 62.844 0 0 1 55.491-62.403l7.353-.44h62.844a62.844 62.844 0 0 1 62.403 55.49l.44 7.353zm-53.668 810.683l-3.897.817a62.53 62.53 0 0 1-34.375-4.4l-6.536-3.33-54.422-31.422a62.844 62.844 0 0 1-26.332-79.246l3.33-6.598 108.846-188.468v256.088c0 20.36 4.839 39.591 13.386 56.559zM951.905 512v89.49L684.003 752.313 564.16 672.25l-5.027-2.702a31.422 31.422 0 0 0-27.463 1.257l-271.044 147.87V512a62.844 62.844 0 0 1 55.49-62.404l7.353-.44h565.593l7.352.44A62.844 62.844 0 0 1 951.905 512zm0 161.634v215.428l-.44 7.352a62.844 62.844 0 0 1-62.403 55.491H323.469l-7.353-.44a62.844 62.844 0 0 1-55.49-62.403l.062 1.068 284.368-155.098 120.22 80.314 5.09 2.828a31.422 31.422 0 0 0 27.777-1.571l253.762-142.97zm-502.749-98.79a62.844 62.844 0 1 0-125.687 0 62.844 62.844 0 0 0 125.687 0zM632.534 256.1l-3.268 6.536-71.39 123.676h-217.69L465.998 168.37a62.844 62.844 0 0 1 79.246-26.268l6.599 3.267 54.422 31.422a62.844 62.844 0 0 1 26.269 79.309z"/></svg>