<svg class="icon" viewBox="0 0 1024 1024" xmlns="http://www.w3.org/2000/svg" width="200" height="200"><defs><style/></defs><path d="M127.744 383.36c148.224-45.12 274.56-41.792 377.472 11.456l14.528 7.936c83.392 48 197.568 45.44 344.064-10.496l20.16-7.936 24.064 59.264C742.272 511.04 606.08 519.168 500.8 465.28l-12.992-7.04c-84.16-48.512-190.592-55.488-320.704-19.648l-20.736 6.016-18.624-61.248z"/><path d="M923.392 404.544c56.832 56.896 59.2 147.584 7.04 207.296l-7.04 7.616-31.36 31.36a32 32 0 0 1-48.96-40.832l3.648-4.48 31.36-31.36a87.936 87.936 0 0 0 5.76-118.016l-5.76-6.272-303.936-304a87.936 87.936 0 0 0-118.016-5.696l-6.272 5.76-304 303.936a87.936 87.936 0 0 0-5.696 118.016l5.76 6.272 303.936 304a87.936 87.936 0 0 0 118.016 5.696l6.272-5.76 60.864-60.8a32 32 0 0 1 48.96 40.832l-3.712 4.416-60.8 60.8a151.936 151.936 0 0 1-207.296 7.168l-7.616-7.168L100.672 619.52a151.936 151.936 0 0 1-7.232-207.36l7.168-7.616L404.48 100.672a151.936 151.936 0 0 1 207.36-7.232l7.616 7.168L923.392 404.48z"/><path d="M772.544 530.688c52.352 0 85.696 61.568 106.816 125.44l6.592 21.376 3.008 10.56 7.68 30.72c.832 3.2 1.536 6.4 2.24 9.6 5.056 22.592 8.96 49.728 11.648 81.472A138.24 138.24 0 0 1 772.736 960a147.456 147.456 0 0 1-145.664-169.856c3.072-20.224 7.296-40.96 12.672-62.4l8.128-31.296c29.44-109.76 58.112-165.76 124.672-165.76zm0 64c-10.752 0-20.16 5.76-30.08 23.744l-5.504 11.008-5.632 13.696-5.888 16.512-6.208 19.648-6.592 22.912-7.04 26.496a620.672 620.672 0 0 0-15.232 71.168A83.584 83.584 0 0 0 772.672 896l6.4-.256a74.24 74.24 0 0 0 67.648-80.384 568.704 568.704 0 0 0-10.368-73.088c-20.032-89.92-49.6-147.584-63.872-147.584z"/></svg>