<svg class="icon" viewBox="0 0 1024 1024" xmlns="http://www.w3.org/2000/svg" width="200" height="200"><defs><style/></defs><path d="M906.816 543.936a64 64 0 0 1 62.4 78.08c-16.192 71.488-55.04 139.136-116.48 203.008-61.44 63.936-132.928 105.728-214.336 125.44a64 64 0 0 1-79.104-62.144v-99.392a64 64 0 0 1 36.928-57.984l6.912-2.752c31.36-10.432 61.952-32.192 91.776-65.28 14.464-16 28.416-41.856 41.792-77.504a64 64 0 0 1 59.904-41.472h110.208zm-667.648 0a64 64 0 0 1 59.904 41.472c13.44 35.648 27.392 61.504 41.792 77.568C370.688 696 401.28 717.76 432.64 728.192l6.912 2.752a64 64 0 0 1 36.928 57.984v99.392a64 64 0 0 1-79.04 62.208c-81.408-19.776-152.896-61.568-214.4-125.44C121.6 761.152 82.752 693.504 66.56 622.08a64 64 0 0 1 62.464-78.144zm667.648 64H796.608c-16 42.496-33.408 74.88-54.144 97.92-32.64 36.16-67.584 62.4-104.96 77.76l-14.208 5.312v99.392l17.216-4.608c62.272-18.304 117.376-52.352 166.144-103.04 48.832-50.752 80.512-102.848 96-156.608l4.16-16.128zm-667.648 0H129.024l4.16 16.128c15.424 53.76 47.104 105.856 96 156.608 48.704 50.688 103.872 84.736 166.144 103.04l17.152 4.608v-99.392l-14.144-5.312c-37.44-15.36-72.32-41.6-104.96-77.824-20.736-22.976-38.208-55.36-54.208-97.92zm281.6-306.304a198.016 198.016 0 1 1 0 396.096 198.016 198.016 0 0 1 0-396.096zm0 64a134.016 134.016 0 1 0 0 268.096 134.016 134.016 0 0 0 0-268.096zm40.32-251.392A64 64 0 0 1 638.4 67.136c81.408 19.712 152.832 61.568 214.4 125.44 61.44 63.872 100.224 131.52 116.48 203.008a64 64 0 0 1-62.464 78.08H796.608a64 64 0 0 1-59.904-41.408c-13.44-35.712-27.328-61.568-41.792-77.568-29.824-33.024-60.416-54.784-91.776-65.216l-6.912-2.752a64 64 0 0 1-36.928-57.984v-99.392a64 64 0 0 1 1.856-15.104zm-86.4 0a64 64 0 0 1 1.792 15.104v99.392a64 64 0 0 1-36.928 57.984l-6.912 2.752c-31.36 10.432-61.952 32.192-91.776 65.216-14.4 16-28.352 41.856-41.792 77.568a64 64 0 0 1-59.904 41.472H129.024A64 64 0 0 1 66.56 395.52c16.192-71.488 55.04-139.136 116.48-203.008 61.504-63.872 132.992-105.728 214.4-125.44a64 64 0 0 1 77.248 47.104zm148.608 15.104v99.392l14.208 5.248c37.376 15.36 72.32 41.6 104.96 77.824 20.736 23.04 38.208 55.36 54.144 97.92h110.208l-4.16-16.192c-15.488-53.76-47.168-105.792-96-156.544-48.768-50.688-103.872-84.8-166.144-103.04l-17.216-4.608zm-210.816 0l-17.152 4.608c-62.272 18.24-117.44 52.352-166.144 103.04-48.896 50.752-80.576 102.848-96 156.544l-4.16 16.192h110.144c16-42.56 33.472-74.88 54.208-97.92 32.64-36.224 67.52-62.464 104.96-77.824l14.144-5.248v-99.392z"/></svg>