<svg class="icon" viewBox="0 0 1024 1024" xmlns="http://www.w3.org/2000/svg" width="200" height="200"><defs><style/></defs><path d="M554.368 65.024a128 128 0 0 1 115.392 72.512 20.224 20.224 0 0 1 2.048 2.624l2.752 5.12 233.472 536.128a96 96 0 0 1-41.408 122.24l-9.472 4.608-180.928 73.408a128 128 0 0 1-121.856 88.704h-256.64a128 128 0 0 1-128-128V193.024a128 128 0 0 1 128-128h256.64zm0 64h-256.64a64 64 0 0 0-63.552 56.576l-.448 7.424v165.824l86.144.064a32 32 0 0 1 5.76 63.488l-5.76.512h-86.208v161.664H385.92a32 32 0 0 1 5.76 63.552l-5.76.512H233.664l.064 193.728a64 64 0 0 0 56.576 63.552l7.424.448h256.64a64 64 0 0 0 63.552-56.576l.448-7.424V193.024a64 64 0 0 0-56.512-63.552l-7.488-.448zm128 194.368v486.592l150.4-60.864a32 32 0 0 0 18.368-36.672l-1.792-5.44-167.04-383.616z"/></svg>