<svg class="icon" viewBox="0 0 1024 1024" xmlns="http://www.w3.org/2000/svg" width="200" height="200"><defs><style/></defs><path d="M383.488 70.72c78.592 0 148.864 35.712 195.392 91.84 3.2 1.92 6.208 4.48 8.704 7.552l3.2 4.8 9.28 17.152c5.12 8.32 9.728 17.024 13.888 25.984L888 726.976a96 96 0 0 1-39.04 130.048l-4.224 2.112-4.288 1.92-239.232 99.968a32.128 32.128 0 0 1-6.016 1.792 63.552 63.552 0 0 1-21.888 3.84H193.664a64 64 0 0 1-64-64V324.48A253.824 253.824 0 0 1 383.488 70.72zm0 64a189.824 189.824 0 0 0-189.44 178.624l-.384 11.136v578.24h379.648V324.48a189.824 189.824 0 0 0-189.824-189.76zm253.76 261.696v480.128l178.56-74.56a32 32 0 0 0 18.112-39.36l-2.304-5.312-194.368-360.96zm-253.76-186.24a96 96 0 1 1 0 192 96 96 0 0 1 0-192zm0 64a32 32 0 1 0 0 64 32 32 0 0 0 0-64z"/></svg>