<svg class="icon" viewBox="0 0 1024 1024" xmlns="http://www.w3.org/2000/svg" width="200" height="200"><defs><style/></defs><path d="M715.98 360.926a300.646 300.646 0 1 1 0 601.224 300.646 300.646 0 0 1 0-601.224zm-6.553-348.638a34.133 34.133 0 0 1 33.587 27.99l.547 6.143v58.437l112.64.068c86.357 0 154.76 76.527 160.085 171.076l.341 11.879v77.55a34.133 34.133 0 0 1-67.72 6.144l-.546-6.144V287.95c0-60.894-37.957-109.022-83.968-114.21l-8.192-.478H221.32c-46.763 0-87.382 44.783-91.75 104.106l-.41 10.582v446.464c0 60.962 38.024 109.158 83.968 114.278l8.192.478h146.773a34.133 34.133 0 0 1 6.144 67.72l-6.144.547H221.32c-86.358 0-154.761-76.527-160.086-171.077l-.341-11.878V288.017c0-95.983 64.99-176.333 149.777-182.613l10.65-.41h112.64V46.421a34.133 34.133 0 0 1 67.72-6.144l.546 6.144v58.437h273.067V46.49a34.133 34.133 0 0 1 34.133-34.134zm6.554 416.836a232.38 232.38 0 1 0 0 464.691 232.38 232.38 0 0 0 0-464.69zm-18.023 56.184a34.133 34.133 0 0 1 33.588 27.99l.546 6.143v153.054h116.736a34.133 34.133 0 0 1 33.519 27.99l.546 6.143a34.133 34.133 0 0 1-27.99 33.587l-6.144.547h-150.8a34.133 34.133 0 0 1-33.588-27.99l-.546-6.144V519.51a34.133 34.133 0 0 1 34.133-34.133zM333.961 473.77a34.133 34.133 0 0 1 6.144 67.72l-6.144.546h-68.267a34.133 34.133 0 0 1-6.144-67.72l6.144-.546h68.267zm136.533-170.462a34.133 34.133 0 0 1 6.144 67.652l-6.144.614h-204.8a34.133 34.133 0 0 1-6.144-67.72l6.144-.546h204.8z"/></svg>