<svg class="icon" viewBox="0 0 1024 1024" xmlns="http://www.w3.org/2000/svg" width="200" height="200"><defs><style/></defs><path d="M884.352 555.392a64 64 0 0 1 62.272 78.72c-16.064 68.224-53.504 132.8-112.256 193.92-58.88 61.184-127.296 101.504-205.056 120.96a64 64 0 0 1-79.488-62.144v-92.48a64 64 0 0 1 35.904-57.536l7.552-3.072c30.08-10.24 59.456-31.232 88.064-62.912 13.824-15.36 27.2-40.064 40.064-74.112a64 64 0 0 1 59.904-41.344h103.04zm-646.784 0a64 64 0 0 1 59.84 41.344c12.928 34.048 26.24 58.752 40.128 74.112 28.608 31.68 57.984 52.672 88.064 62.912l7.552 3.072a64 64 0 0 1 35.84 57.536v92.48a64 64 0 0 1-79.488 62.08c-77.76-19.392-146.048-59.712-204.992-120.96C125.76 766.912 88.32 702.336 72.256 634.112a64 64 0 0 1 62.272-78.72zm646.784 64h-103.04c-15.488 40.832-32.384 72-52.48 94.272-31.488 34.944-65.216 60.416-101.312 75.52l-13.696 5.12v92.544l17.792-4.928c58.56-17.92 110.528-50.432 156.672-98.304 46.464-48.32 76.8-97.856 91.968-148.864l4.096-15.36zm-646.784 0h-103.04l4.096 15.36c15.168 51.008 45.44 100.48 91.968 148.864 46.08 47.872 98.112 80.448 156.672 98.304l17.728 4.928v-92.48l-13.632-5.184c-36.16-15.104-69.76-40.576-101.312-75.52-20.096-22.272-36.992-53.44-52.48-94.272zM512.448 320a192 192 0 1 1 0 384 192 192 0 0 1 0-384zm0 64a128 128 0 1 0 0 256 128 128 0 0 0 0-256zm39.296-244.16a64 64 0 0 1 77.568-46.592c77.76 19.456 146.112 59.776 205.056 120.96 58.752 61.056 96.192 125.696 112.256 193.92a64 64 0 0 1-62.272 78.72h-103.04a64 64 0 0 1-59.904-41.408c-12.8-33.984-26.24-58.688-40.064-74.048-28.608-31.744-57.984-52.672-88.064-62.912l-7.552-3.072a64 64 0 0 1-35.84-57.536v-92.48a64 64 0 0 1 1.92-15.552zm-84.608 0a64 64 0 0 1 1.92 15.552v92.48a64 64 0 0 1-35.904 57.536l-7.552 3.072c-30.08 10.24-59.456 31.168-88.064 62.912-13.824 15.36-27.2 40.064-40.128 74.048a64 64 0 0 1-59.84 41.344h-103.04a64 64 0 0 1-62.272-78.72c16.064-68.16 53.504-132.8 112.256-193.856 58.88-61.184 127.232-101.504 204.992-120.96a64 64 0 0 1 77.632 46.592zm146.688 15.552v92.48l13.696 5.12c36.096 15.168 69.76 40.576 101.312 75.52 20.096 22.272 36.992 53.504 52.48 94.272h103.04l-4.096-15.36c-15.168-50.944-45.504-100.48-91.968-148.8-46.08-47.936-98.112-80.448-156.672-98.304l-17.792-4.928zm-208.832 0l-17.728 4.928c-58.56 17.856-110.528 50.368-156.672 98.304-46.464 48.32-76.8 97.856-91.968 148.8l-4.096 15.36h103.04c15.488-40.768 32.384-72 52.48-94.272 31.488-34.944 65.152-60.352 101.312-75.52l13.632-5.12v-92.48z"/></svg>