<svg class="icon" viewBox="0 0 1024 1024" xmlns="http://www.w3.org/2000/svg" width="200" height="200"><defs><style/></defs><path d="M868.8 70.784a32 32 0 0 1 6.08 63.424l-5.76.576-35.008.192v124.672a286.336 286.336 0 0 1-159.104 256.64 286.144 286.144 0 0 1 146.88 250.176v131.2l46.912-.256a32 32 0 0 1 6.08 63.488l-5.76.512-353.664 1.92-309.312 1.92v-.256l-47.552.256a32 32 0 0 1-6.144-63.424l5.76-.576 47.936-.256V766.464a286.336 286.336 0 0 1 159.232-256.64 286.08 286.08 0 0 1-146.944-250.176V138.24l-59.84.384a32 32 0 0 1-6.144-63.488l5.76-.512 710.592-3.84zM477.12 544.64l-8.832.64A222.4 222.4 0 0 0 270.144 766.4l-.064 134.208 318.336-1.728 169.472-1.088V766.4a222.4 222.4 0 0 0-196.032-220.8h-.576l-13.44.384h-43.008c-9.344 0-18.56-.448-27.712-1.344zM282.432 138.752v120.96a222.4 222.4 0 0 0 196.096 220.8c4.608-.32 9.28-.448 14.016-.448h43.008c9.408 0 18.688.448 27.84 1.344a222.272 222.272 0 0 0 206.72-221.76V141.696l-487.68-2.944z"/></svg>