<svg class="icon" viewBox="0 0 1088 1024" xmlns="http://www.w3.org/2000/svg" width="212.5" height="200"><defs><style/></defs><path d="M888.96 64a128 128 0 0 1 128 128v440.448a128 128 0 0 1-128 128H613.888v129.024H857.92a32 32 0 0 1 32 32v5.696a32 32 0 0 1-32 32H287.04a32 32 0 0 1-32-32v-5.632a32 32 0 0 1 32-32l262.848-.064V760.448H256a128 128 0 0 1-128-128V192A128 128 0 0 1 256 64h632.96zm0 64H256a64 64 0 0 0-63.552 56.512L192 192v440.448a64 64 0 0 0 56.512 63.616l7.488.384h632.96a64 64 0 0 0 63.552-56.512l.448-7.488V192a64 64 0 0 0-56.576-63.552L888.96 128zM394.24 382.656a32 32 0 0 1 31.424 26.24l.512 5.76V553.92a32 32 0 0 1-63.488 5.76l-.512-5.76v-139.2a32 32 0 0 1 32-32zM576 303.936a32 32 0 0 1 31.424 26.24l.512 5.76V553.92a32 32 0 0 1-63.488 5.76l-.512-5.76V336a32 32 0 0 1 32-32zm185.728-46.272a32 32 0 0 1 31.488 26.24l.512 5.76v264.32a32 32 0 0 1-63.488 5.696l-.512-5.76V289.664a32 32 0 0 1 32-32z"/></svg>