<svg class="icon" viewBox="0 0 1088 1024" xmlns="http://www.w3.org/2000/svg" width="212.5" height="200"><defs><style/></defs><path d="M749.568 366.016c40.448 0 73.664 30.72 77.696 70.08l.384 8v44.032a128 128 0 0 1 77.696 89.6l53.76 227.072A128 128 0 0 1 834.56 962.24H571.968A128 128 0 0 1 447.36 805.12l53.12-227.072a128 128 0 0 1 78.72-90.304l.128-43.648c0-40.448 30.72-73.664 70.08-77.696l8-.384h92.16zm31.232 177.28H625.088a64 64 0 0 0-60.224 42.304l-2.112 7.04-53.12 227.072a64 64 0 0 0 54.848 78.144l7.488.448H834.56a64 64 0 0 0 63.616-71.36l-1.28-7.36-53.76-227.072a64 64 0 0 0-55.04-48.832l-7.296-.448zM362.048 58.112c21.76 0 42.752 7.488 59.264 20.928l6.784 6.144 66.688 66.688a28.8 28.8 0 0 0 14.912 7.68l5.952.64H776c79.616 0 145.536 58.816 150.912 134.144l.384 9.92v70.848a32 32 0 0 1-63.488 5.76l-.512-5.76V304.32c0-41.024-33.984-75.52-78.336-79.68l-8.96-.448H515.648c-21.76 0-42.816-7.424-59.328-20.864l-6.784-6.144-66.688-66.688a28.8 28.8 0 0 0-14.912-7.68l-5.888-.64h-117.76c-45.632 0-82.496 32-86.912 72.064l-.448 8.128v505.28c0 41.024 33.92 75.52 78.336 79.68l8.96.448h103.552a32 32 0 0 1 5.76 63.488l-5.76.512H244.224c-79.68 0-145.6-58.88-150.912-134.208l-.384-9.92v-505.28c0-76.736 62.592-138.752 140.992-143.808l10.304-.32h117.76zm387.52 371.84h-92.16a14.08 14.08 0 0 0-13.568 10.304l-.512 3.776v35.136h120.32v-35.2a14.08 14.08 0 0 0-10.368-13.504l-3.712-.512z"/></svg>