<svg class="icon" viewBox="0 0 1024 1024" xmlns="http://www.w3.org/2000/svg" width="200" height="200"><defs><style/></defs><path d="M511.232 64a448 448 0 1 1 0 896 448 448 0 0 1 0-896zm0 64a384 384 0 1 0 0 768 384 384 0 0 0 0-768zm90.112 201.856l90.56 90.496a128 128 0 0 1 0 180.992l-90.56 90.56a128 128 0 0 1-180.992 0l-90.496-90.56a128 128 0 0 1 0-180.992l90.496-90.496a128 128 0 0 1 180.992 0zm-130.176 40.32l-5.568 4.928-90.496 90.496a64 64 0 0 0-4.992 84.928l4.992 5.568 90.496 90.56a64 64 0 0 0 84.928 4.928l5.568-4.928 90.56-90.56a64 64 0 0 0 4.928-84.928l-4.928-5.568-90.56-90.496a64 64 0 0 0-84.928-4.992z"/></svg>