<svg class="icon" viewBox="0 0 1024 1024" xmlns="http://www.w3.org/2000/svg" width="200" height="200"><defs><style/></defs><path d="M610.752 102.4l9.728 7.808 9.792 8.32A598.464 598.464 0 0 0 862.08 241.28a147.648 147.648 0 0 1 105.728 172.672C891.52 778.88 739.648 961.28 512.128 961.28c-228.608 0-380.928-187.2-456.96-561.6a151.36 151.36 0 0 1 101.76-174.144A822.4 822.4 0 0 0 363.52 124.8l23.68-16.576 9.472-6.912a180.672 180.672 0 0 1 214.016 1.088zm-167.424 44.8l-8.96 5.888L424.96 160a886.4 886.4 0 0 1-248.384 126.4c-42.304 13.696-67.584 56.96-58.752 100.48 70.72 348.16 202.752 510.4 394.24 510.4 190.912 0 322.24-157.76 393.088-496.448a83.648 83.648 0 0 0-59.904-97.856 662.464 662.464 0 0 1-237.696-120.192l-18.88-15.552-9.792-8.384A116.672 116.672 0 0 0 443.328 147.2zM628.8 577.024a32 32 0 0 1 31.488 26.24l.512 5.76v55.68a149.632 149.632 0 0 1-298.88 10.24l-.384-10.24V609.6a32 32 0 0 1 63.488-5.76l.512 5.76v55.168a85.632 85.632 0 0 0 170.88 8.192l.384-8.192v-55.68a32 32 0 0 1 32-32zM511.168 430.72a32 32 0 0 1 31.488 26.24l.512 5.76v159.168a32 32 0 0 1-63.488 5.76l-.512-5.76V462.72a32 32 0 0 1 32-32zm0-157.888c79.168 0 144 61.568 149.248 139.392l.384 10.24v55.168a32 32 0 0 1-63.488 5.76l-.512-5.76v-55.168a85.632 85.632 0 0 0-170.88-8.256l-.384 8.32v55.68a32 32 0 0 1-63.488 5.76l-.512-5.76v-55.68a149.632 149.632 0 0 1 149.632-149.696z"/></svg>