<svg class="icon" viewBox="0 0 1024 1024" xmlns="http://www.w3.org/2000/svg" width="200" height="200"><defs><style/></defs><path d="M612.992 102.4l9.728 7.808 9.792 8.32A598.464 598.464 0 0 0 864.32 241.28a147.648 147.648 0 0 1 105.664 172.672C893.696 778.88 741.824 961.28 514.304 961.28c-228.544 0-380.928-187.2-456.96-561.6a151.36 151.36 0 0 1 101.76-174.144A822.4 822.4 0 0 0 365.824 124.8l23.68-16.576 9.536-6.912a180.672 180.672 0 0 1 213.952 1.088zm-167.424 44.8l-8.96 5.888L427.2 160a886.4 886.4 0 0 1-248.384 126.4c-42.304 13.696-67.584 56.96-58.752 100.48 70.72 348.16 202.752 510.4 394.24 510.4 190.912 0 322.24-157.76 393.088-496.448a83.648 83.648 0 0 0-59.904-97.856 662.464 662.464 0 0 1-237.696-120.192l-18.88-15.552-9.792-8.384A116.672 116.672 0 0 0 445.568 147.2zM640 698.944a32 32 0 0 1 5.76 63.488l-5.76.512H384a32 32 0 0 1-5.76-63.488l5.76-.512h256zM493.824 325.248a32 32 0 0 1 40.832 3.712l101.376 101.376 3.648 4.48a32 32 0 0 1-3.648 40.768l-4.48 3.712a32 32 0 0 1-40.832-3.712L544 428.864v162.56a32 32 0 0 1-63.488 5.76L480 591.36V428.8l-46.72 46.72-4.48 3.712a32 32 0 0 1-40.832-48.96L489.344 328.96z"/></svg>