<svg class="icon" viewBox="0 0 1024 1024" xmlns="http://www.w3.org/2000/svg" width="380" height="380"><defs><style/></defs><path d="M889.062 260.626a125.687 125.687 0 0 1 125.687 125.687v502.749a125.687 125.687 0 0 1-125.687 125.687H134.938A125.687 125.687 0 0 1 9.251 889.062v-502.75a125.687 125.687 0 0 1 125.687-125.686h754.124zm0 62.843H134.938a62.844 62.844 0 0 0-62.403 55.491l-.44 7.353v502.749a62.844 62.844 0 0 0 55.49 62.403l7.353.44h754.124a62.844 62.844 0 0 0 62.403-55.49l.44-7.353v-502.75a62.844 62.844 0 0 0-55.49-62.403l-7.353-.44zM664.584 428.544a31.422 31.422 0 0 1-1.257 40.22l-4.084 3.896-130.275 102.184h144.1a31.422 31.422 0 0 1 5.656 62.34l-5.656.503H512v62.844h161.068a31.422 31.422 0 0 1 5.656 62.34l-5.656.503H512v94.266a31.422 31.422 0 0 1-62.34 5.656l-.504-5.656v-94.266H288.088a31.422 31.422 0 0 1-5.656-62.34l5.656-.503h161.068v-62.844H288.088a31.422 31.422 0 0 1-5.656-62.34l5.656-.503h144.666L304.742 472.47a31.422 31.422 0 0 1 34.5-52.16l4.714 3.142L480.766 532.8l139.702-109.599a31.422 31.422 0 0 1 44.116 5.342zM857.64 134.938a31.422 31.422 0 0 1 5.656 62.341l-5.656.503H166.36a31.422 31.422 0 0 1-5.656-62.34l5.656-.504h691.28zM731.953 9.251a31.422 31.422 0 0 1 5.656 62.341l-5.656.503H292.047a31.422 31.422 0 0 1-5.656-62.341l5.656-.503h439.906z"/></svg>