<svg class="icon" viewBox="0 0 1024 1024" xmlns="http://www.w3.org/2000/svg" width="200" height="200"><defs><style/></defs><path d="M610.752 101.12l9.728 7.744 9.792 8.384a598.464 598.464 0 0 0 208.64 115.84l23.104 6.848a147.648 147.648 0 0 1 105.728 172.672C891.52 777.6 739.584 960 512.064 960 283.52 960 131.2 772.8 55.168 398.336a151.36 151.36 0 0 1 101.76-174.08A822.4 822.4 0 0 0 363.52 123.52l23.68-16.64 9.472-6.848a180.672 180.672 0 0 1 214.016 1.088zm-167.424 44.8l-8.96 5.888-9.408 6.848A886.4 886.4 0 0 1 176.576 285.12c-42.304 13.696-67.584 56.96-58.752 100.48C188.544 733.76 320.64 896 512.064 896c190.912 0 322.24-157.76 393.088-496.448a83.648 83.648 0 0 0-59.904-97.856A662.464 662.464 0 0 1 607.552 181.44l-18.88-15.552-9.792-8.32a116.672 116.672 0 0 0-135.552-11.648zm193.792 553.6a32 32 0 0 1 5.76 63.488l-5.76.512H386.56a32 32 0 0 1-5.76-63.488l5.76-.512h250.624zM511.808 291.584a32 32 0 0 1 32 32v202.304l44.608-44.608 4.48-3.712a32 32 0 0 1 40.832 48.96l-99.328 99.2-4.48 3.776a32 32 0 0 1-40.768-3.712l-99.2-99.264-3.712-4.48a32 32 0 0 1 3.712-40.768l4.416-3.712a32 32 0 0 1 40.832 3.712l44.608 44.608V323.584l.512-5.76a32 32 0 0 1 31.488-26.24z"/></svg>