<svg class="icon" viewBox="0 0 1024 1024" xmlns="http://www.w3.org/2000/svg" width="200" height="200"><defs><style/></defs><path d="M832 96.832a128 128 0 0 1 128 128v574.336a128 128 0 0 1-128 128H192a128 128 0 0 1-128-128V224.832a128 128 0 0 1 128-128h640zm64 350.016H128v352.32a64 64 0 0 0 56.512 63.616l7.488.384h640a64 64 0 0 0 63.552-56.512l.448-7.488v-352.32zM420.736 610.88a32 32 0 0 1 5.76 63.488l-5.76.512h-199.68a32 32 0 0 1-5.76-63.488l5.76-.512h199.68zM832 160.832H192a64 64 0 0 0-63.552 56.512l-.448 7.488v158.016h768v-158.08a64 64 0 0 0-56.512-63.552l-7.488-.384z"/></svg>