<svg class="icon" viewBox="0 0 1024 1024" xmlns="http://www.w3.org/2000/svg" width="32" height="32"><defs><style/></defs><path d="M804.571 36.571a182.857 182.857 0 0 1 182.492 170.862l.366 11.996v731.428a36.571 36.571 0 0 1-72.558 6.583l-.585-6.583V804.571H109.714v146.286a36.571 36.571 0 0 1-72.557 6.583l-.586-6.583V219.43A182.857 182.857 0 0 1 207.433 36.937l11.996-.366H804.57zm109.715 402.286H585.143V731.43h329.143V438.857zm-402.286 0H109.714v109.714h182.857a36.571 36.571 0 0 1 6.583 72.558l-6.583.585H109.714V731.43H512V438.857zm292.571-329.143H219.43a109.714 109.714 0 0 0-109.203 99.182l-.512 10.533v146.285h804.572V219.43a109.714 109.714 0 0 0-99.182-109.203l-10.533-.512z"/></svg>