<svg class="icon" viewBox="0 0 1088 1024" xmlns="http://www.w3.org/2000/svg" width="212.5" height="200"><defs><style/></defs><path d="M615.04 113.344l9.728 7.808 9.792 8.32A598.464 598.464 0 0 0 866.304 252.16a147.648 147.648 0 0 1 105.728 172.736c-76.288 364.864-228.16 547.328-455.68 547.328-228.608 0-380.928-187.2-456.96-561.6a151.36 151.36 0 0 1 101.76-174.144 822.4 822.4 0 0 0 206.72-100.736l23.68-16.64 9.472-6.848a180.672 180.672 0 0 1 214.016 1.088zm-167.424 44.8l-8.96 5.888-9.408 6.912a886.4 886.4 0 0 1-248.384 126.4c-42.304 13.696-67.584 56.96-58.752 100.48 70.72 348.16 202.752 510.4 394.24 510.4 190.912 0 322.24-157.76 393.024-496.448a83.648 83.648 0 0 0-59.904-97.856A662.464 662.464 0 0 1 611.84 193.664l-18.88-15.552-9.792-8.32a116.672 116.672 0 0 0-135.552-11.648zm68.672 192a32 32 0 0 1 32 32v132.16h132.16a32 32 0 0 1 5.76 63.552l-5.76.512h-132.16v132.16l-.512 5.76a32 32 0 0 1-63.488-5.76V578.304h-132.16a32 32 0 0 1-5.76-63.424l5.76-.512h132.16V382.144l.512-5.76a32 32 0 0 1 31.488-26.24z"/></svg>