<svg class="icon" viewBox="0 0 1024 1024" xmlns="http://www.w3.org/2000/svg" width="200" height="200"><defs><style/></defs><path d="M626.176 371.84a32 32 0 0 1 60.608 4.416c8.32 33.28 38.72 85.568 91.072 154.624 49.216 64.96 98.944 95.744 149.632 95.744 33.92 0 44.544 45.76 14.08 60.736l-34.88 17.6-31.68 16.896c-45.056 24.832-79.04 47.168-101.76 66.816-29.952 26.048-59.712 80-87.168 161.472a32 32 0 0 1-61.312-2.176c-18.944-72.768-43.392-127.232-72.512-163.392-27.52-34.176-86.912-66.688-177.92-95.488a32 32 0 0 1-.192-60.928c77.568-25.152 131.648-58.048 162.752-97.728 33.664-42.88 63.488-95.68 89.28-158.592zM649.408 112l6.912 7.936 5.76-5.568c66.88-61.44 182.4-63.744 248.704-6.016l7.424 6.976a166.208 166.208 0 0 1 0 235.008 32 32 0 1 1-45.248-45.248 102.208 102.208 0 0 0 0-144.512c-38.08-38.08-114.752-40-160.256-5.184l-6.912 5.76-30.848 29.184a32 32 0 0 1-41.28 2.304l-7.552-7.552-3.52-4.096-16.896-21.888c-35.392-43.84-142.016-45.632-193.28-3.264l-6.336 5.76-28.096 28.16a32 32 0 0 1-40.832 3.648l-4.352-3.712-29.184-29.12a102.208 102.208 0 0 0-150.784 137.6l6.272 6.912 29.184 29.184a32 32 0 0 1 3.648 40.832l-3.712 4.48-28.096 28.032a124.544 124.544 0 0 0 49.216 206.4 32 32 0 0 1 16.128 48.96l-3.52 4.096-62.848 62.848a102.208 102.208 0 0 0 137.6 150.848l6.912-6.272 55.872-55.872a32 32 0 0 1 48.96 40.768l-3.712 4.48-55.808 55.872a166.208 166.208 0 0 1-242.304-227.392l7.232-7.68 31.36-31.232-7.808-5.12a188.928 188.928 0 0 1-11.52-9.216l-11.008-10.112a188.608 188.608 0 0 1-7.552-258.56l7.616-8.128 5.44-5.44-6.528-6.528a166.208 166.208 0 0 1-7.232-227.392l7.232-7.68a166.208 166.208 0 0 1 227.264-7.104l7.68 7.232 6.528 6.464 5.44-5.44c71.68-71.68 222.4-74.048 288.704-4.352zm5.504 350.464l-2.944 6.016c-19.712 37.76-41.28 71.68-64.704 101.504-24.64 31.36-58.56 58.304-101.76 81.152l-12.288 6.144 11.52 5.056c48.128 21.76 84.608 45.952 109.44 72.96l7.872 9.152c19.392 24.064 36.544 53.568 51.584 88.512l5.056 12.48 1.28-2.752c19.328-40.64 40.192-72.064 62.848-94.4l8.576-7.936c25.152-21.824 60.416-45.376 105.984-70.848l1.152-.64-10.304-5.504c-31.68-17.984-61.952-44.8-90.688-80.192l-10.688-13.632A987.84 987.84 0 0 1 658.432 468.8l-3.52-6.336z"/></svg>