<svg class="icon" viewBox="0 0 1024 1024" xmlns="http://www.w3.org/2000/svg" width="200" height="200"><defs><style/></defs><path d="M527.296 65.536c76.992 0 139.968 59.84 145.088 135.488l.32 9.984v43.328h57.216a96 96 0 0 1 95.552 86.784l.448 9.28v173.888l75.904 25.984 5.568 2.112 5.376 2.432a96 96 0 0 1 44.288 128.32L864.384 873.6c13.76-8.704 28.544-19.584 44.8-32.832a32 32 0 0 1 40.384 49.664c-120.96 98.304-195.328 93.12-305.024 17.536l-19.072-13.44c-75.264-53.76-112.768-62.208-179.328-17.6l-10.24 7.04c-162.56 116.48-293.632 112-375.488-20.352a32 32 0 1 1 54.4-33.664c17.28 27.84 36.928 47.872 59.52 59.968L73.728 683.2l-2.432-5.44-2.048-5.568a96 96 0 0 1 59.712-121.92l99.648-34.112V350.4a96 96 0 0 1 86.784-95.552l9.216-.448h57.216v-43.392A145.472 145.472 0 0 1 527.296 65.536zm-6.656 422.4a32 32 0 0 0-15.616 1.28l-355.328 121.6-5.248 2.368a32 32 0 0 0-14.72 38.336l1.536 3.584 116.48 239.36 2.112 5.312.512 2.112c38.464-5.12 83.2-25.216 134.848-60.544L398.72 832c95.744-68.608 159.872-60.8 252.288 2.304l19.328 13.632c44.288 31.68 77.632 49.792 110.72 51.968l2.048-5.44 116.48-239.296 2.048-5.376a32 32 0 0 0-20.48-38.848L525.824 489.216zm209.28-169.6H324.608a32 32 0 0 0-31.488 26.24l-.512 5.76v143.872l191.68-65.536 10.24-2.88a96 96 0 0 1 51.968 2.88L761.92 502.4v-152a32 32 0 0 0-26.24-31.488l-5.76-.512zM527.36 129.6c-42.24 0-76.864 32.064-81.024 73.152l-.448 8.32V254.4H608.64v-43.328c0-44.992-36.48-81.472-81.408-81.472z"/></svg>