<svg class="icon" viewBox="0 0 1024 1024" xmlns="http://www.w3.org/2000/svg" width="200" height="200"><defs><style/></defs><path d="M829.248 96.192a128 128 0 0 1 128 128v575.616a128 128 0 0 1-128 128H192a128 128 0 0 1-128-128V224.192a128 128 0 0 1 128-128h637.248zm0 64H192a64 64 0 0 0-63.552 56.512l-.448 7.488v575.616a64 64 0 0 0 56.512 63.616l7.488.384h637.248a64 64 0 0 0 63.552-56.512l.448-7.488V224.192a64 64 0 0 0-56.576-63.616l-7.424-.384zM666.24 394.88a32 32 0 0 1 45.248 1.6l86.656 93.12 3.392 4.352a32 32 0 0 1-3.392 39.296l-87.936 94.336-4.288 3.84a32 32 0 0 1-40.96-2.304l-3.84-4.288a32 32 0 0 1 2.24-40.96l40.064-42.88H310.272l40.064 42.88a32 32 0 0 1 2.304 40.96l-3.84 4.288a32 32 0 0 1-40.96 2.304l-4.288-3.84-87.936-94.336a32 32 0 0 1-3.456-39.296l3.392-4.352 86.72-93.12a32 32 0 0 1 50.368 39.04l-3.52 4.608-34.368 36.864h384.256l-34.304-36.864-3.52-4.608a32 32 0 0 1 5.12-40.64z"/></svg>