<svg class="icon" viewBox="0 0 1024 1024" xmlns="http://www.w3.org/2000/svg" width="200" height="200"><defs><style/></defs><path d="M512 64a192 192 0 0 1 191.616 180.288c3.968.576 7.872 1.984 11.52 4.224a387.84 387.84 0 0 1 182.848 371.072 192 192 0 0 1-222.72 311.68l12.032-5.696A386.56 386.56 0 0 1 512 967.36c-40.768 0-98.112-13.44-149.568-31.808a32.064 32.064 0 0 1-6.848-3.392 192 192 0 0 1-228.48-306.368 24 24 0 0 1-.96-4.48 387.84 387.84 0 0 1 186.688-375.296 32 32 0 0 1 7.68-3.2A192 192 0 0 1 512 64zm183.616 248.192l-2.816 8.576a192.064 192.064 0 0 1-364.416-8.512 323.456 323.456 0 0 0-140.48 267.008l.256 9.088a192 192 0 0 1 221.12 295.296c37.888 11.712 76.8 19.712 102.72 19.712 38.464 0 75.968-6.72 111.232-19.584a192 192 0 0 1 212.672-298.368l.192-6.144a323.712 323.712 0 0 0-140.48-267.072zM256 640a128 128 0 1 0 0 256 128 128 0 0 0 0-256zm520.32 0a128 128 0 1 0 0 256 128 128 0 0 0 0-256zM512 128a128 128 0 1 0 0 256 128 128 0 0 0 0-256z"/></svg>