<svg class="icon" viewBox="0 0 1088 1024" xmlns="http://www.w3.org/2000/svg" width="212.5" height="200"><defs><style/></defs><path d="M835.456 544a128 128 0 0 1 128 128v160a128 128 0 0 1-128 128h-160a128 128 0 0 1-128-128V672a128 128 0 0 1 128-128h160zm-480 0a128 128 0 0 1 128 128v160a128 128 0 0 1-128 128h-160a128 128 0 0 1-128-128V672a128 128 0 0 1 128-128h160zm480 64h-160a64 64 0 0 0-63.552 56.512l-.448 7.488v160a64 64 0 0 0 56.512 63.552l7.488.448h160a64 64 0 0 0 63.552-56.512l.448-7.488V672a64 64 0 0 0-56.576-63.552l-7.424-.448zm-480 0h-160a64 64 0 0 0-63.552 56.512l-.448 7.488v160a64 64 0 0 0 56.512 63.552l7.488.448h160a64 64 0 0 0 63.552-56.512l.448-7.488V672a64 64 0 0 0-56.576-63.552l-7.424-.448zm480-544a128 128 0 0 1 128 128v160a128 128 0 0 1-128 128h-160a128 128 0 0 1-128-128V192a128 128 0 0 1 128-128h160zm0 64h-160a64 64 0 0 0-63.552 56.512l-.448 7.488v160a64 64 0 0 0 56.512 63.552l7.488.448h160a64 64 0 0 0 63.552-56.512l.448-7.488V192a64 64 0 0 0-56.576-63.552l-7.424-.448zM444.288 352a32 32 0 0 1 5.76 63.488l-5.76.512H108.736a32 32 0 0 1-5.76-63.488l5.76-.512h335.552zm0-199.744a32 32 0 0 1 5.76 63.488l-5.76.512H108.736a32 32 0 0 1-5.76-63.488l5.76-.512h335.552z"/></svg>