<svg class="icon" viewBox="0 0 1024 1024" xmlns="http://www.w3.org/2000/svg" width="200" height="200"><defs><style/></defs><path d="M222.976 65.28a158.72 158.72 0 0 1 125.248 61.056h448.32a160 160 0 0 1 159.68 149.568l.32 10.496v448a160 160 0 0 1-149.44 159.68l-10.56.32h-550.08a161.408 161.408 0 0 1-44.928 0H192v-1.6A160 160 0 0 1 64 736l.32-9.984-.32-3.328V224.256A158.976 158.976 0 0 1 222.976 65.28zM224 640a96 96 0 0 0-17.408 190.4h34.816a96.064 96.064 0 0 0 77.568-80.448 3.52 3.52 0 0 1-.512-1.408l-.512-5.76.128-26.112A96 96 0 0 0 224 640zm157.632-426.24l.32 10.496.128 486.848a159.296 159.296 0 0 1-28.8 119.296h443.264a96 96 0 0 0 95.552-86.784l.448-9.216v-448a96 96 0 0 0-86.72-95.552l-9.28-.448H378.368c1.6 7.616 2.752 15.424 3.2 23.424zm-158.656-84.48c-49.344 0-89.92 37.696-94.528 85.824l-.448 9.152V608c26.752-20.096 59.968-32 96-32 35.136 0 67.584 11.328 94.016 30.528V224.256c0-52.48-42.56-94.976-95.04-94.976z"/></svg>