<svg class="icon" viewBox="0 0 1024 1024" xmlns="http://www.w3.org/2000/svg" width="200" height="200"><defs><style/></defs><path d="M807.04 96c80.256 0 144.896 66.624 149.952 149.76l.32 10.496V662.4A230.4 230.4 0 0 1 642.24 913.92a31.424 31.424 0 0 1-20.672 13.568l-5.76.512H216.192c-80.256 0-144.832-66.624-149.888-149.76l-.32-10.496V256.256c0-84.48 61.44-154.432 140.224-159.936l9.984-.32h590.976zm-76.992 438.272a166.4 166.4 0 1 0 165.248 186.496 24.704 24.704 0 0 1-1.472-5.248l-.512-5.76v-41.6a166.528 166.528 0 0 0-163.2-133.888zm163.2-94.336H129.856l.064 327.808c0 50.56 34.752 91.2 78.016 95.808l8.192.448 351.36.064a230.4 230.4 0 1 1 325.76-326.016V440zM737.536 682.368a32 32 0 0 1 31.488 26.24l.512 5.76v81.728a32 32 0 0 1-63.488 5.76l-.512-5.76v-81.728a32 32 0 0 1 32-32zM736 597.248a32 32 0 1 1 0 64 32 32 0 0 1 0-64zM807.04 160H216.192c-44.224 0-81.6 37.696-85.76 86.912l-.448 9.344-.064 119.68h763.392v-119.68c0-50.56-34.688-91.2-77.952-95.808l-8.192-.448zM420.8 230.4a32 32 0 0 1 5.76 63.424l-5.76.512H221.12a32 32 0 0 1-5.76-63.488l5.76-.512H420.8z"/></svg>