<svg class="icon" viewBox="0 0 1024 1024" xmlns="http://www.w3.org/2000/svg" width="200" height="200"><defs><style/></defs><path d="M645.44 106.496l6.912 7.872 5.76-5.504c66.816-61.44 182.4-63.744 248.704-6.016l7.424 6.912a166.208 166.208 0 0 1 0 235.072 32 32 0 1 1-45.312-45.248 102.208 102.208 0 0 0 0-144.512c-38.016-38.08-114.752-40-160.256-5.248l-6.912 5.824-30.784 29.184a32 32 0 0 1-45.632-1.664l-8.192-9.6L601.6 153.6c-35.328-43.776-141.952-45.568-193.216-3.2l-6.4 5.76-28.032 28.096a32 32 0 0 1-40.832 3.712l-4.48-3.712-29.12-29.12a102.208 102.208 0 0 0-150.848 137.6l6.336 6.912 29.12 29.184a32 32 0 0 1 3.712 40.832l-3.712 4.416-28.16 28.032a124.544 124.544 0 0 0 49.216 206.464 32 32 0 0 1 16.128 48.96l-3.456 4.096-62.848 62.848a102.208 102.208 0 0 0 137.6 150.848l6.912-6.272 55.808-55.936a32 32 0 0 1 49.024 40.832l-3.712 4.48-55.872 55.872a166.208 166.208 0 0 1-242.24-227.392l7.168-7.68L141.056 648l-7.744-5.12a188.928 188.928 0 0 1-11.584-9.216l-10.944-10.112a188.608 188.608 0 0 1-7.616-258.56l7.616-8.128 5.504-5.44-6.592-6.528a166.208 166.208 0 0 1-7.168-227.392l7.168-7.68a166.208 166.208 0 0 1 227.392-7.168l7.68 7.168 6.592 6.528 5.376-5.44c71.68-71.68 222.464-74.048 288.704-4.416zm35.84 318.848a267.328 267.328 0 1 1 0 534.656 267.328 267.328 0 0 1 0-534.656zm0 64a203.328 203.328 0 1 0 0 406.656 203.328 203.328 0 0 0 0-406.656zm0 167.68a32 32 0 0 1 31.552 26.24l.512 5.76v102.208a32 32 0 0 1-63.488 5.76l-.512-5.76V689.088a32 32 0 0 1 32-32zm0-114.24a40 40 0 1 1 0 80 40 40 0 0 1 0-80z"/></svg>