<svg class="icon" viewBox="0 0 1024 1024" xmlns="http://www.w3.org/2000/svg" width="200" height="200"><defs><style/></defs><path d="M672 64a160 160 0 0 1 156.8 128h38.592a96 96 0 0 1 95.552 86.784l.448 9.216v145.536a96 96 0 0 1-86.784 95.552l-9.216.448-322.56-.064 1.152 108.544A96 96 0 0 1 641.28 724.8l.448 9.216v134.72a96 96 0 0 1-94.912 96l-65.664.768-10.176-.448a96 96 0 0 1-86.784-95.552V734.016a96 96 0 0 1 96-96h1.792l-1.088-108.544H162.688a96 96 0 0 1-95.616-86.72l-.384-9.216V288a96 96 0 0 1 86.72-95.552l9.28-.448H195.2A160 160 0 0 1 352 64h320zM545.728 702.08h-65.536a32 32 0 0 0-32 32v135.424a32 32 0 0 0 31.808 32l66.112-.768a32 32 0 0 0 31.616-32v-134.72a32 32 0 0 0-32-32zM195.2 256h-32.512a32 32 0 0 0-31.488 26.24l-.512 5.76v145.536a32 32 0 0 0 26.24 31.488l5.76.512h704.64a32 32 0 0 0 31.552-26.24l.512-5.76V288a32 32 0 0 0-26.24-31.488l-5.76-.512H828.8A160 160 0 0 1 672 384H352a160 160 0 0 1-156.8-128zM672 128H352a96 96 0 0 0-9.216 191.552L352 320h320a96 96 0 0 0 9.216-191.552L672 128z"/></svg>