<svg class="icon" viewBox="0 0 1024 1024" xmlns="http://www.w3.org/2000/svg" width="200" height="200"><defs><style/></defs><path d="M762.112 89.6L934.4 261.952a128 128 0 0 1 0 180.992L443.84 933.568a128 128 0 0 1-181.056 0L90.624 761.344a128 128 0 0 1 0-181.056L581.12 89.664a128 128 0 0 1 180.992 0zm-129.728 40l-6.016 5.312L135.68 625.536a64 64 0 0 0-5.312 84.48l5.312 6.016 172.224 172.16a64 64 0 0 0 84.48 5.376l6.016-5.312 86.528-86.4a31.744 31.744 0 0 1-4.352-2.56l-4.48-3.648-136.576-136.64a32 32 0 0 1 40.832-48.96l4.416 3.712 136.64 136.576a32 32 0 0 1 6.208 8.832l104.832-104.96-74.368-74.624a32 32 0 0 1 40.832-48.96l4.416 3.712 74.496 74.496 103.68-103.616-126.272-126.272A32 32 0 0 1 696 329.984l4.48 3.712 126.272 126.272 62.4-62.4a64 64 0 0 0 5.312-84.48l-5.312-6.016-172.16-172.224a64 64 0 0 0-84.48-5.312z"/></svg>