<svg class="icon" viewBox="0 0 1088 1024" xmlns="http://www.w3.org/2000/svg" width="212.5" height="200"><defs><style/></defs><path d="M802.88 65.344a160 160 0 0 1 160 160v580.48a160 160 0 0 1-160 160H186.176A122.048 122.048 0 0 1 69.568 807.68l8.192-26.56a160 160 0 0 1 152.832-112.64l259.328-.128V404.096a96 96 0 0 0-86.72-95.552l-9.216-.448H286.848v81.472a32 32 0 0 1-63.424 5.76l-.512-5.76-.064-81.536-31.488.064c-63.872 0-116.16-49.28-120.96-111.872l-.384-9.472c0-67.072 54.336-121.408 121.344-121.408zm95.936 667.008l-668.16.064a96 96 0 0 0-91.776 67.648l-8.192 26.496a58.048 58.048 0 0 0 55.488 75.264H802.88a96 96 0 0 0 96-96l-.064-73.472zm-96-603.008H191.36a57.344 57.344 0 1 0 0 114.752h202.624a160 160 0 0 1 160 160l-.064 264.32h344.896V225.28a96 96 0 0 0-86.72-95.552l-9.216-.448zm-94.08 75.84c63.936 0 115.712 52.48 115.712 117.12 0 64.64-51.776 117.12-115.648 117.12-63.936 0-115.712-52.48-115.712-117.12 0-64.64 51.84-117.12 115.712-117.12zm0 64a52.416 52.416 0 0 0-51.648 53.12c0 29.44 23.296 53.12 51.712 53.12a52.416 52.416 0 0 0 51.648-53.12c0-29.44-23.296-53.12-51.648-53.12z"/></svg>