<svg class="icon" viewBox="0 0 1024 1024" xmlns="http://www.w3.org/2000/svg" width="200" height="200"><defs><style/></defs><path d="M512 64a384 384 0 0 1 384 384v128a384 384 0 1 1-768 0V448A384 384 0 0 1 512 64zm305.344 608l-146.56.064c-5.632 62.912-30.336 123.712-68.096 180.736a537.088 537.088 0 0 1-26.624 36.8A320.512 320.512 0 0 0 817.344 672zm-464.32 0H206.656a320.576 320.576 0 0 0 234.88 216.256 476.288 476.288 0 0 1-21.632-29.824c-37.44-55.744-61.76-118.208-66.88-186.368zm253.44 0H417.28c5.056 54.528 25.088 105.024 55.808 150.784 12.608 18.816 26.112 35.392 39.552 49.536l-2.88-3.264 8.896-10.24a490.276 490.276 0 0 0 30.656-41.28c31.104-47.04 51.52-96.192 57.152-145.472zm224.384-251.136H193.152c-.384 4.352-.64 8.832-.832 13.248L192 448v128c0 10.816.512 21.504 1.6 32h636.8a322.56 322.56 0 0 0 1.28-18.112L832 576V448c0-9.152-.384-18.24-1.152-27.136zm-384.576-286.08l-3.84.832A320.576 320.576 0 0 0 205.184 356.8h147.84c5.12-68.16 29.44-130.624 66.88-186.368a471.68 471.68 0 0 1 26.368-35.648zm63.488 24.96l2.88-3.2c-13.44 14.144-26.944 30.72-39.552 49.536-30.72 45.76-50.752 96.256-55.808 150.72h189.184c-5.632-49.28-26.048-98.432-57.152-145.472a472.832 472.832 0 0 0-41.216-53.504l1.664 1.92zm61.696-26.24l8.256 10.432c7.808 10.112 15.552 20.864 22.976 32.128 37.76 57.024 62.464 117.76 68.096 180.736h148.032A320.448 320.448 0 0 0 571.52 133.568z"/></svg>