<svg class="icon" viewBox="0 0 1024 1024" xmlns="http://www.w3.org/2000/svg" width="200" height="200"><defs><style/></defs><path d="M833.92 96.64a128 128 0 0 1 128 128v574.72a128 128 0 0 1-128 128H194.432a128 128 0 0 1-128-128V224.64a128 128 0 0 1 128-128H833.92zm0 64H194.432a64 64 0 0 0-63.552 56.512l-.448 7.488v574.72a64 64 0 0 0 56.512 63.552l7.488.448H833.92a64 64 0 0 0 63.616-56.512l.384-7.488V224.64a64 64 0 0 0-56.512-63.552l-7.488-.448zM514.176 366.272a32 32 0 0 1 31.488 26.24l.512 5.76v227.456a32 32 0 0 1-63.488 5.76l-.512-5.76V398.272a32 32 0 0 1 32-32zm187.2 6.336l4.352 3.84L810.88 489.472a32 32 0 0 1 3.776 38.72l-3.776 4.864-106.752 114.56a32 32 0 0 1-50.368-39.104l3.584-4.608 86.4-92.736-84.864-91.136a32 32 0 0 1-2.24-40.96l3.84-4.224a32 32 0 0 1 40.96-2.24zm-331.904 2.24a32 32 0 0 1 5.12 40.64l-3.584 4.608-86.4 92.608 84.928 91.264a32 32 0 0 1 2.24 40.96l-3.84 4.224a32 32 0 0 1-40.96 2.24l-4.288-3.84-105.216-113.024a32 32 0 0 1-3.776-38.72l3.776-4.864 106.752-114.56a32 32 0 0 1 45.248-1.536z"/></svg>