<svg class="icon" viewBox="0 0 1024 1024" xmlns="http://www.w3.org/2000/svg" width="200" height="200"><defs><style/></defs><path d="M481.882 119.206a90.353 90.353 0 0 1 90.353 90.353v31.322l210.824.06a120.47 120.47 0 0 1 120.47 120.47v481.883a120.47 120.47 0 0 1-120.47 120.47H240.94a120.47 120.47 0 0 1-120.47-120.47V240.941l2.289.06a95.172 95.172 0 0 1-8.072-40.478c0-59.09 50.417-81.317 144.685-81.317zm301.177 181.97H180.706v542.118a60.235 60.235 0 0 0 53.188 59.814l7.047.421H783.06a60.235 60.235 0 0 0 59.813-53.187l.422-7.048V361.412a60.235 60.235 0 0 0-53.188-59.814l-7.047-.422zM691.2 662.287a30.118 30.118 0 0 1 5.421 59.753l-5.421.482H331.294a30.118 30.118 0 0 1-5.421-59.753l5.421-.482H691.2zM557.116 479.112a30.118 30.118 0 0 1 5.421 59.753l-5.42.482H335.51a30.118 30.118 0 0 1-5.422-59.754l5.422-.481h221.665zM481.882 179.44H259.373c-64.632 0-84.45 8.734-84.45 21.082 0 22.046 12.65 34.274 64.211 37.527l21.203.843 32.105.06 65.416-.602 48.007-.783 106.075-2.59.06-25.42a30.118 30.118 0 0 0-24.696-29.635l-5.422-.482z"/></svg>