<svg class="icon" viewBox="0 0 1024 1024" xmlns="http://www.w3.org/2000/svg" width="200" height="200"><defs><style/></defs><path d="M512 64a448 448 0 1 1 0 896 448 448 0 0 1 0-896zm0 64a384 384 0 1 0 0 768 384 384 0 0 0 0-768zm0 460.032A113.984 113.984 0 1 1 512 816a113.984 113.984 0 0 1 0-228.032zm0 64A49.984 49.984 0 1 0 512 752a49.984 49.984 0 0 0 0-100.032zm190.016-254.08a113.984 113.984 0 1 1 0 228.032 113.984 113.984 0 0 1 0-227.968zm-380.032 0a113.984 113.984 0 1 1 0 228.032 113.984 113.984 0 0 1 0-227.968zm380.032 64a49.984 49.984 0 1 0 0 100.032 49.984 49.984 0 0 0 0-99.968zm-380.032 0a49.984 49.984 0 1 0 0 100.032 49.984 49.984 0 0 0 0-99.968zM512 208a113.984 113.984 0 1 1 0 228.032A113.984 113.984 0 0 1 512 208zm0 64a49.984 49.984 0 1 0 0 100.032A49.984 49.984 0 0 0 512 272z"/></svg>