<svg class="icon" viewBox="0 0 1024 1024" xmlns="http://www.w3.org/2000/svg" width="200" height="200"><defs><style/></defs><path d="M201.216 128c6.848 0 13.568.64 20.16 1.856l2.944-.192h659.2c64.64 0 89.28 82.56 89.28 168.448 0 54.144-10.688 106.88-34.24 138.304 22.464 29.056 31.808 79.168 34.24 137.856 1.024 25.088 1.152 53.76.32 85.888l-1.408 40.32-2.304 43.648-3.2 47.04-1.92 24.832a160 160 0 0 1-148.672 146.752l-10.816.384H439.808a160 160 0 0 1-160-160l.128-7.68.576-7.68c1.28-13.568 2.368-26.752 3.2-39.488a117.888 117.888 0 0 1-77.632 30.272c-75.776 0-137.216-77.12-137.216-172.288 0-65.408 29.056-122.24 71.808-151.424C95.232 426.816 64 368.128 64 300.288 64 205.12 125.44 128 201.216 128zM343.04 594.944l.064 4.16c7.552 46.976 8.448 104.128 3.2 171.648l-2.112 23.168a96 96 0 0 0 86.4 104.768l9.216.448H804.8a96 96 0 0 0 95.68-88.32l3.584-47.552 1.408-22.528 2.304-42.432.768-19.904.96-37.312c.384-23.68.128-45.056-.64-64.128-2.048-49.408-15.36-96.96-23.68-103.04l-1.664-.64H293.312c28.352 29.312 47.168 72.704 49.728 121.664zm-136.96-96.896c-36.8 0-73.216 45.632-73.216 108.224 0 62.592 36.416 108.288 73.216 108.288 36.864 0 73.216-45.696 73.216-108.288-4.672-28.544-12.096-51.008-22.016-67.84a31.872 31.872 0 0 1-4.48-14.336c-13.056-16.448-29.824-26.048-46.72-26.048zM201.216 192C164.48 192 128 237.696 128 300.288c0 62.528 36.416 108.224 73.216 108.224 36.864 0 73.216-45.696 73.216-108.224 0-62.592-36.352-108.288-73.216-108.288zm682.304 1.664l-574.528-.064c18.432 29.312 29.44 66.368 29.44 106.688A202.24 202.24 0 0 1 312 402.048h571.52l1.6-1.6 3.2-4.928c2.56-4.48 5.76-11.392 9.024-21.312 7.232-22.144 11.52-52.096 11.52-76.096 0-45.376-14.72-97.472-23.68-103.808l-1.664-.64z"/></svg>