<svg class="icon" viewBox="0 0 1024 1024" xmlns="http://www.w3.org/2000/svg" width="200" height="200"><defs><style/></defs><path d="M522.176 50.048c32.32 0 88.32 50.176 147.392 122.88l19.712 24.96 19.84 26.496 9.856 13.696 19.52 28.16 19.2 29.056c75.648 117.632 138.112 250.624 138.112 333.12 0 90.624-25.792 167.168-98.816 230.272-73.088 63.104-198.016 87.36-282.816 87.36-104.768 0-259.52-31.872-322.176-120.832l-14.08-20.224-8.832-13.568c-21.248-34.688-36.48-76.224-36.48-163.008 0-57.344 31.808-139.008 77.888-222.976l16.832-29.696 17.792-29.632 9.28-14.72 19.008-29.248 19.584-28.672 9.984-14.08L323.136 232l20.288-26.304c71.04-89.92 141.696-155.648 178.752-155.648zm0 64c-14.848 0-43.392 24.896-77.568 64.128l-17.536 20.8-18.304 22.848-18.752 24.704-19.072 26.24-19.2 27.52L332.8 328.64l-9.344 14.464-18.368 29.248-8.96 14.72-17.152 29.44-16.192 29.248c-39.04 72.64-66.304 140.288-66.304 182.72 0 70.4 8 100.224 31.872 136.96l15.936 22.976c39.68 56.32 156.16 93.696 269.824 93.696 88.96 0 189.76-27.584 240.96-71.808 54.08-46.72 76.672-102.336 76.672-181.76 0-40.128-22.528-102.016-55.616-169.088L761.344 430.4l-7.808-14.656-16.384-29.44-17.088-29.376a1732.864 1732.864 0 0 0-8.768-14.528l-17.92-28.672-18.112-27.904-18.176-26.816L639.04 233.6l-17.664-23.744-17.024-21.76a829.44 829.44 0 0 0-8.256-10.112l-15.808-18.304c-25.408-28.352-46.272-45.568-58.24-45.568zM670.4 676.16a32 32 0 0 1-2.368 45.184c-89.664 80.64-180.992 80.64-259.008 31.36a207.232 207.232 0 0 1-41.6-33.664 32 32 0 0 1 47.36-43.008c4.544 4.992 14.4 13.696 28.416 22.528 55.424 35.008 115.456 35.008 182.016-24.832a32 32 0 0 1 45.184 2.432z"/></svg>