<svg class="icon" viewBox="0 0 1024 1024" xmlns="http://www.w3.org/2000/svg" width="200" height="200"><defs><style/></defs><path d="M672 72.32a295.04 295.04 0 0 1 101.568 572.16l-5.632 1.536V704H832a128 128 0 0 1 127.68 118.4l.32 9.6a128 128 0 0 1-128 128H191.68a128 128 0 1 1 0-256h.256L192 232.32A160 160 0 0 1 341.504 72.704l10.496-.32h320zM832 768H191.68a64 64 0 1 0 0 128H832a64 64 0 1 0 0-128zM488.576 136.32H352a96 96 0 0 0-95.552 86.784l-.448 9.28L255.936 704h320v-57.664a295.104 295.104 0 0 1-87.36-510.08zM672 320a32 32 0 0 0-31.488 26.24L640 352v350.912h64V352a32 32 0 0 0-26.24-31.488L672 320zm95.936 140.16L768 577.664a231.135 231.135 0 0 0 84.864-66.368l-84.928-51.008zm-192 .128L491.2 511.232c22.336 28.16 51.2 51.072 84.736 66.368V460.288zM888.32 286.08L768 355.648v29.888l117.44 70.592a230.656 230.656 0 0 0 2.944-169.984zm-447.36 81.28c0 31.168 6.272 61.184 17.664 88.64L576 385.6v-30.08l-120.32-69.376c-9.472 25.28-14.656 52.672-14.656 81.28zm45.44-137.472l109.696 63.424c11.136-14.464 26.368-25.6 43.904-31.808v-122.88a230.912 230.912 0 0 0-153.6 91.264zM704 138.56v122.88a96.566 96.566 0 0 1 43.968 31.872l109.696-63.36A230.912 230.912 0 0 0 704 138.496z"/></svg>