<svg class="icon" viewBox="0 0 1024 1024" xmlns="http://www.w3.org/2000/svg" width="200" height="200"><defs><style/></defs><path d="M502.784 75.968h15.232c241.472 4.224 426.112 180.48 422.016 414.08a32 32 0 0 1-31.808 31.488l-188.352.512-111.936-.064.064 272c0 94.016-61.632 172.928-142.08 172.928-80.384 0-142.016-78.912-142.016-172.928a32 32 0 0 1 64 0c0 61.632 36.928 108.928 78.08 108.928 38.656 0 73.6-41.856 77.632-98.24l.384-10.688V521.92l-434.112-.384a32 32 0 0 1-31.36-26.752l-.448-5.824C82.176 253.568 278.592 71.808 518.016 76.032zm14.08 64c-190.336-3.264-347.84 129.92-371.712 309.12l-1.024 8.576 332.288.512 398.72-.448-.768-10.24C857.472 275.968 716.8 149.952 531.648 140.48z"/></svg>