<svg class="icon" viewBox="0 0 1088 1024" xmlns="http://www.w3.org/2000/svg" width="212.5" height="200"><defs><style/></defs><path d="M172.672 126.336a195.52 195.52 0 0 0 .064 259.84l-1.216 1.6c-51.392 71.936-46.72 166.72 14.016 234.496l2.176 2.24-7.104 7.168a195.456 195.456 0 0 0 0 276.416l8.32 7.872a195.456 195.456 0 0 0 259.712 0l4.224-4.096 8.832 6.272c74.24 49.92 167.488 49.728 237.632.128l3.2-2.368 8.768 7.36c76.736 60.8 188.48 55.68 259.328-15.168l7.936-8.32a195.456 195.456 0 0 0-.256-259.968l1.408-1.792a195.584 195.584 0 0 0-6.72-233.28l-5.76-6.912 3.392-3.392a195.456 195.456 0 0 0 0-276.48l-8.32-7.808a195.456 195.456 0 0 0-268.032 7.872l-1.344 1.024-3.584-3.392c-67.328-59.712-165.184-60.224-238.528-7.168l-2.24 1.664-8.64-7.36a195.456 195.456 0 0 0-259.328 15.232l-7.936 8.32zm80.96 480.448l-4.032-3.84c1.28.96 1.664 1.216 1.664.96l-1.152-2.24a178.368 178.368 0 0 0-4.864-8.32l-4.096-5.376-2.496-2.624c-51.328-51.328-51.328-126.72 0-178.112a32 32 0 0 0 0-45.248l-12.8-12.8A131.456 131.456 0 0 1 411.712 163.2l12.8 12.8a32 32 0 0 0 45.312 0c53.312-53.248 132.992-56.896 182.464-7.424L664 180.288l1.088 1.28a32 32 0 0 0 44.736 5.184l26.752-20.992c54.272-53.888 137.472-53.888 188.8-2.56a131.456 131.456 0 0 1 0 185.856l-26.368 26.432a32 32 0 0 0 2.624 47.616 131.456 131.456 0 0 1 10.88 195.648 32 32 0 0 0 0 45.248l12.864 12.8A131.456 131.456 0 1 1 739.52 862.72l-12.8-12.8a32 32 0 0 0-45.312 0c-51.584 51.52-130.688 55.424-191.232 9.856l-5.12-3.712-8.832-5.952c-9.856-6.144-17.664-9.6-28.224-9.6a32 32 0 0 0-21.952 8.704l-13.632 12.864a131.456 131.456 0 1 1-186.56-185.216l26.368-26.368a32 32 0 0 0 1.408-43.776z"/></svg>