<svg class="icon" viewBox="0 0 1024 1024" xmlns="http://www.w3.org/2000/svg" width="200" height="200"><defs><style/></defs><path d="M139.136 611.456a386.56 386.56 0 0 0 745.6 11.52 32 32 0 0 1 61.44 17.792 450.56 450.56 0 0 1-869.056-13.44 32 32 0 1 1 62.016-15.872zm318.272-282.624l3.072 4.992 77.696 156.416h84.864a32 32 0 0 1 26.56 14.08l2.56 4.608 24.512 53.632 19.84-54.464a32 32 0 0 1 24.32-20.608l5.76-.512h204.416a32 32 0 0 1 5.76 63.488l-5.76.512h-182.08l-38.72 106.88a32 32 0 0 1-56.256 7.616l-2.88-5.12-48.576-106.112H518.4a32 32 0 0 1-25.536-12.608l-3.2-5.12-59.264-119.36-64.128 117.184A32 32 0 0 1 344 550.464l-5.76.512H94.208a32 32 0 0 1-5.76-63.488l5.76-.512h225.024l84.48-154.24a32 32 0 0 1 53.76-3.84zm56.064-264a450.56 450.56 0 0 1 440 353.6 32 32 0 1 1-62.528 13.696 386.56 386.56 0 0 0-751.232-15.36 32 32 0 1 1-61.888-16.256 450.56 450.56 0 0 1 435.648-335.68z"/></svg>