<svg class="icon" viewBox="0 0 1024 1024" xmlns="http://www.w3.org/2000/svg" width="200" height="200"><defs><style/></defs><path d="M801.728 254.72a96 96 0 0 1 86.016 139.52l-90.752 178.176v229.632a160 160 0 0 1-149.504 159.68l-10.496.32H384a160 160 0 0 1-160-160V559.232l-83.584-161.664a96 96 0 0 1 33.28-124.736l7.936-4.608a96 96 0 0 1 43.648-10.752zm-68.8 320.64H287.936L288 801.984a96 96 0 0 0 86.784 95.552l9.216.448h252.992a96 96 0 0 0 96-96l-.064-226.624zm69.12-256.704L225.6 321.408a32 32 0 0 0-28.288 46.72l73.984 143.232H756.16l74.496-146.176a32 32 0 0 0 3.136-9.6l.384-5.12a32 32 0 0 0-32.128-31.808zM512 67.328a32 32 0 0 1 31.488 26.24l.512 5.76v81.152a32 32 0 0 1-63.488 5.76l-.512-5.76V99.328a32 32 0 0 1 32-32zm275.52 20.224a32 32 0 0 1 8.96 40l-3.072 4.864L741.504 200a32 32 0 0 1-53.888-34.112l3.136-4.864 51.84-67.584a32 32 0 0 1 44.928-5.888zm-510.08 1.664l3.968 4.224 51.84 67.584a32 32 0 0 1-46.848 43.2L282.56 200l-51.968-67.584a32 32 0 0 1 46.848-43.2z"/></svg>