<svg class="icon" viewBox="0 0 1024 1024" xmlns="http://www.w3.org/2000/svg" width="200" height="200"><defs><style/></defs><path d="M364.352 85.888a85.696 85.696 0 0 1 106.752 18.048l5.44 5.76c11.328 10.88 24.576 17.472 40 18.176a63.616 63.616 0 0 0 51.2-22.72l5.888-6.4a85.376 85.376 0 0 1 101.504-12.544l138.752 78.656c33.216 18.816 49.664 57.6 39.936 94.272l-1.728 7.936c-2.688 15.808-.64 31.232 7.68 45.504 9.856 17.024 25.728 27.392 45.12 32.64l8.32 2.688c32.32 12.416 54.272 43.456 54.272 78.4v159.424a83.84 83.84 0 0 1-65.92 81.664l-8.96 2.496c-14.336 4.8-26.24 13.12-34.432 25.6a63.36 63.36 0 0 0-6.912 54.72 84.096 84.096 0 0 1-39.04 98.752l-138.688 78.592a85.376 85.376 0 0 1-104.448-15.616l-6.08-5.888a64.576 64.576 0 0 0-43.392-17.408l-9.152.64a68.8 68.8 0 0 0-40.64 22.528l-6.976 6.592c-12.16 10.368-27.2 17.088-43.2 19.328a86.656 86.656 0 0 1-54.592-10.368l-139.2-78.912a83.776 83.776 0 0 1-39.168-97.216l1.92-7.68a62.08 62.08 0 0 0-6.144-44.032c-9.536-16.96-25.6-27.136-45.824-32l-8-2.304a84.16 84.16 0 0 1-57.152-79.488V427.52c0-39.36 27.456-73.088 66.24-82.048l7.744-2.176c17.6-6.08 31.488-18.176 39.04-33.92 7.168-14.976 7.232-31.296 2.24-47.616l-2.048-8.128c-7.04-35.2 9.28-71.04 41.152-89.152zm54.784 56.768a21.824 21.824 0 0 0-23.232-1.088l-138.496 78.528A19.584 19.584 0 0 0 248 243.072c9.28 30.4 9.088 62.72-5.76 93.824-17.152 35.84-50.176 61.696-90.176 70.912a20.48 20.48 0 0 0-16.64 19.648v158.272c0 9.216 6.528 17.28 16.192 19.584 36.032 8.64 67.264 28.352 86.656 62.848 18.56 33.024 19.712 68.16 9.728 101.504a19.776 19.776 0 0 0 9.408 23.04l139.2 78.976a22.656 22.656 0 0 0 14.08 2.688 21.12 21.12 0 0 0 12.48-6.4c24.256-25.792 55.808-42.688 94.656-43.264l13.12.448c33.92 3.008 62.144 19.072 84.608 42.752a21.696 21.696 0 0 0 26.432 3.968l138.688-78.592a20.16 20.16 0 0 0 9.728-23.232 127.36 127.36 0 0 1 14.208-109.568c19.968-30.592 49.536-47.936 82.688-55.488a19.904 19.904 0 0 0 16.192-19.2V426.24a20.416 20.416 0 0 0-15.36-19.328c-34.304-9.28-64.32-28.928-83.712-62.208-19.2-33.024-21.376-68.352-12.416-102.016a19.84 19.84 0 0 0-9.664-22.208l-138.752-78.72a21.248 21.248 0 0 0-26.816 4.352c-25.408 30.4-63.872 47.424-103.168 45.632-37.632-1.728-67.84-19.456-90.816-45.888zm100.352 180.352a183.872 183.872 0 0 1 183.68 183.68 183.872 183.872 0 0 1-183.68 183.744 183.872 183.872 0 0 1-183.68-183.68 183.872 183.872 0 0 1 183.68-183.68zm0 64c-65.984 0-119.68 53.76-119.68 119.68 0 66.048 53.696 119.744 119.68 119.744 65.92 0 119.68-53.76 119.68-119.68 0-65.984-53.76-119.68-119.68-119.68z"/></svg>