<svg class="icon" viewBox="0 0 1024 1024" xmlns="http://www.w3.org/2000/svg" width="200" height="200"><defs><style/></defs><path d="M164.224 65.28l334.272 3.968a96 96 0 0 1 94.848 96v158.208c27.328-9.6 58.688-6.848 84.736 10.24L893.76 475.52a160 160 0 0 1 72 133.76v260.288a96 96 0 0 1-96 96H529.28v-5.44a95.872 95.872 0 0 1-32 5.44H163.2a96 96 0 0 1-96-96V160.192a96 96 0 0 1 97.088-94.848zm-.704 64a31.936 31.936 0 0 0-32.384 31.296v708.928a32 32 0 0 0 32 32H497.28a32 32 0 0 0 32-32V165.248a32 32 0 0 0-31.616-32zM642.88 387.2a32 32 0 0 0-49.536 26.752v487.552h276.48a32 32 0 0 0 31.488-26.24l.512-5.76V609.28a96 96 0 0 0-43.264-80.192zM402.176 605.632a32 32 0 0 1 5.76 63.488l-5.76.512h-147.84a32 32 0 0 1-5.76-63.488l5.76-.512h147.84zm0-229.76a32 32 0 0 1 5.76 63.424l-5.76.512h-147.84a32 32 0 0 1-5.76-63.488l5.76-.512h147.84z"/></svg>