<svg class="icon" viewBox="0 0 1024 1024" xmlns="http://www.w3.org/2000/svg" width="200" height="200"><defs><style/></defs><path d="M879.496 169.864c66.258 66.258 62.644 176.489-4.337 251.422l-8.313 8.794-134.023 133.963 154.684 154.624a90.353 90.353 0 0 1 6.204 120.953l-6.204 6.867-96.015 95.954a90.353 90.353 0 0 1-127.76 0L509.049 787.878l-89.75 89.87-10.481 6.807-34.093 13.011-31.865 11.626-29.635 10.3a1373.967 1373.967 0 0 1-14.035 4.638l-26.444 8.252-12.408 3.614-23.371 6.144c-63.247 15.36-102.46 13.674-122.88-6.806-19.276-19.215-21.926-55.055-9.337-112.038l5.421-22.287c2.048-7.83 4.337-15.902 6.867-24.335l8.252-26.504 9.638-28.551a769.074 769.074 0 0 1 5.3-15.059l11.626-31.864 13.011-34.094 6.807-10.42 89.75-89.932-149.745-149.925a90.353 90.353 0 0 1-6.204-120.893l6.204-6.866 95.955-96.015a90.353 90.353 0 0 1 127.82 0l149.805 149.865L619.28 182.513c74.812-74.873 191.247-81.619 260.217-12.65zm-586.692 39.333a30.118 30.118 0 0 0-42.587 0l-95.954 96.015a30.118 30.118 0 0 0 0 42.587l552.056 552.056a30.118 30.118 0 0 0 42.586 0L844.92 803.9a30.118 30.118 0 0 0 0-42.586l-73.728-73.728-47.766 47.766a30.118 30.118 0 0 1-46.08-38.43l3.494-4.216L728.606 645l-138.48-138.542-49.876 49.996a30.118 30.118 0 0 1-46.08-38.43l3.494-4.217 49.875-49.875-140.71-140.71-47.706 47.767a30.118 30.118 0 0 1-46.08-38.43l3.433-4.216 47.767-47.707zm-89.148 499.35l-4.76 13.313-9.275 26.865-8.132 24.817-7.048 22.708-5.842 20.48-4.82 18.191-3.734 15.903-2.71 13.492-1.627 11.023-.662 8.433a20.962 20.962 0 0 0 .843 7.71l.783 1.205c1.144 1.205 4.156 1.747 8.915 1.626l8.433-.602 11.023-1.687a308.405 308.405 0 0 0 6.445-1.204l14.697-3.253 17.047-4.216 19.396-5.422 21.564-6.385 23.793-7.59 25.84-8.673 27.83-9.879 7.228-2.71-145.167-134.144zm100.412-125.71l-70.957 70.897L401.89 809.683l64.572-64.452-162.394-162.394zM669.877 217.63l-8.012 7.47-134.023 133.963 162.394 162.394L824.26 387.494c52.404-52.405 56.922-130.771 12.65-175.044-42.045-42.044-114.93-40.057-167.033 5.18z"/></svg>