<svg class="icon" viewBox="0 0 1088 1024" xmlns="http://www.w3.org/2000/svg" width="212.5" height="200"><defs><style/></defs><path d="M512 64a448 448 0 1 1 0 896 448 448 0 0 1 0-896zM334.08 706.24l-153.344.064A384.192 384.192 0 0 0 461.76 892.736c-58.56-59.52-101.12-121.664-127.616-186.496zm509.184.064H698.432c-26.496 65.536-70.656 127.552-132.48 185.856a383.936 383.936 0 0 0 277.312-185.856zm-215.104 0H404.352c24.64 50.816 60.928 99.84 108.8 147.328 51.52-46.72 89.792-95.808 115.008-147.328zM324.8 391.68H147.264A383.616 383.616 0 0 0 128 512c0 45.76 8 89.6 22.656 130.304h162.688c-19.392-80.064-15.552-163.712 11.52-250.624zm307.648 0H391.936c-30.976 88-35.008 171.392-12.224 250.56h272.64c21.12-77.824 14.528-161.152-19.904-250.56zm244.288 0h-176.64c30.016 87.872 36.16 171.52 18.368 250.56h154.88A383.36 383.36 0 0 0 896 512c0-42.048-6.784-82.56-19.2-120.32zM468.48 130.368l-13.184 1.728A384.32 384.32 0 0 0 175.04 327.68h173.632c27.776-64.128 67.712-129.92 119.808-197.184zm41.152 51.776l-11.264 14.976a864 864 0 0 0-79.616 130.56H603.52a968.576 968.576 0 0 0-93.952-145.408zm40.32-52.352l12.608 16.32c47.488 62.144 84.736 122.688 111.872 181.504h174.592a384.128 384.128 0 0 0-299.008-197.824z"/></svg>