<svg class="icon" viewBox="0 0 1024 1024" xmlns="http://www.w3.org/2000/svg" width="200" height="200"><defs><style/></defs><path d="M830.4 99.264a128 128 0 0 1 128 128v569.472a128 128 0 0 1-128 128H190.08a128 128 0 0 1-128-128V227.2a128 128 0 0 1 128-128h640.384zm-330.112 64H190.016a64 64 0 0 0-63.552 56.576l-.448 7.424v569.472a64 64 0 0 0 56.512 63.552l7.488.448h236.48c0-5.376 1.28-10.752 4.032-15.552l3.2-4.8 100.8-122.688-100.736-122.624a32 32 0 0 1-3.2-35.968l3.2-4.672 95.104-115.84-110.72-134.784a32 32 0 0 1-3.2-35.968l3.2-4.608L500.288 163.2zm330.112 0H578.432a31.744 31.744 0 0 1-3.392 8.96l-3.2 4.8-87.552 106.432 110.784 134.912a32 32 0 0 1 3.2 35.968l-3.2 4.608-95.168 115.776 100.8 122.688a32 32 0 0 1 3.2 35.968l-3.2 4.672-100.8 122.624H830.4a64 64 0 0 0 63.552-56.512l.448-7.424V227.2a64 64 0 0 0-56.512-63.552l-7.488-.448z"/></svg>