<svg class="icon" viewBox="0 0 1024 1024" xmlns="http://www.w3.org/2000/svg" width="200" height="200"><defs><style/></defs><path d="M928.768 721.92a32 32 0 0 1 32 32c0 120.832-198.4 205.312-439.296 205.312-240.832 0-439.296-84.48-439.296-205.312a32 32 0 0 1 63.488-5.76l.512 5.76c0 70.592 166.272 141.312 375.296 141.312 203.072 0 365.76-66.752 374.912-135.296l.384-6.016a32 32 0 0 1 32-32zm0-235.968a32 32 0 0 1 32 32c0 120.96-198.4 205.376-439.296 205.376-240.832 0-439.296-84.48-439.296-205.376a32 32 0 0 1 63.488-5.76l.512 5.76c0 70.592 166.272 141.376 375.296 141.376 203.072 0 365.76-66.816 374.912-135.296l.384-6.08a32 32 0 0 1 32-32zM519.104 77.056c243.52 0 440.896 95.36 440.896 212.992C960 407.68 762.624 503.04 519.04 503.04c-243.456 0-440.832-95.36-440.832-212.992 0-117.632 197.376-212.992 440.896-212.992zm0 64c-212.544 0-376.96 79.36-376.96 148.992 0 69.568 164.416 148.992 376.96 148.992C731.648 439.04 896 359.68 896 290.048c0-69.568-164.352-148.992-376.96-148.992z"/></svg>