<svg class="icon" viewBox="0 0 1024 1024" xmlns="http://www.w3.org/2000/svg" width="200" height="200"><defs><style/></defs><path d="M768.128 74.88a185.28 185.28 0 1 1-95.36 344.256L471.296 614.272c20.736 30.976 33.856 67.456 36.736 106.816h152.32a148.288 148.288 0 1 1 0 64h-156.8A222.464 222.464 0 1 1 230.4 522.368l-22.912-140.032-5.312-.128a148.224 148.224 0 1 1 68.352-11.52l23.552 144.768 4.48.192c49.344 2.624 94.4 21.376 130.048 51.008L624.256 376.96A185.28 185.28 0 0 1 768.128 74.88zM286.336 579.328a158.336 158.336 0 1 0 0 316.736 158.336 158.336 0 0 0 0-316.736zm518.848 89.6a84.224 84.224 0 1 0 0 168.512 84.224 84.224 0 0 0 0-168.512zm-37.056-529.92a121.28 121.28 0 1 0 0 242.56 121.28 121.28 0 0 0 0-242.56zm-555.904 11.136a84.224 84.224 0 1 0 0 168.448 84.224 84.224 0 0 0 0-168.448z"/></svg>