<svg class="icon" viewBox="0 0 1088 1024" xmlns="http://www.w3.org/2000/svg" width="212.5" height="200"><defs><style/></defs><path d="M498.432 65.28a64 64 0 0 1 47.68 0l365.696 146.688a44.8 44.8 0 0 1 28.16 43.52 63.893 63.893 0 0 1 19.904 46.4v396.8a64 64 0 0 1-32.96 56L559.872 958.4a64 64 0 0 1-95.04-56.128l1.024-459.2-301.248-125.44a64 64 0 0 1-36.992-76.608l2.496-7.04a64 64 0 0 1 35.2-34.816zm397.44 236.928l-366.08 164.48-.96 435.776 367.04-203.712V302.208zM255.36 743.168l5.568 1.6 128 48a32 32 0 0 1-16.896 61.44l-5.568-1.536-128-48a32 32 0 0 1 16.896-61.44zm-71.808-156.16l5.568 1.472 199.808 74.88a32 32 0 0 1-16.896 61.44l-5.568-1.536-199.808-74.88a32 32 0 0 1 16.896-61.44zm-73.216-161.28l5.568 1.536L388.928 529.6a32 32 0 0 1-16.896 61.44l-5.568-1.536L93.44 487.296a32 32 0 0 1 16.896-61.44zm411.968-301.12L189.184 258.56 520.96 396.608l324.416-142.464L522.24 124.672z"/></svg>