<svg class="icon" viewBox="0 0 1088 1024" xmlns="http://www.w3.org/2000/svg" width="212.5" height="200"><defs><style/></defs><path d="M963.456 824.064A143.808 143.808 0 0 1 780.8 962.56H219.008c-80.64 0-145.856-66.56-150.912-149.568l-.32-10.496v-352c0-101.76 74.88-185.792 170.368-191.616l10.688-.384H675.84v-45.504a143.808 143.808 0 1 1 287.616 0v611.072zm-143.808-79.808c-43.904 0-79.488 35.456-79.744 79.296a79.808 79.808 0 1 0 159.168 7.616l.384-7.68-.448-7.552a79.808 79.808 0 0 0-79.36-71.68zM675.84 322.56H248.832c-61.056 0-112 51.584-116.736 117.952l-.32 10.048v352c0 50.368 35.072 91.008 78.912 95.616l8.32.384H696.64a143.104 143.104 0 0 1-20.736-74.432l-.064-501.568zm143.808-189.312c-41.28 0-75.264 31.36-79.36 71.68l-.384 8.128-.064 491.52a143.104 143.104 0 0 1 79.808-24.256c29.568 0 56.96 8.96 79.808 24.192v-491.52c0-44.032-35.712-79.744-79.808-79.744z"/></svg>