<svg class="icon" viewBox="0 0 1024 1024" xmlns="http://www.w3.org/2000/svg" width="200" height="200"><defs><style/></defs><path d="M535.552 177.216a95.36 95.36 0 0 1 93.44 77.76l218.24-1.472a96 96 0 0 1 94.208 74.432l1.6 8.832 39.808 298.24a96 96 0 0 1-79.36 107.456c6.848 17.792 10.624 37.248 10.624 57.536 0 88.32-70.656 160-157.76 160-87.04 0-157.696-71.68-157.696-160l.192-7.168c-14.656 13.248-33.408 21.952-54.144 23.936l-9.152.448-64 .064C463.04 897.536 396.032 960 314.752 960c-81.344 0-148.352-62.464-156.8-142.72l-.96-.064a95.424 95.424 0 0 1-94.656-86.784l-.448-9.216v-448c0-49.792 37.632-90.88 85.952-95.552l9.152-.448h378.56zM314.752 704c-51.584 0-93.76 42.752-93.76 96s42.24 96 93.76 96 93.696-42.752 93.696-96-42.176-96-93.696-96zm441.6 0c-51.52 0-93.696 42.752-93.696 96s42.176 96 93.696 96c51.584 0 93.76-42.752 93.76-96s-42.24-96-93.76-96zm-220.8-462.784h-378.56a31.36 31.36 0 0 0-30.592 26.24l-.512 5.76v448c0 15.808 11.136 28.8 25.6 31.488l5.504.512h6.848A158.08 158.08 0 0 1 314.752 640c71.04 0 131.2 47.68 150.848 113.28l69.952-.064a31.36 31.36 0 0 0 30.592-26.24l.512-5.76v-448a31.744 31.744 0 0 0-25.6-31.488l-5.504-.512zm168.384 77.248l-73.344.512v384.448A156.736 156.736 0 0 1 756.352 640c39.872 0 76.288 14.976 104.064 39.68l27.328.064 4.224-.256a32 32 0 0 0 27.712-30.208l-.256-5.76-17.6-131.52H800a96 96 0 0 1-95.552-86.784L704 416v-97.536zm148.992-.576l-5.248-.384-79.744.512L768 416a32 32 0 0 0 26.24 31.488L800 448h93.248l-13.632-102.72a32 32 0 0 0-26.688-27.392z"/></svg>