<svg class="icon" viewBox="0 0 1024 1024" xmlns="http://www.w3.org/2000/svg" width="200" height="200"><defs><style/></defs><path d="M683.904 64.96C829.44 77.888 926.656 255.808 928 288.192V829.76a128 128 0 0 1-128 128H224a128 128 0 0 1-128-128v-638.4a128 128 0 0 1 126.528-128l170.88-1.408c138.88-.64 235.776.32 290.496 3.008zm-460.608 62.4a64 64 0 0 0-62.848 56.576L160 191.36v638.4a64 64 0 0 0 56.512 63.552l7.488.448h576a64 64 0 0 0 63.552-56.576l.448-7.424V307.84H684.864a96 96 0 0 1-95.552-86.784l-.448-9.216.064-85.504c-84.48-1.152-206.528-.832-365.632.96zm503.36 311.296a32 32 0 0 1 3.648 40.832l-3.648 4.416-208.512 208.448a32 32 0 0 1-40.768 3.712l-4.48-3.712-147.392-147.456a32 32 0 0 1 40.768-48.96l4.48 3.712 124.736 124.8 185.856-185.792a32 32 0 0 1 45.312 0zM652.8 127.936v83.904a32 32 0 0 0 26.24 31.488l5.76.512h155.648c-33.216-45.312-96-103.04-152.32-113.792l-9.28-1.28-7.04-.32-19.008-.64z"/></svg>