<svg class="icon" viewBox="0 0 1024 1024" xmlns="http://www.w3.org/2000/svg" width="200" height="200"><defs><style/></defs><path d="M668.37 431.104a265.276 265.276 0 1 1 0 530.552 265.276 265.276 0 0 1 0-530.552zm54.815-309.067c79.691 0 145.83 57.585 151.01 131.614l.301 9.336v150.95a30.118 30.118 0 0 1-59.753 5.421l-.482-5.421v-150.95c0-41.381-35.54-76.378-82.221-80.354l-8.855-.361H242.869c-47.887 0-86.317 32.527-90.654 73.005l-.422 7.71v554.045c0 41.32 35.599 76.318 82.221 80.293l8.855.362h135.168a30.118 30.118 0 0 1 5.42 59.753l-5.42.482H242.869c-79.692 0-145.83-57.525-151.01-131.554l-.301-9.336V262.987c0-75.354 62.946-135.95 141.432-140.65l9.879-.3h480.316zM668.37 491.339a205.04 205.04 0 1 0 0 410.082 205.04 205.04 0 0 0 0-410.082zm-15.902 49.574a30.118 30.118 0 0 1 29.635 24.696l.482 5.422v135.047H785.59a30.118 30.118 0 0 1 29.575 24.697l.482 5.42a30.118 30.118 0 0 1-24.696 29.637l-5.422.481h-133.06a30.118 30.118 0 0 1-29.635-24.696l-.482-5.421V571.03a30.118 30.118 0 0 1 30.118-30.118zm-326.174 122.88a30.118 30.118 0 0 1 5.42 59.753l-5.42.482h-69.873A30.118 30.118 0 0 1 251 664.275l5.422-.482h69.873zm48.067-154.985a30.118 30.118 0 0 1 5.422 59.753l-5.422.482h-115.53a30.118 30.118 0 0 1-5.422-59.754l5.421-.481h115.531zm197.873-151.793a30.118 30.118 0 0 1 5.421 59.753l-5.42.482H258.83a30.118 30.118 0 0 1-5.421-59.754l5.421-.481h313.404z"/></svg>