<svg class="icon" viewBox="0 0 1024 1024" xmlns="http://www.w3.org/2000/svg" width="200" height="200"><defs><style/></defs><path d="M628.16 65.408a96 96 0 0 1 90.496 64h48.128a159.872 159.872 0 0 1 159.424 149.504l.384 10.496v512c0 84.8-65.92 154.24-149.312 159.68l-10.496.32h-511.04A159.872 159.872 0 0 1 96.32 811.904L96 801.408v-512c0-84.8 65.92-154.24 149.248-159.68l10.496-.32h48.128a96 96 0 0 1 90.56-64H628.16zm-324.288 128h-48.128c-49.792 0-90.688 38.08-95.36 86.72l-.384 9.28v512c0 49.92 37.952 90.88 86.528 95.552l9.216.448h511.04c49.792 0 90.688-38.08 95.36-86.784l.448-9.216v-512c0-49.92-38.016-90.88-86.592-95.552l-9.216-.448h-48.128a96 96 0 0 1-90.496 64H394.432a96 96 0 0 1-90.56-64zm431.36 509.312a32 32 0 0 1 5.76 63.488l-5.76.512h-448a32 32 0 0 1-5.76-63.424l5.76-.576h448zm0-161.152a32 32 0 0 1 5.76 63.488l-5.76.512h-448a32 32 0 0 1-5.76-63.488l5.76-.512h448zm0-159.872a32 32 0 0 1 5.76 63.488l-5.76.512h-448a32 32 0 0 1-5.76-63.488l5.76-.512h448zM628.224 129.408H394.432a32 32 0 0 0-5.76 63.488l5.76.512H628.16a32 32 0 0 0 5.76-63.488l-5.76-.512z"/></svg>