<svg class="icon" viewBox="0 0 1024 1024" xmlns="http://www.w3.org/2000/svg" width="200" height="200"><defs><style/></defs><path d="M774.272 68.032c33.152 0 64 17.088 81.472 45.248l95.04 152.64a32 32 0 0 1 10.432 18.304l.512 5.76v522.112c0 45.312-36.672 81.408-82.432 85.504l-8.64.384H220.8c-46.72 0-86.208-33.472-90.688-77.44l-.384-8.448-.064-512a31.552 31.552 0 0 1 3.584-27.712l106.24-161.216a96 96 0 0 1 80.128-43.2zm123.392 253.952h-704v490.112c0 9.984 8.832 19.2 21.504 21.44l5.632.448h649.856c13.632 0 24.128-8 26.496-17.664l.576-4.224V321.92zM739.392 394.88a32 32 0 0 1 31.488 26.24l.512 5.76v99.392c0 127.36-100.864 230.848-225.664 230.848-120.832 0-219.2-96.96-225.408-218.56l-.32-12.288V426.88a32 32 0 0 1 63.488-5.76l.512 5.76v99.392c0 92.352 72.576 166.848 161.728 166.848 85.696 0 156.096-68.864 161.344-156.288l.32-10.56V426.88a32 32 0 0 1 32-32zm34.88-262.848H319.616a32 32 0 0 0-26.752 14.336L219.392 257.92h650.944l-68.928-110.848a32 32 0 0 0-21.76-14.592l-5.376-.512z"/></svg>