<svg class="icon" viewBox="0 0 1024 1024" xmlns="http://www.w3.org/2000/svg" width="200" height="200"><defs><style/></defs><path d="M672.64 67.072a32 32 0 0 1 31.424 26.24l.512 5.76V128h92.864a128 128 0 0 1 128 128v576a128 128 0 0 1-128 128H226.56a128 128 0 0 1-128-128V256a128 128 0 0 1 128-128h96.64l.128-28.928a32 32 0 0 1 63.488-5.76l.512 5.76L387.2 128h253.312V99.072a32 32 0 0 1 32-32zm188.8 383.04H162.56V832a64 64 0 0 0 56.512 63.552l7.488.448h570.88a64 64 0 0 0 63.552-56.512l.448-7.488V450.112zM698.496 537.6a32 32 0 0 1 3.712 40.832l-3.712 4.48-192 192a32 32 0 0 1-40.768 3.648l-4.48-3.712-135.744-135.744a32 32 0 0 1 40.768-48.96l4.48 3.648 113.152 113.216L653.248 537.6a32 32 0 0 1 45.248 0zM323.264 192H226.56a64 64 0 0 0-63.552 56.512L162.56 256v130.112h698.88V256a64 64 0 0 0-56.512-63.552L797.44 192h-92.8v36.48a32 32 0 0 1-63.488 5.76l-.512-5.76V192H387.2v36.48a32 32 0 0 1-63.424 5.76l-.512-5.76L323.2 192z"/></svg>