<svg class="icon" viewBox="0 0 1024 1024" xmlns="http://www.w3.org/2000/svg" width="200" height="200"><defs><style/></defs><path d="M803.776 70.08a128 128 0 0 1 128 128V832a128 128 0 0 1-128 128H257.92a128 128 0 0 1-128-128V645.376h-32a32 32 0 0 1-5.76-63.488l5.76-.512h32V451.648h-32a32 32 0 0 1-5.76-63.488l5.76-.512h32V198.08a128 128 0 0 1 128-128h545.792zm0 64H257.92a64 64 0 0 0-63.616 56.512l-.384 7.488v189.568h35.456a32 32 0 0 1 5.76 63.488l-5.76.512H193.92v129.728h35.456a32 32 0 0 1 5.76 63.488l-5.76.512H193.92V832a64 64 0 0 0 56.512 63.552l7.488.448h545.792a64 64 0 0 0 63.552-56.512l.448-7.488V198.08a64 64 0 0 0-56.576-63.616l-7.424-.384zM546.688 268.16c85.76 0 155.776 67.456 155.776 151.296a149.12 149.12 0 0 1-54.528 115.008c81.984 22.208 142.208 98.688 142.208 189.248a32 32 0 1 1-64 0c0-69.76-52.288-126.592-118.4-131.648l-9.472-.384H495.104c-70.464 0-127.936 58.944-127.936 132.032a32 32 0 1 1-64 0c0-90.624 60.288-167.04 142.336-189.44a148.48 148.48 0 0 1-54.592-114.816c0-83.84 69.952-151.296 155.776-151.296zm0 64c-50.944 0-91.776 39.36-91.776 87.296 0 47.936 40.832 87.296 91.776 87.296 50.944 0 91.776-39.36 91.776-87.296 0-48-40.832-87.296-91.776-87.296z"/></svg>