<svg class="icon" viewBox="0 0 1088 1024" xmlns="http://www.w3.org/2000/svg" width="212.5" height="200"><defs><style/></defs><path d="M396.032 68.992c59.712 0 104.768 22.848 132.864 68.736 12.672 20.8 19.776 42.048 23.232 63.04l1.728 12.544-.192 604.736c1.408 12.928 6.208 30.208 15.744 45.76 15.872 25.984 39.872 38.144 78.272 38.144 38.08 0 61.888-12.608 78.144-40.064 8.32-14.08 13.184-29.248 15.36-39.872l.96-5.76v-302.08a160 160 0 1 1 64 0l-.192 305.408c-2.432 22.08-9.664 48.896-25.024 74.816-28.16 47.68-73.344 71.488-133.248 71.488-59.776 0-104.832-22.848-132.928-68.736a174.72 174.72 0 0 1-23.232-63.104l-1.664-12.544.192-604.672a115.84 115.84 0 0 0-15.744-45.76c-15.872-25.984-39.872-38.144-78.272-38.144-38.08 0-61.952 12.608-78.208 40.064-8.32 14.016-13.12 29.248-15.36 39.872l-.896 5.76v295.68a160 160 0 1 1-64 0l.192-299.072c2.368-22.08 9.6-48.896 24.96-74.88 28.224-47.616 73.344-71.424 133.312-71.424zm-126.464 506.24a96 96 0 1 0 0 192 96 96 0 0 0 0-192zM774.144 261.44a96 96 0 1 0 0 192 96 96 0 0 0 0-192z"/></svg>