<svg class="icon" viewBox="0 0 1024 1024" xmlns="http://www.w3.org/2000/svg" width="200" height="200"><defs><style/></defs><path d="M512 69.572a231.605 231.605 0 0 1 231.605 231.604h59.813a60.235 60.235 0 0 1 59.694 52.586l61.8 481.882a60.235 60.235 0 0 1-59.692 67.885H161.07a60.235 60.235 0 0 1-59.453-69.873l77.703-481.882a60.235 60.235 0 0 1 59.453-50.598h41.562A231.605 231.605 0 0 1 512 69.572zm291.418 291.84H238.773l-77.704 481.882h704.15l-61.8-481.882zM570.007 477.425l5.42.06 97.642 10.541a30.118 30.118 0 0 1 25.118 19.697l1.265 4.699 19.095 102.64a30.118 30.118 0 0 1-57.706 16.264l-1.505-5.24-7.831-42.346-112.7 124.988a30.118 30.118 0 0 1-42.767 2.048l-3.735-4.156-45.96-61.26-104.447 84.15a30.118 30.118 0 0 1-38.551-.663l-3.795-3.915a30.118 30.118 0 0 1 .602-38.55l3.976-3.796 128.723-103.725a30.118 30.118 0 0 1 39.273 1.205l3.735 4.216 42.646 56.923 89.751-99.63-39.273-4.216a30.118 30.118 0 0 1-26.805-27.708l.12-5.421a30.118 30.118 0 0 1 27.709-26.805zM512 129.807a171.37 171.37 0 0 0-171.37 171.37h342.74A171.37 171.37 0 0 0 512 129.806z"/></svg>