<svg class="icon" viewBox="0 0 1024 1024" xmlns="http://www.w3.org/2000/svg" width="200" height="200"><defs><style/></defs><path d="M787.516 60.235a120.47 120.47 0 0 1 120.47 120.47v669.576a60.235 60.235 0 0 1-86.316 54.272l-281.962-135.59a60.235 60.235 0 0 0-52.645.181L213.534 903.53a60.235 60.235 0 0 1-86.799-54.09V180.705a120.47 120.47 0 0 1 120.47-120.47h540.311zm0 60.236h-540.31a60.235 60.235 0 0 0-59.814 53.187l-.422 7.048v668.672l273.47-134.325a120.47 120.47 0 0 1 95.171-4.698l10.18 4.277 281.962 135.65V180.705a60.235 60.235 0 0 0-53.188-59.814l-7.048-.421zm-89.389 422.61a30.118 30.118 0 0 1 5.421 59.754l-5.42.482H336.714a30.118 30.118 0 0 1-5.42-59.754l5.42-.482h361.412zm-184.26-302.14a120.47 120.47 0 1 1 0 240.941 120.47 120.47 0 0 1 0-240.94zm0 60.235a60.235 60.235 0 1 0 0 120.471 60.235 60.235 0 0 0 0-120.47z"/></svg>