<svg class="icon" viewBox="0 0 1024 1024" xmlns="http://www.w3.org/2000/svg" width="200" height="200"><defs><style/></defs><path d="M512 69.76c139.776 0 253.632 109.632 253.632 245.568 0 96-56.896 178.944-139.52 219.328 161.216 11.008 289.28 144.896 296.192 310.656l.32 14.08v82.944a32 32 0 0 1-63.488 5.76l-.512-5.76v-82.944c0-140.288-107.2-254.464-241.6-261.248l-12.672-.32-1.152-.064 64.64 113.024a32 32 0 0 1 2.752 25.152l-2.56 6.08L548.8 960a32 32 0 0 1-56.32-.32L376.32 741.696a32 32 0 0 1 0-29.952l58.496-111.36a96 96 0 0 1 1.472-2.688l-16.64.128c-136 0-247.296 109.952-253.952 248.512l-.32 13.056v82.944a32 32 0 0 1-63.488 5.76l-.512-5.76v-82.944c0-172.16 130.752-313.408 296.512-324.864-82.624-40.256-139.52-123.2-139.52-219.2C258.368 179.392 372.224 69.76 512 69.76zm35.584 559.488a32 32 0 0 0-56.128.96l-50.688 96.32 80.256 150.72 82.304-150.272zM512 133.76c-104.96 0-189.632 81.536-189.632 181.568 0 99.968 84.672 181.568 189.632 181.568l11.136-.32c96.064-5.376 172.608-79.104 178.176-170.624l.32-10.624c0-100.032-84.672-181.568-189.632-181.568z"/></svg>