<svg class="icon" viewBox="0 0 1088 1024" xmlns="http://www.w3.org/2000/svg" width="212.5" height="200"><defs><style/></defs><path d="M455.936 97.856l7.168 6.912 55.36 59.264L567.616 112a96 96 0 0 1 128.192-10.752l7.488 6.4a96 96 0 0 1 7.232 7.488l253.056 295.04a96 96 0 0 1-3.328 128.768l-91.648 96.192-.128-.256-287.808 298.624a91.968 91.968 0 0 1-127.68 5.76l-7.168-6.912L60.992 520a103.104 103.104 0 0 1-6.272-131.648l7.424-8.64 266.112-276.096a91.968 91.968 0 0 1 127.68-5.76zm-77.44 46.528l-4.16 3.712L107.84 424.512a39.232 39.232 0 0 0-3.904 46.784l3.84 5.056 384.832 412.352a27.968 27.968 0 0 0 37.76 4.032l4.224-3.648 22.848-23.68a31.808 31.808 0 0 1-1.28-.896l-4.288-3.84-94.208-100.928a32 32 0 0 1 42.432-47.552l4.352 3.84 94.208 100.992 2.432 3.008 52.48-54.4a31.808 31.808 0 0 1-3.136-2.048l-4.288-3.84-94.272-100.992a32 32 0 0 1 42.496-47.552l4.288 3.84 94.272 100.992a38.21 38.21 0 0 1 3.776 4.864l43.904-45.632-.192-.128-94.272-100.992a32 32 0 0 1 42.496-47.488l4.288 3.84 92.16 98.688 41.536-43.072L657.28 388.48a32 32 0 0 0-40.448-6.784l-4.672 3.328-26.112 22.4c-36.992 31.488-64.512 54.016-83.072 67.776l-11.008 7.872c-76.992 52.352-151.424 41.92-149.312-39.168 1.472-56.064 47.424-138.368 132.032-232.832L416.32 148.48a27.968 27.968 0 0 0-37.76-4.096zm281.024 9.92a32 32 0 0 0-45.248 1.472l-81.6 86.592c-81.792 89.088-124.992 163.84-126.08 203.2-.192 10.112 5.888 12.288 34.56-5.632L456 430.144c14.08-9.6 40.064-30.336 77.44-62.08l36.8-31.424 8.064-6.208a96 96 0 0 1 127.552 16.384l165.248 192.832 42.816-44.8a32 32 0 0 0 4.608-38.016l-3.52-4.928-253.056-295.04z"/></svg>