<svg class="icon" viewBox="0 0 1024 1024" xmlns="http://www.w3.org/2000/svg" width="200" height="200"><defs><style/></defs><path d="M139.008 120.64l5.76.896 274.816 65.984a32 32 0 0 1 13.696 7.104l3.648 3.776 72.704 89.28 68.288-82.56a32 32 0 0 1 12.288-9.088l4.928-1.664 274.88-65.984a32 32 0 0 1 38.592 38.592L842.56 441.792a32 32 0 0 1-10.88 17.344l-109.632 89.216 104.32 128.128 55.424-55.296a32 32 0 0 1 48.96 40.832l-3.712 4.48-118.784 118.656 127.616 127.616a32 32 0 0 1-40.832 48.96l-4.48-3.712L763.008 830.4 646.72 946.752a32 32 0 0 1-48.96-40.832l3.712-4.416 56.576-56.64-148.864-123.072-149.76 121.984 29.44 29.44a32 32 0 0 1-40.832 48.896l-4.416-3.712-50.176-50.176-4.672-3.84-37.632-37.696-129.408 129.408a32 32 0 0 1-48.96-40.832l3.712-4.416L205.76 781.44l-36.416-36.48a32.128 32.128 0 0 1-3.584-4.224L110.08 684.8a32 32 0 0 1 40.768-48.96l4.48 3.712 34.752 34.816L296.32 545.92l-113.408-93.696a32 32 0 0 1-9.152-12.288l-1.6-4.928-65.984-274.88a32 32 0 0 1 26.688-39.232l6.144-.256zm695.168 82.24L620.48 254.144 235.456 719.808l78.528 78.528 468.864-381.952 51.328-213.504zM672.448 588.8l-112.64 91.776 138.24 114.304 78.336-78.4L672.448 588.8zM180.48 195.968l51.328 213.76 105.152 86.848 131.072-158.528-74.048-90.816-213.504-51.2z"/></svg>