<svg class="icon" viewBox="0 0 1024 1024" xmlns="http://www.w3.org/2000/svg" width="200" height="200"><defs><style/></defs><path d="M873.408 900.48a32 32 0 0 1 5.76 63.488l-5.76.512H160.64a32 32 0 0 1-5.76-63.488l5.76-.512h712.832zM432.832 135.552a96 96 0 0 1 178.88 3.52L712.64 413.824l83.008-140.8a96 96 0 0 1 123.2-38.336l8.192 4.352a96 96 0 0 1 46.08 98.048l-75.968 469.12a32 32 0 0 1-31.616 26.88H186.24a32 32 0 0 1-31.36-25.408L58.24 346.112a96 96 0 0 1 176.64-68.48l81.92 139.072zm95.488 5.312a32 32 0 0 0-36.288 19.072l-140.48 340.608a32 32 0 0 1-57.152 4.032L179.648 310.144a32 32 0 0 0-58.88 22.848l91.392 436.096h626.112l71.68-442.24a32 32 0 0 0-10.88-29.44l-4.48-3.2a32 32 0 0 0-43.84 11.328l-117.184 199.04a32 32 0 0 1-57.6-5.184L551.552 161.088a32 32 0 0 0-17.792-18.56z"/></svg>