<svg class="icon" viewBox="0 0 1024 1024" xmlns="http://www.w3.org/2000/svg" width="200" height="200"><defs><style/></defs><path d="M646.758 67.038a102.4 102.4 0 0 1 96.598 68.267h51.336a170.53 170.53 0 0 1 170.053 159.47l.34 11.196v546.134c0 90.521-70.314 164.522-159.197 170.325l-11.196.341h-545.11A170.53 170.53 0 0 1 79.532 863.37l-.41-11.264V305.97c0-90.453 70.315-164.522 159.198-170.257l11.264-.41h51.268a102.4 102.4 0 0 1 96.598-68.266h249.31zM300.92 203.639h-51.336c-53.112 0-96.734 40.55-101.717 92.502l-.478 9.83v546.134c0 53.248 40.55 96.938 92.365 101.922l9.83.478h545.11c53.11 0 96.733-40.55 101.717-92.502l.41-9.898V305.97c0-53.248-40.483-96.938-92.297-101.922l-9.83-.478-51.337.068a102.4 102.4 0 0 1-96.598 68.267h-249.31a102.4 102.4 0 0 1-96.529-68.267zm460.118 543.267a34.133 34.133 0 0 1 6.144 67.72l-6.144.546H283.17a34.133 34.133 0 0 1-6.144-67.72l6.144-.546h477.867zm0-171.964a34.133 34.133 0 0 1 6.144 67.72l-6.144.547H283.17a34.133 34.133 0 0 1-6.144-67.721l6.144-.546h477.867zm0-170.53a34.133 34.133 0 0 1 6.144 67.72l-6.144.546H283.17a34.133 34.133 0 0 1-6.144-67.652l6.144-.614h477.867zm-114.28-269.107h-249.31a34.133 34.133 0 0 0-6.143 67.72l6.144.546h249.31a34.133 34.133 0 0 0 6.143-67.72l-6.144-.546z"/></svg>