<svg class="icon" viewBox="0 0 1024 1024" xmlns="http://www.w3.org/2000/svg" width="200" height="200"><defs><style/></defs><path d="M607.936 99.776l333.888 321.152a96 96 0 0 1-66.56 165.12h-38.272v252.416a128 128 0 0 1-128 128h-384a128 128 0 0 1-128-128V586.048h-36.736A96 96 0 0 1 94.08 420.672l336.832-321.28A128 128 0 0 1 608 99.84zM480.96 140.672l-5.952 4.992-336.832 321.28a32 32 0 0 0 16.32 54.656l5.76.512 100.736-.128V838.4a64 64 0 0 0 56.576 63.552l7.488.448h60.032a64.448 64.448 0 0 1-.832-10.112v-128a64 64 0 0 1 64-64h128a64 64 0 0 1 64 64v128c0 3.456-.256 6.848-.768 10.112h69.568a64 64 0 0 0 63.552-56.512l.448-7.488V521.984l102.208.128a32 32 0 0 0 25.984-50.752l-3.84-4.352L563.584 145.92a64 64 0 0 0-82.56-5.184zm95.36 623.68h-128v128h128v-128z"/></svg>