<?xml version="1.0" encoding="UTF-8"?>
<svg width="18px" height="14px" viewBox="0 0 18 14" version="1.1" xmlns="http://www.w3.org/2000/svg" xmlns:xlink="http://www.w3.org/1999/xlink">
    <!-- Generator: Sketch 59 (86127) - https://sketch.com -->
    <title>收起</title>
    <desc>Created with Sketch.</desc>
    <g id="页面-1" stroke="none" stroke-width="1" fill="none" fill-rule="evenodd">
        <g id="首页" transform="translate(-241.000000, -25.000000)" fill="#5C5C6E" fill-rule="nonzero">
            <g id="top" transform="translate(224.000000, 0.000000)">
                <g id="展开2" transform="translate(27.000000, 32.000000) scale(-1, 1) translate(-27.000000, -32.000000) translate(16.000000, 21.000000)">
                    <path d="M17.3999742,5.16664749 C17.3999742,5.8106252 16.8624787,6.33333682 16.1999943,6.33333682 L4.20002295,6.33333682 C3.53760305,6.33333682 3,5.8106252 3,5.16664749 L3,5.16664749 C3,4.52266979 3.53760305,4 4.20002295,4 L16.2000158,4 C16.8624787,4 17.3999742,4.52266979 17.3999742,5.16664749 L17.3999742,5.16664749 Z M13.8000344,11.0000314 C13.8000344,11.6440091 13.2624314,12.1666789 12.5999469,12.1666789 L4.20002295,12.1666789 C3.53760305,12.1666789 3,11.6440091 3,11.0000314 L3,11.0000314 C3,10.3559491 3.53760305,9.83334205 4.20002295,9.83334205 L12.5999684,9.83334205 C13.2624314,9.83334205 13.8000344,10.3559491 13.8000344,11.0000314 L13.8000344,11.0000314 Z M17.3999742,16.8333525 C17.3999742,17.4773302 16.8624787,18 16.1999943,18 L4.20002295,18 C3.53760305,18 3,17.4773302 3,16.8333525 L3,16.8333525 C3,16.1892702 3.53760305,15.666705 4.20002295,15.666705 L16.2000158,15.666705 C16.8624787,15.666705 17.3999742,16.1892702 17.3999742,16.8333525 L17.3999742,16.8333525 Z M16.1999943,14.4999529 L21,11.0000105 L16.1999943,7.49998431 L16.1999943,14.4999529 Z" id="收起"></path>
                </g>
            </g>
        </g>
    </g>
</svg>